<?xml version="1.0" encoding="UTF-8" standalone="no"?>
<svg
   width="279.846"
   height="279.846"
   viewBox="0 0 279.846 279.846"
   version="1.1"
   id="svg1"
   sodipodi:docname="azkar.svg"
   inkscape:version="1.4.2 (f4327f4, 2025-05-13)"
   xmlns:inkscape="http://www.inkscape.org/namespaces/inkscape"
   xmlns:sodipodi="http://sodipodi.sourceforge.net/DTD/sodipodi-0.dtd"
   xmlns="http://www.w3.org/2000/svg"
   xmlns:svg="http://www.w3.org/2000/svg">
  <defs
     id="defs1" />
  <sodipodi:namedview
     id="namedview1"
     pagecolor="#505050"
     bordercolor="#eeeeee"
     borderopacity="1"
     inkscape:showpageshadow="0"
     inkscape:pageopacity="0"
     inkscape:pagecheckerboard="0"
     inkscape:deskcolor="#505050"
     inkscape:zoom="2.3334262"
     inkscape:cx="139.70873"
     inkscape:cy="139.923"
     inkscape:window-width="1708"
     inkscape:window-height="871"
     inkscape:window-x="2391"
     inkscape:window-y="146"
     inkscape:window-maximized="1"
     inkscape:current-layer="svg1" />
  <g
     id="Group_25"
     data-name="Group 25"
     transform="translate(-1763.332 -1593.032)">
    <circle
       id="Ellipse_13"
       data-name="Ellipse 13"
       cx="139.923"
       cy="139.923"
       r="139.923"
       transform="translate(1763.332,1593.032)"
       fill="#ffffff"
       style="display:none" />
    <path
       id="Path_135"
       data-name="Path 135"
       d="M2004.7,1741.6a1.4,1.4,0,0,0-2.772-.145,80.437,80.437,0,0,1-22.352,42.5c-.572.572-1.182,1.076-1.766,1.626a104.772,104.772,0,0,0,17.6-63.9c-.04-.795-.094-1.624-.154-2.452a1.4,1.4,0,0,0-2.77-.147,80.845,80.845,0,0,1-68.346,65.388,81.624,81.624,0,0,1-34.57-2.644,80.457,80.457,0,0,1-33.85-20.242q-2.843-2.845-5.346-5.9-1.533-1.872-2.943-3.809c-1.215-1.674-2.331-3.4-3.4-5.139-.182-.715-.377-1.429-.539-2.15a81.3,81.3,0,0,1,6.423-53.815,80.327,80.327,0,0,1,6.779-11.26,81.365,81.365,0,0,1,8.477-9.963,80.424,80.424,0,0,1,42.507-22.353,1.4,1.4,0,0,0-.154-2.773c-.834-.066-1.657-.112-2.443-.153a104.747,104.747,0,0,0-58.856,14.419c.351-.51.658-1.045,1.023-1.549a81.709,81.709,0,0,1,8.479-9.965,80.42,80.42,0,0,1,42.507-22.351,1.4,1.4,0,0,0-.154-2.773c-.831-.066-1.659-.114-2.445-.153a105.459,105.459,0,0,0-105.19,139.044,24.922,24.922,0,0,0,1.1,3.312c.442,1.068.9,2.257,1.437,3.426a104.142,104.142,0,0,0,5.689,11.487c.4,1.383.755,2.785,1.215,4.147a24.093,24.093,0,0,0,1.1,3.312c.44,1.07.905,2.259,1.435,3.426a105.676,105.676,0,0,0,82.713,63.733,22.716,22.716,0,0,0,2.847.394c.535.04,1.1.085,1.678.127q4.957.461,10.01.466a105.235,105.235,0,0,0,105.178-110.72C2004.813,1743.256,2004.759,1742.429,2004.7,1741.6Z"
       fill="#ddd" />
    <g
       id="Group_24"
       data-name="Group 24">
      <path
         id="Path_136"
         data-name="Path 136"
         d="M1995.409,1721.679c-.04-.795-.094-1.624-.154-2.452a1.4,1.4,0,0,0-2.77-.147,80.845,80.845,0,0,1-68.346,65.388,81.526,81.526,0,0,1-34.57-2.644,80.457,80.457,0,0,1-33.85-20.242q-2.843-2.845-5.346-5.9a80.309,80.309,0,0,1-16.329-33.47,80.742,80.742,0,0,1,21.679-75.04,80.42,80.42,0,0,1,42.507-22.351,1.4,1.4,0,0,0-.154-2.773c-.831-.066-1.659-.114-2.445-.153a105.459,105.459,0,0,0-105.19,139.044,24.922,24.922,0,0,0,1.1,3.312c.442,1.068.9,2.257,1.437,3.426a105.675,105.675,0,0,0,82.711,63.731,22.03,22.03,0,0,0,2.849.394c.533.042,1.1.088,1.674.127q4.961.463,10.014.469h0a105.236,105.236,0,0,0,105.178-110.721"
         fill="#e08c34" />
      <path
         id="Path_137"
         data-name="Path 137"
         d="M1843.567,1639.248a6.479,6.479,0,0,1,.879,3.953q1.315-1.052,2.659-2.043a16.76,16.76,0,0,0-.525-2.177,10.771,10.771,0,0,0-1.976-3.381.7.7,0,0,1-.143-.246q-1.425.712-2.827,1.462a8.784,8.784,0,0,1,1.933,2.432"
         fill="#f9b85b" />
      <path
         id="Path_138"
         data-name="Path 138"
         d="M1989.318,1753.287a.823.823,0,0,1-.774.168,10.127,10.127,0,0,1-2.03-1.136c-.556,1.269-1.142,2.524-1.756,3.78a5.288,5.288,0,0,1,1.362.514,2.735,2.735,0,0,1,1.576,2.064.781.781,0,0,1-.02.187q.9-2.766,1.642-5.577"
         fill="#f9b85b" />
      <path
         id="Path_139"
         data-name="Path 139"
         d="M1986.421,1759.405c-.529-.241-.923-.875-1.363-1.263a3.3,3.3,0,0,0-1.028-.6q-.843,1.652-1.771,3.27a7.519,7.519,0,0,1,1.537.848c.682.514,1.669,1.23,1.822,2.117.121.662-.421,1.437-1.175,1.176a6.617,6.617,0,0,1-1.883-1.495c-.4-.348-.822-.682-1.255-.989-.622,1.035-1.269,2.069-1.931,3.1,1.79.749,3.613,2.066,4.187,3.888a102.239,102.239,0,0,0,4.061-10.424.9.9,0,0,1-1.2.373"
         fill="#f9b85b" />
      <path
         id="Path_140"
         data-name="Path 140"
         d="M1851.781,1635.549a18.314,18.314,0,0,1,.96,1.742c1.054-.668,2.124-1.309,3.2-1.931a8.14,8.14,0,0,0-.709-1.763,8.878,8.878,0,0,0-1.935-2.136q-1.742.669-3.457,1.408a12.651,12.651,0,0,1,1.943,2.68"
         fill="#f9b85b" />
      <path
         id="Path_141"
         data-name="Path 141"
         d="M1855.553,1795.053a92.989,92.989,0,0,1-31.015-29.578c1.5,9.931,2.756,20.422,9.678,28.276a19.279,19.279,0,0,0,5.106,4.294c1.284.695,4.9,2.518,5.8.289.589-1.464-1.356-4.162-2.328-5.17a11.159,11.159,0,0,0-5.16-2.924,2.131,2.131,0,0,0,.18,1.275,9.935,9.935,0,0,0,2.389,2.7c.741.728-.051,1.7-.918,1.582a5.406,5.406,0,0,1-3.739-3.146c-.865-1.636-1.753-3.338-1.317-5.221a2.054,2.054,0,0,1,2.472-1.41,17.365,17.365,0,0,1,9.014,4.547c2.462,2.232,5.16,5.55,5.011,9.071-.168,3.853-4.023,6.217-7.6,6.1-3.633-.12-6.878-2.265-9.58-4.515-4.621-3.834-7.468-9.4-9.183-15.059-3.026-10.011-3.188-20.637-5.508-30.781a91.742,91.742,0,0,1-4.884-12.362,100.551,100.551,0,0,0-8.347-14.6c-6.7-10.217-14.564-22.411-10.033-35.107,1.041-2.911,3.036-5.943,6.222-6.758a6.029,6.029,0,0,1,7.569,4.121,17.446,17.446,0,0,1-3.463,16.007,1.9,1.9,0,0,1-2.3.3c-1.541-1.137-2.016-2.893-2.385-4.708a5.074,5.074,0,0,1,.883-4.583.9.9,0,0,1,1.525.629,10.325,10.325,0,0,0-.1,3.32,2.227,2.227,0,0,0,.682,1.134,10.112,10.112,0,0,0,1.937-5.97,8.661,8.661,0,0,0-.906-3.64,1.277,1.277,0,0,0-1.823-.761c-1.783.541-2.683,3.306-3.129,4.9a20.792,20.792,0,0,0-.618,7.144,36.468,36.468,0,0,0,4.695,14.933c2.024,3.621,4.344,7.053,6.522,10.578a92.755,92.755,0,0,1,1.852-38.093c.6-2.316,1.3-4.614,2.092-6.879-1.491-3.386-3.867-6.25-8.1-6.009a11.639,11.639,0,0,0-7.011,3.052,27.388,27.388,0,0,0-3.7,4.446,101.243,101.243,0,0,0-6.174,19.562,1.086,1.086,0,0,1,.409.888c-.129,3.967-.224,7.793,1.416,11.5a54.537,54.537,0,0,0,6.232,10.5c4.139,5.53,8.985,10.439,12.782,16.241a28.506,28.506,0,0,1,4.078,9.03,40.649,40.649,0,0,1,.574,11.333c-.361,7.714-.695,15.288.776,22.921a47.324,47.324,0,0,0,2.519,9.135,25.047,25.047,0,0,0,2.368,4.482c.417.614.865,1.209,1.3,1.81,2.6,2.3,5.292,4.461,8.071,6.464a1.234,1.234,0,0,1,1.578-.514c2.744,1.489,5.363,2.893,8.494,3.347a36.711,36.711,0,0,0,9.484-.255c6.337-.807,12.407-3.018,18.734-3.907a31.57,31.57,0,0,1,10.3-.079,30.035,30.035,0,0,1,8.917,3.579c5.9,3.225,11.584,6.6,18.023,8.662a44.89,44.89,0,0,0,9.469,2.157,25.086,25.086,0,0,0,4.8.033c1.557-.159,3.063-.574,4.628-.622a.759.759,0,0,1,.728.635,100.97,100.97,0,0,0,16.955-8.053,17.071,17.071,0,0,0,.83-3.546,11,11,0,0,0-.454-4.1,9.866,9.866,0,0,0-2.045-3.679,18.537,18.537,0,0,0-3.405-2.457.946.946,0,0,1-.384-.869q-3.586,1.471-7.262,2.625a92.413,92.413,0,0,1-74.223-8.249m-24.472-13.457a1.463,1.463,0,0,1,0-2.924,1.463,1.463,0,0,1,0,2.924m-24.954-67.19c-.861.861-2.756.3-2.6-1.083l.009-.072a1.5,1.5,0,0,1,1.439-1.443l.079-.007c1.37-.153,1.945,1.736,1.078,2.6m22.917,89.176a.648.648,0,0,1-.083.187,1.488,1.488,0,0,1-2.575,0,1.548,1.548,0,0,1-.158-.367c-.019-.133-.039-.268-.054-.4a2.553,2.553,0,0,1,.058-.436l.019-.1a1.637,1.637,0,0,1,.678-.882l.353-.147c.132-.021.261-.039.389-.06a1.144,1.144,0,0,1,.573.132.7.7,0,0,1,.325.189,1.1,1.1,0,0,1,.38.413c.052.12.1.234.145.355l.021.1a3.57,3.57,0,0,1,.058.436,1.136,1.136,0,0,1-.129.58m31.057,1.9-.234.3a1.508,1.508,0,0,1-1.052.435,1.133,1.133,0,0,1-.574-.126,1.179,1.179,0,0,1-.483-.309,1.129,1.129,0,0,1-.307-.48,1.164,1.164,0,0,1-.129-.574c.017-.135.033-.274.05-.415a1.445,1.445,0,0,1,.2-.728c.075-.093.149-.2.224-.294a1.493,1.493,0,0,1,1.022-.421,1.078,1.078,0,0,1,.554.126,1.153,1.153,0,0,1,.465.295,1.13,1.13,0,0,1,.3.469,1.118,1.118,0,0,1,.123.553c.018.141.031.28.047.415a1.544,1.544,0,0,1-.2.753m54.379,8.075c.914-4.448,6.918-5.964,10.665-4.508,1.692.661,3.312,2.084,2.837,4.093a3.681,3.681,0,0,1-4.745,2.512c-.854-.32-1.07-1.757,0-1.97.7-.133,2.6-.2,2.368-1.348-.157-.77-1.686-1.131-2.277-1.243a6.143,6.143,0,0,0-4.854,1.062,2.733,2.733,0,0,0-.685,3.88,5.358,5.358,0,0,0,4.067,2.13c3.146.415,7.02-.054,9.342-2.412a5.863,5.863,0,0,0,1.838-4.259c-.094-1.636-1.315-3.092-3.071-2.713a1.254,1.254,0,0,1-.666-2.416,4.817,4.817,0,0,1,5.651,2.5,7.968,7.968,0,0,1-.12,7c-2.1,4.563-7.565,5.9-12.19,5.631-4.116-.241-9.166-3.072-8.16-7.941m-13.092.981a1.466,1.466,0,0,1,0-2.93,1.466,1.466,0,0,1,0,2.93"
         fill="#f9b85b" />
      <path
         id="Path_142"
         data-name="Path 142"
         d="M1868.674,1629.269c1.091-.412,2.184-.813,3.287-1.194a11.2,11.2,0,0,0-.537-1.763c-1.246.234-2.489.494-3.725.767a6.032,6.032,0,0,1,.484.836,6.966,6.966,0,0,1,.491,1.354"
         fill="#f9b85b" />
      <path
         id="Path_143"
         data-name="Path 143"
         d="M1811.482,1777.343c-.341-4.148-.529-8.229-.573-12.389a33.185,33.185,0,0,0-1.914-11.688,39.376,39.376,0,0,0-4.857-8.84c-4.176-5.832-9.309-10.933-13.015-17.1a35.306,35.306,0,0,1-3.2-6.945c-.143,2.217-.211,4.455-.211,6.7a103.368,103.368,0,0,0,2.76,23.815c.966-2.617,2.938-4.587,6.308-4.355,5.3.375,8.036,4.917,9.658,9.51.848,2.4,1.684,5.189,1.425,7.754a5.229,5.229,0,0,1-5.357,4.735c-5-.193-8.664-6.4-7.366-10.919a1.641,1.641,0,0,1,2.97-.388c.773,1.591,1.547,3.781,2.944,4.93a3.023,3.023,0,0,0,.869.514.9.9,0,0,0,.181.027c0-.249.025-.863.025-1.116-.007-3.88-1.24-8.316-4.162-11.053-1.8-1.676-4.053-.915-4.741,1.369a14.346,14.346,0,0,0-.062,6.466,40.652,40.652,0,0,0,1.816,6.383c.637,1.763,1.693,3.579,2.167,5.429a102.34,102.34,0,0,0,17.25,25.9,39.706,39.706,0,0,1-1.85-7.619c-.531-3.681-.755-7.413-1.061-11.113m-16.439-37.973a1.2,1.2,0,0,1-.687.689.989.989,0,0,1-.5.1,1.313,1.313,0,0,1-.656-.174c-.087-.066-.174-.133-.263-.207a1.276,1.276,0,0,1-.332-.566c-.016-.121-.033-.229-.048-.349a1.072,1.072,0,0,1,.11-.5,1.009,1.009,0,0,1,.27-.414.925.925,0,0,1,.417-.268,1,1,0,0,1,.5-.112,1.319,1.319,0,0,1,.653.172l.265.208a1.334,1.334,0,0,1,.334.574c.011.114.029.228.046.34a.947.947,0,0,1-.114.5m10.493,37.585a1.35,1.35,0,0,1,0-2.7,1.35,1.35,0,0,1,0,2.7"
         fill="#f9b85b" />
      <path
         id="Path_144"
         data-name="Path 144"
         d="M1989.586,1752.279c.327-1.3.634-2.6.914-3.921a.6.6,0,0,1-.106-.006,5.917,5.917,0,0,1-1.951-.8c-.353.942-.713,1.871-1.095,2.8a3.506,3.506,0,0,1,2.238,1.93"
         fill="#f9b85b" />
      <path
         id="Path_145"
         data-name="Path 145"
         d="M1904.306,1823.918c-3.3-1.249-6.56-2.611-9.84-3.907-3.211-1.269-6.232-2.906-9.368-4.334-6.524-2.972-13.483-2.846-20.383-1.423-6.308,1.3-12.6,3.233-19.1,3.173a27.69,27.69,0,0,1-4.826-.481,101.363,101.363,0,0,0,26.2,10.024,5.108,5.108,0,0,1-1.07-5.657c1.912-4.5,6.75-5.323,11.157-4.869,3.957.409,12.042,2.057,9.413,7.922-.993,2.217-3.248,3.258-5.535,3.558a7.459,7.459,0,0,1-6.406-1.735,1.475,1.475,0,0,1,1.033-2.491c1.045.006,2.111.027,3.154-.021a4.319,4.319,0,0,0,2.233-.541c.258-.187.295-.353.475-.514a8.258,8.258,0,0,0-2.013-.954,14.886,14.886,0,0,0-5.7-1.1c-1.539-.007-3.874.12-4.962,1.362-2.993,3.426,4.7,6.018,6.874,6.518.572.135,1.147.255,1.721.361a104.1,104.1,0,0,0,38.461-2.4c-.148-.006-.3-.012-.442-.02a37.167,37.167,0,0,1-11.078-2.464m-44.52-3.119a1.163,1.163,0,0,1,0-2.325,1.163,1.163,0,0,1,0,2.325m32.112,3.585a1.1,1.1,0,0,1,0-2.189,1.1,1.1,0,0,1,0,2.189"
         fill="#f9b85b" />
      <path
         id="Path_146"
         data-name="Path 146"
         d="M1866.824,1630.012c-.132-.409-.207-.863-.358-1.236a6.979,6.979,0,0,0-.65-1.255q-2.429.6-4.821,1.309a8.342,8.342,0,0,1,1.758,2.971c1.346-.628,2.7-1.229,4.071-1.789"
         fill="#f9b85b" />
      <path
         id="Path_147"
         data-name="Path 147"
         d="M1851.138,1638.332c-.286-.56-.547-1.135-.852-1.67a35.2,35.2,0,0,1-1.993-3.119c-.858.388-1.713.782-2.563,1.191a11.988,11.988,0,0,1,3.131,5.149c.755-.529,1.512-1.05,2.277-1.551"
         fill="#f9b85b" />
      <path
         id="Path_148"
         data-name="Path 148"
         d="M1826.027,1654.522a.779.779,0,0,0-.263-1.284.647.647,0,0,1-.521.435l-.626.1c-.214.842.738,1.7,1.41.749"
         fill="#f9b85b" />
      <path
         id="Path_149"
         data-name="Path 149"
         d="M1982.166,1770.732c-.714-.668-1.249-1.5-1.956-2.172a8.336,8.336,0,0,0-1.9-1.4q-1.032,1.512-2.129,3a12.7,12.7,0,0,1,2.355,2.15,6.028,6.028,0,0,1,1.657,3.219.935.935,0,0,1-1.576.655,14.122,14.122,0,0,1-1.742-2.592,15.682,15.682,0,0,0-1.717-2.076q-1.214,1.57-2.5,3.1a7.5,7.5,0,0,1,2.785,1.751c1,1,2.226,2.583,1.765,4.087a.677.677,0,0,1-1.116.294c-.908-.8-1.236-2.065-2.1-2.932a6.848,6.848,0,0,0-2.624-1.7c-1.329,1.509-2.706,2.984-4.147,4.427q-1.616,1.6-3.279,3.125c.307.235.614.469.927.695.535.394,1.076.776,1.6,1.176a12.675,12.675,0,0,1,2.677,2.611,6.757,6.757,0,0,1,1.209,2.878,102.583,102.583,0,0,0,12.509-20.055.879.879,0,0,1-.688-.253m-10.591,13.195a1.359,1.359,0,0,1,0-2.716,1.359,1.359,0,0,1,0,2.716"
         fill="#f9b85b" />
      <path
         id="Path_150"
         data-name="Path 150"
         d="M1833.607,1647.336a10.056,10.056,0,0,1,1.356,4.593c.589-.62,1.184-1.236,1.792-1.843,1.65-1.649,3.355-3.225,5.1-4.728q.8-.692,1.615-1.363a.868.868,0,0,1-.6-.527,13.427,13.427,0,0,0-3.05-5.649,104.075,104.075,0,0,0-9.867,6.33,7.946,7.946,0,0,1,3.656,3.187m3.133-5.564c.039-.039.083-.073.122-.108a1.32,1.32,0,0,1,.38-.238,1.191,1.191,0,0,1,.182-.06,1.077,1.077,0,0,1,.552,0,1.265,1.265,0,0,1,.2.06,1.339,1.339,0,0,1,.375.238c.038.035.081.069.123.108a1.19,1.19,0,0,1,.269,1.5,1.284,1.284,0,0,1-1.055.8.926.926,0,0,1-.183.012.912.912,0,0,1-.18-.012,1.285,1.285,0,0,1-1.056-.815,1.187,1.187,0,0,1,.274-1.489"
         fill="#f9b85b" />
      <path
         id="Path_151"
         data-name="Path 151"
         d="M1965.451,1787.668a21.178,21.178,0,0,1-3.233-2.472,91.907,91.907,0,0,1-9.183,6.987,9.04,9.04,0,0,1,4.728,10.284.423.423,0,0,1-.827-.114,10.118,10.118,0,0,0-5.684-9.015,92.233,92.233,0,0,1-12.692,6.7c3.069.527,5.353,3.974,6.282,6.672a13.178,13.178,0,0,1,.386,6.932,103.665,103.665,0,0,0,11.4-8.436c.025-.247.079-.493.112-.74a1.587,1.587,0,0,1,.662-1.282.858.858,0,0,1,1.034.133c.054.066.094.126.141.187q2.114-1.9,4.148-3.926,2.694-2.706,5.176-5.585a.508.508,0,0,1,.033-.139c.834-2.55-.555-4.622-2.484-6.184m-12.689,17.238a3.894,3.894,0,0,1-5.39-1.483,2.661,2.661,0,0,1,1.215-3.642.811.811,0,0,1-.427-1.161c1.435-1.889,4.5-1.116,5.7.634a4.075,4.075,0,0,1-1.1,5.652m9.9-9.318a3.028,3.028,0,0,1-3.667-2.3,3.231,3.231,0,0,1,2.223-3.753.651.651,0,0,1,.374,0,3.226,3.226,0,0,1,3.56,2.364,3.027,3.027,0,0,1-2.49,3.687"
         fill="#f9b85b" />
      <path
         id="Path_152"
         data-name="Path 152"
         d="M1818.52,1658.85a8.446,8.446,0,0,1,5.3,7.444,92.11,92.11,0,0,1,6.309-8.828q1.319-1.642,2.727-3.233c-.145-1.715.089-3.438-.635-5.141a5.617,5.617,0,0,0-4.274-3.446,102.068,102.068,0,0,0-10.211,8.936q-1.88,1.881-3.65,3.838a8.862,8.862,0,0,1,4.436.43m4.409-5.859a1.45,1.45,0,0,1,.9-.773.892.892,0,0,1,.161-.95c1.226-1.348,3.495.048,4.125,1.329a3.087,3.087,0,0,1-1.574,4.127,2.71,2.71,0,0,1-3.747-1.676,2.573,2.573,0,0,1,.137-2.057"
         fill="#f9b85b" />
      <path
         id="Path_153"
         data-name="Path 153"
         d="M1990.861,1746.562a101.551,101.551,0,0,0,1.723-13.851,91.423,91.423,0,0,1-3.411,12.789,5.414,5.414,0,0,1,.527.207,3.458,3.458,0,0,1,1.161.855"
         fill="#f9b85b" />
      <path
         id="Path_154"
         data-name="Path 154"
         d="M1951.814,1800.057a2.647,2.647,0,0,0-2.039-.355.7.7,0,0,1-.012,1.336c-.861.147-.734,1.543-.187,1.982a1.883,1.883,0,0,0,2.524-.192,1.98,1.98,0,0,0-.286-2.771"
         fill="#f9b85b" />
      <path
         id="Path_155"
         data-name="Path 155"
         d="M1807.454,1676.713c3.984.388,6.611,2.939,8.138,6.2a91,91,0,0,1,5.732-12.4.683.683,0,0,1,.033-.427c1.572-3.859,0-8.328-4.245-9.483a7.418,7.418,0,0,0-5.533.848c-.083.048-.166.093-.251.147a102.486,102.486,0,0,0-11.675,17.351,11.756,11.756,0,0,1,7.8-2.231m1.709-7.793c.133-2.118,3.739-2.217,5.139-1.35a4.134,4.134,0,0,1,.78,6.018,4.244,4.244,0,0,1-6.043.234c-1.357-1.263-1.717-4.021.124-4.9"
         fill="#f9b85b" />
      <path
         id="Path_156"
         data-name="Path 156"
         d="M1884.59,1624.721a100.947,100.947,0,0,0-11.468,1.29,8.275,8.275,0,0,1,.591,1.483,92.121,92.121,0,0,1,10.877-2.773"
         fill="#f9b85b" />
      <path
         id="Path_157"
         data-name="Path 157"
         d="M1857.629,1634.412c1.139-.628,2.281-1.221,3.434-1.8-.116-.315-.24-.628-.385-.935a10.722,10.722,0,0,0-1.5-2.291q-2.052.652-4.077,1.4a7.141,7.141,0,0,1,2.53,3.627"
         fill="#f9b85b" />
      <path
         id="Path_158"
         data-name="Path 158"
         d="M1961.529,1791.621a.969.969,0,0,1-.481.006c-.479.908-.325,2.192.969,2.1.562-.042,1.269-.442,1.19-1.1a1.388,1.388,0,0,0-1.678-1.008"
         fill="#f9b85b" />
      <path
         id="Path_159"
         data-name="Path 159"
         d="M1810.727,1672.914a2.293,2.293,0,0,0,3.162-.917,2,2,0,0,0-1.062-2.843c-1-.321-1.7.274-2.554.554a.673.673,0,0,1-.2.213c-1.171.809-.354,2.491.654,2.993"
         fill="#f9b85b" />
      <path
         id="Path_160"
         data-name="Path 160"
         d="M1829.478,1723.114c-3.772-.734-6.5-3.98-8.546-7.219a55.044,55.044,0,0,1-8.181-24.029,92.755,92.755,0,0,0-1.852,38.093c.524.855,1.045,1.711,1.549,2.572,3.608-.587,6.327,2.752,9.052,4.908,7.969,6.319,16.822,11.361,25.628,16.389.066.04.13.073.2.114,1.018.581,2.028,1.156,3.048,1.742a80.322,80.322,0,0,1-16.329-33.464,7.291,7.291,0,0,1-1.333.614,6.356,6.356,0,0,1-3.233.28"
         fill="#f09c44" />
      <path
         id="Path_161"
         data-name="Path 161"
         d="M1893.941,1786.86c1.035,1.374,2.047,2.95,1.92,4.674-.168,2.364-2.389,4.027-4.537,5.043-9.125,4.307-19.877,2.771-29.634.214q-3.082-.8-6.137-1.738a92.413,92.413,0,0,0,74.223,8.249c-.071-.041-.139-.08-.214-.114-3-1.6-6.1-3.3-8.133-6.024s-2.692-6.8-.568-9.469a12.6,12.6,0,0,1,1.553-1.563,17.815,17.815,0,0,0,1.725-1.664,81.624,81.624,0,0,1-34.57-2.644c.658.654,1.288,1.33,1.9,2.024.861.969,1.688,1.977,2.468,3.012"
         fill="#f09c44" />
    </g>
  </g>
</svg>
