<svg xmlns="http://www.w3.org/2000/svg" width="279.846" height="279.846" viewBox="0 0 279.846 279.846">
  <g id="Group_30" data-name="Group 30" transform="translate(-1763.332 -2032.723)">
    <circle id="Ellipse_14" data-name="Ellipse 14" cx="139.923" cy="139.923" r="139.923" transform="translate(1763.332 2032.723)" fill="#fff"/>
    <path id="Path_173" data-name="Path 173" d="M1954.517,2077.773c-8.214-8.345-19.419-14.644-32.392-18.218a16.094,16.094,0,0,1-11.339-11.809,13.735,13.735,0,0,0-26.719,0,16.262,16.262,0,0,1-1.56,4.047,15.989,15.989,0,0,1-9.785,7.755,76.26,76.26,0,0,0-25.686,12.358,61,61,0,0,0-6.706,5.867c-7.3,7.411-11.877,16-13.428,25.148a42.457,42.457,0,0,0-.6,7.142V2249.6a17.257,17.257,0,0,0,10.3,15.764v8.627a17.267,17.267,0,0,0,17.248,17.255H1961.6a17.266,17.266,0,0,0,17.248-17.255V2134.454c0-10.181-3.624-19.873-10.5-28.318C1967.4,2095.781,1962.679,2086.044,1954.517,2077.773Z" fill="#ddd"/>
    <g id="Group_29" data-name="Group 29">
      <path id="Path_174" data-name="Path 174" d="M1954.517,2077.773c-8.214-8.345-19.419-14.644-32.392-18.218a16.094,16.094,0,0,1-11.339-11.809,13.735,13.735,0,0,0-26.719,0,16.091,16.091,0,0,1-11.345,11.809c-12.967,3.574-24.174,9.873-32.392,18.218-7.3,7.411-11.877,16-13.428,25.148a42.457,42.457,0,0,0-.6,7.142V2249.6a17.267,17.267,0,0,0,17.248,17.256h107.759a17.267,17.267,0,0,0,17.249-17.256V2110.063c0-11.817-4.85-22.979-14.038-32.29m-70.538,79.216c0-.021.013-.021,0,0" fill="#f9b85b"/>
      <g id="Group_27" data-name="Group 27">
        <path id="Path_175" data-name="Path 175" d="M1956.213,2110.063c0-12.116-7.369-23.022-19.128-30.594-.662-.43-1.331-.846-2.023-1.253a67,67,0,0,0-15.537-6.574c-.226-.066-.452-.132-.685-.2-.495-.138-1-.285-1.486-.452a28.28,28.28,0,0,1-11.946-7.818,29.048,29.048,0,0,1-1.938-2.381,28.645,28.645,0,0,1-4.4-9.087h0c-.1-.366-.2-.721-.285-1.085v-.009a1.4,1.4,0,0,0-2.722,0,28.512,28.512,0,0,1-9.89,15.634,29.671,29.671,0,0,1-2.643,1.886,28.394,28.394,0,0,1-7.178,3.217c-.115.029-.226.066-.341.095-1.108.3-2.193.633-3.27.99a66.782,66.782,0,0,0-11.431,4.915c-.976.538-1.922,1.092-2.846,1.667a52.062,52.062,0,0,0-8.106,6.2c-.42.4-.836.8-1.243,1.216a41.78,41.78,0,0,0-3.43,3.925,32.143,32.143,0,0,0-7.056,19.7v.545c-.066-.036-.131-.079-.2-.115.066.036.131.079.2.124V2249.6a4.912,4.912,0,0,0,4.915,4.913h107.759a4.909,4.909,0,0,0,4.907-4.913v-8.374c.284.364.583.751.888,1.135h0c-.3-.384-.6-.771-.888-1.135Z" fill="none"/>
        <path id="Path_176" data-name="Path 176" d="M1847.042,2255.356c.1-.285.2-.567.3-.846-.1.279-.2.561-.3.846Z" fill="none"/>
        <path id="Path_177" data-name="Path 177" d="M1949.936,2082.286a56.933,56.933,0,0,0-10.87-8.555c-.6-.378-1.223-.735-1.85-1.092a73.09,73.09,0,0,0-15.455-6.494c-.452-.131-.9-.255-1.348-.386-.2-.052-.4-.109-.6-.174a22.439,22.439,0,0,1-10.85-7.326,22.642,22.642,0,0,1-4.44-9.014,7.344,7.344,0,0,0-3.794-4.82.114.114,0,0,1-.052-.03.026.026,0,0,1-.02-.006c-.088-.043-.183-.089-.278-.125h0c-.021-.013-.043-.02-.066-.036a.139.139,0,0,1-.043-.013c-.036-.016-.072-.03-.1-.046s-.065-.027-.094-.036l-.066-.02a.739.739,0,0,0-.138-.052c-.007-.007-.007-.007-.014-.007a1.256,1.256,0,0,0-.176-.059h0a.275.275,0,0,0-.079-.029h-.007l-.081-.021-.014-.009c-.022-.006-.052-.013-.072-.02s-.009,0-.016-.009c-.029-.007-.05-.007-.072-.013a.025.025,0,0,0-.016-.007.578.578,0,0,1-.072-.016l-.021-.007-.081-.023h-.007l-.088-.02h-.007c-.029-.007-.059-.016-.088-.022h-.036a.137.137,0,0,0-.057-.014.39.39,0,0,0-.045-.016.092.092,0,0,1-.043-.007.107.107,0,0,1-.043-.006c-.016,0-.036-.007-.052-.007s-.023-.009-.036-.009-.036-.007-.052-.007a.088.088,0,0,0-.043-.007.149.149,0,0,0-.05-.007.117.117,0,0,1-.045-.006c-.014,0-.036-.009-.043-.009a.118.118,0,0,1-.052-.007h-.043a.107.107,0,0,0-.05-.007c-.016,0-.029-.007-.045-.007a.075.075,0,0,1-.043-.009h-.052a.091.091,0,0,0-.043-.007.164.164,0,0,1-.052-.006H1898c-.02,0-.043-.007-.057-.007h-.036a.2.2,0,0,1-.065-.007h-.131c-.016,0-.03-.009-.046-.009h-.239a7.289,7.289,0,0,0-7.106,5.607,22.522,22.522,0,0,1-15.881,16.514c-11.89,3.283-22.1,8.991-29.525,16.527-.1.108-.2.212-.305.314l-.03.03c-.1.108-.2.217-.312.325a.039.039,0,0,1-.016.016c-6.69,7.047-10.578,15.2-11.365,23.8h0a3.472,3.472,0,0,0-.027.379c-.045.489-.075.975-.095,1.463h0c-.023.482-.03.968-.03,1.449V2249.6a10.829,10.829,0,0,0,10.812,10.819h107.759a10.829,10.829,0,0,0,10.812-10.819V2110.063C1962.118,2099.98,1957.91,2090.369,1949.936,2082.286Zm6.277,158.937v8.374a4.909,4.909,0,0,1-4.907,4.913H1843.547a4.912,4.912,0,0,1-4.915-4.913v-138.98c-.066-.045-.131-.088-.2-.124.066.036.131.079.2.115v-.545a32.143,32.143,0,0,1,7.056-19.7,41.78,41.78,0,0,1,3.43-3.925c.407-.416.823-.816,1.243-1.216a52.062,52.062,0,0,1,8.106-6.2c.924-.575,1.87-1.129,2.846-1.667a66.782,66.782,0,0,1,11.431-4.915c1.077-.357,2.162-.685,3.27-.99.115-.029.226-.066.341-.095a28.394,28.394,0,0,0,7.178-3.217,29.671,29.671,0,0,0,2.643-1.886,28.512,28.512,0,0,0,9.89-15.634,1.4,1.4,0,0,1,2.722,0v.009c.081.364.183.719.285,1.085h0a28.645,28.645,0,0,0,4.4,9.087,29.048,29.048,0,0,0,1.938,2.381,28.28,28.28,0,0,0,11.946,7.818c.489.167.991.314,1.486.452.233.065.459.131.685.2a67,67,0,0,1,15.537,6.574c.692.407,1.361.823,2.023,1.253,11.759,7.572,19.128,18.478,19.128,30.594v131.16Z" fill="#e08c34"/>
      </g>
      <path id="Path_178" data-name="Path 178" d="M1937.085,2079.469c-.662-.43-1.331-.846-2.023-1.253a67,67,0,0,0-15.537-6.574c-.226-.066-.452-.132-.685-.2-.495-.138-1-.285-1.486-.452a28.223,28.223,0,0,1-11.94-7.818,27.925,27.925,0,0,1-1.944-2.381,28.645,28.645,0,0,1-4.4-9.087h0c-.1-.366-.2-.721-.285-1.085v-.009a1.4,1.4,0,0,0-2.722,0,28.562,28.562,0,0,1-9.89,15.634,27.852,27.852,0,0,1-2.643,1.877,28.167,28.167,0,0,1-7.171,3.226c-.122.029-.233.066-.348.095-1.108.3-2.193.633-3.27.99a66.782,66.782,0,0,0-11.431,4.915c-.976.538-1.922,1.092-2.846,1.667a52.062,52.062,0,0,0-8.106,6.2c-.42.4-.836.8-1.243,1.209a42.771,42.771,0,0,0-3.43,3.932,32.143,32.143,0,0,0-7.056,19.7V2249.6a4.912,4.912,0,0,0,4.915,4.913h107.759a4.909,4.909,0,0,0,4.907-4.913V2110.063C1956.213,2097.947,1948.844,2087.041,1937.085,2079.469Z" fill="#1d4469"/>
      <path id="Path_179" data-name="Path 179" d="M1923.434,2112.532a.264.264,0,0,1,.518,0l.5,2.467a3.622,3.622,0,0,0,2.826,2.81l1.695.351.765.153a.271.271,0,0,1,0,.532l-.568.115-1.892.387a3.633,3.633,0,0,0-2.826,2.817l-.5,2.469a.264.264,0,0,1-.518,0l-.509-2.469a3.615,3.615,0,0,0-2.819-2.817l-2.467-.5a.272.272,0,0,1,0-.532l2.467-.5a3.6,3.6,0,0,0,2.819-2.81Zm-10.061-18.786a.505.505,0,0,1,.99,0l.588,2.87.373,1.806a6.813,6.813,0,0,0,1.522,3.1,6.838,6.838,0,0,0,3.8,2.229l4.129.843.554.111a.516.516,0,0,1,.282.837.573.573,0,0,1-.282.16l-2.958.6-1.725.35a6.822,6.822,0,0,0-5.322,5.329l-.961,4.676a.5.5,0,0,1-.99,0l-.961-4.676a6.824,6.824,0,0,0-5.324-5.329l-4.674-.954a.508.508,0,0,1,0-1l4.674-.954a6.826,6.826,0,0,0,5.324-5.329l.014-.045.648-3.159Zm-48.558,13.681a30.566,30.566,0,0,1,7.66-5.607c.8-.407,1.624-.784,2.46-1.128.262-.1.518-.2.78-.3a30.5,30.5,0,0,1,12.392-1.922c.226.016.466.029.706.043a.418.418,0,0,1,.379.386.4.4,0,0,1-.334.423,23.493,23.493,0,0,0-11.024,5.257c-.466.4-.925.823-1.37,1.259-.181.19-.364.371-.539.561a23.551,23.551,0,0,0-1.928,2.351,23.038,23.038,0,0,0-1.981,3.285,23.588,23.588,0,0,0-2.324,8.045,23.823,23.823,0,0,0,.452,7.646,23.508,23.508,0,0,0,4.762,9.756c.488.59,1.006,1.171,1.558,1.718a23.466,23.466,0,0,0,9.873,5.905c.147.043.292.086.439.123a23.351,23.351,0,0,0,2.6.569,23.472,23.472,0,0,0,16.8-3.613,23.683,23.683,0,0,0,9.1-11.487,23.594,23.594,0,0,0,1.065-3.889.406.406,0,0,1,.42-.335c.023.007.045.007.066.014a.4.4,0,0,1,.321.364c.022.24.029.481.043.714.009.174.016.342.022.509a30.544,30.544,0,0,1-1.049,9.139c-.253.924-.551,1.833-.888,2.738a30.329,30.329,0,0,1-7.041,10.906,1.445,1.445,0,0,1-.1.109c-.67.662-1.361,1.288-2.083,1.879a30.435,30.435,0,0,1-13.87,6.5c-.823.152-1.66.269-2.505.355q-1.56.153-3.152.154h0c-.975,0-1.951-.043-2.912-.131-.174-.014-.342-.03-.495-.043a6.577,6.577,0,0,1-.83-.111,29.227,29.227,0,0,1-3.211-.617,31.569,31.569,0,0,1-3.176-.97,30.977,30.977,0,0,1-17.735-17c-.153-.335-.285-.685-.416-1a7.77,7.77,0,0,1-.321-.963,30.519,30.519,0,0,1-1.42-6.385,30.875,30.875,0,0,1-.2-3.5c0-.188,0-.378.009-.575a30.4,30.4,0,0,1,4.4-15.283c.437-.728.9-1.434,1.4-2.126a31.462,31.462,0,0,1,3.19-3.728" fill="#f9b85b"/>
      <g id="Group_28" data-name="Group 28">
        <path id="Path_180" data-name="Path 180" d="M1877.024,2102.121c.328-.183.663-.357,1-.518-.037-.095-.075-.19-.118-.278a3.074,3.074,0,0,0-.43-.669c-.406.131-.8.262-1.193.409A2.144,2.144,0,0,1,1877.024,2102.121Z" fill="none"/>
        <path id="Path_181" data-name="Path 181" d="M1865.616,2109.247a2.478,2.478,0,0,1,1.551,2.178,25.627,25.627,0,0,1,1.836-2.578c.253-.321.522-.633.793-.938a4.474,4.474,0,0,0-.183-1.5,1.647,1.647,0,0,0-1.252-1,30.021,30.021,0,0,0-2.971,2.6c-.371.364-.722.741-1.063,1.121A2.581,2.581,0,0,1,1865.616,2109.247Z" fill="none"/>
        <path id="Path_182" data-name="Path 182" d="M1875.6,2102.964c.2-.131.4-.246.606-.371.108-.065.217-.131.325-.19a2.338,2.338,0,0,0-.21-.517,2.626,2.626,0,0,0-.561-.627c-.124.052-.255.1-.377.154-.213.082-.423.167-.636.262a3.708,3.708,0,0,1,.57.781A4.449,4.449,0,0,1,1875.6,2102.964Z" fill="none"/>
        <path id="Path_183" data-name="Path 183" d="M1875.132,2103.263c-.088-.161-.161-.328-.247-.48a9.825,9.825,0,0,1-.583-.911c-.246.109-.5.226-.75.351a3.438,3.438,0,0,1,.911,1.5C1874.689,2103.561,1874.906,2103.416,1875.132,2103.263Z" fill="none"/>
        <path id="Path_184" data-name="Path 184" d="M1862.389,2114.461a2.876,2.876,0,0,1,2.374,1.806c.082-.2.154-.4.233-.606a27.261,27.261,0,0,1,1.443-3.013.2.2,0,0,1,.007-.125,1.981,1.981,0,0,0-1.237-2.758,2.135,2.135,0,0,0-1.617.24c-.022.015-.052.029-.072.045-.5.6-.977,1.223-1.42,1.847-.495.692-.954,1.406-1.384,2.134-.2.351-.4.715-.6,1.079a3.649,3.649,0,0,1,1.011-.5A2.959,2.959,0,0,1,1862.389,2114.461Z" fill="none"/>
        <path id="Path_185" data-name="Path 185" d="M1873.181,2104.682c.255-.2.508-.4.771-.6l-.021-.089a3.6,3.6,0,0,0-.131-.544,3.253,3.253,0,0,0-.576-.984.259.259,0,0,1-.043-.066c-.088.037-.174.089-.263.132-.189.095-.37.19-.56.291a2.5,2.5,0,0,1,.56.706A1.912,1.912,0,0,1,1873.181,2104.682Z" fill="none"/>
        <path id="Path_186" data-name="Path 186" d="M1870.02,2105.892a2.983,2.983,0,0,1,.393,1.339c.168-.181.344-.358.525-.539q.723-.721,1.485-1.376c.154-.138.306-.27.466-.394a.315.315,0,0,1-.174-.158,3.836,3.836,0,0,0-.889-1.646,29.075,29.075,0,0,0-2.875,1.849A2.278,2.278,0,0,1,1870.02,2105.892Z" fill="none"/>
        <path id="Path_187" data-name="Path 187" d="M1880.244,2100.626c.321-.122.633-.239.954-.348a3.139,3.139,0,0,0-.154-.518c-.364.066-.728.147-1.085.227a1.525,1.525,0,0,1,.138.246A1.83,1.83,0,0,1,1880.244,2100.626Z" fill="none"/>
        <path id="Path_188" data-name="Path 188" d="M1884.881,2099.3a29.112,29.112,0,0,0-3.342.371,3.13,3.13,0,0,1,.174.43A27.074,27.074,0,0,1,1884.881,2099.3Z" fill="none"/>
        <path id="Path_189" data-name="Path 189" d="M1879.706,2100.839c-.046-.118-.066-.249-.111-.357a1.672,1.672,0,0,0-.181-.364c-.482.115-.947.239-1.413.377a2.491,2.491,0,0,1,.518.868C1878.912,2101.18,1879.3,2101.006,1879.706,2100.839Z" fill="none"/>
        <path id="Path_190" data-name="Path 190" d="M1915.193,2136.835a2.747,2.747,0,0,1-.59-.335c-.161.371-.335.735-.518,1.108a1.572,1.572,0,0,1,.409.145.786.786,0,0,1,.45.6.146.146,0,0,1-.007.059c.174-.538.335-1.085.482-1.63A.248.248,0,0,1,1915.193,2136.835Z" fill="none"/>
        <path id="Path_191" data-name="Path 191" d="M1914.58,2138.569c-.16-.066-.276-.256-.4-.364a1.164,1.164,0,0,0-.3-.183c-.168.328-.342.642-.518.961a1.926,1.926,0,0,1,.445.248c.2.145.489.358.532.611.036.2-.118.423-.342.343s-.373-.284-.547-.438c-.115-.093-.24-.2-.371-.283-.174.3-.364.6-.56.9a2.063,2.063,0,0,1,1.223,1.138,29.586,29.586,0,0,0,1.18-3.046A.251.251,0,0,1,1914.58,2138.569Z" fill="none"/>
        <path id="Path_192" data-name="Path 192" d="M1915.164,2135.11c-.1.276-.2.547-.322.816a1.047,1.047,0,0,1,.656.567c.095-.377.181-.764.262-1.144h-.022A1.683,1.683,0,0,1,1915.164,2135.11Z" fill="none"/>
        <path id="Path_193" data-name="Path 193" d="M1915.381,2134.513a1.3,1.3,0,0,0,.153.059,1.175,1.175,0,0,1,.335.255.031.031,0,0,0,.007-.022,29.724,29.724,0,0,0,.495-4.02,26.369,26.369,0,0,1-.654,2.688C1915.607,2133.821,1915.5,2134.171,1915.381,2134.513Z" fill="none"/>
        <path id="Path_194" data-name="Path 194" d="M1863.563,2143.8c-.095-1.2-.154-2.394-.161-3.611-.006-.117-.006-.232-.013-.35a9.182,9.182,0,0,0-.547-3.057,11.135,11.135,0,0,0-1.079-2.082c-.108-.17-.224-.328-.341-.5-1.217-1.7-2.709-3.184-3.794-4.988a10.707,10.707,0,0,1-.931-2.025c-.043.648-.066,1.3-.066,1.951,0,.124.007.242.007.364a28.926,28.926,0,0,0,.328,4.121c.124.83.284,1.653.474,2.462a1.957,1.957,0,0,1,.9-1.1,1.764,1.764,0,0,1,.945-.167c1.544.111,2.338,1.427,2.81,2.767a8.447,8.447,0,0,1,.38,1.361,3.822,3.822,0,0,1,.036.905,1.521,1.521,0,0,1-1.558,1.381,2.618,2.618,0,0,1-2.148-3.181.478.478,0,0,1,.866-.115,4.293,4.293,0,0,0,.853,1.433.775.775,0,0,0,.262.154c.014,0,.036.007.043.007,0-.073.007-.256.007-.328a5.178,5.178,0,0,0-.538-2.331,3.215,3.215,0,0,0-.67-.886.888.888,0,0,0-.54-.263.827.827,0,0,0-.843.663,4.211,4.211,0,0,0-.016,1.879,12.121,12.121,0,0,0,.524,1.863c.19.517.5,1.049.633,1.58a30.032,30.032,0,0,0,5.033,7.558,11.835,11.835,0,0,1-.54-2.229C1863.723,2145.967,1863.658,2144.881,1863.563,2143.8Z" fill="none"/>
        <path id="Path_195" data-name="Path 195" d="M1912.767,2141.241a2.765,2.765,0,0,0-.552-.409c-.2.292-.409.59-.626.875a3.469,3.469,0,0,1,.683.626,1.722,1.722,0,0,1,.481.939.267.267,0,0,1-.452.19,3.627,3.627,0,0,1-.508-.758,5.194,5.194,0,0,0-.5-.6c-.233.306-.482.611-.728.909a2.081,2.081,0,0,1,.813.511c.285.29.649.749.511,1.187a.19.19,0,0,1-.321.086c-.269-.226-.364-.6-.619-.859a2.054,2.054,0,0,0-.764-.488c-.387.438-.794.868-1.208,1.288-.314.315-.635.62-.954.912l.269.2c.152.118.312.226.466.35a3.6,3.6,0,0,1,.778.749,2.041,2.041,0,0,1,.357.845,30.03,30.03,0,0,0,3.649-5.846.275.275,0,0,1-.2-.073C1913.124,2141.678,1912.973,2141.438,1912.767,2141.241Z" fill="none"/>
        <path id="Path_196" data-name="Path 196" d="M1908.464,2146.81a6.238,6.238,0,0,1-.947-.721c-.2.176-.407.35-.61.517-.67.539-1.361,1.05-2.069,1.515a2.645,2.645,0,0,1,1.377,3.007.123.123,0,0,1-.24-.036,2.937,2.937,0,0,0-1.187-2.344,2.856,2.856,0,0,0-.466-.285,26.784,26.784,0,0,1-3.705,1.951,2.827,2.827,0,0,1,1.833,1.944,3.956,3.956,0,0,1,.118,2.024,31.172,31.172,0,0,0,3.188-2.343c.043-.038.088-.074.131-.117.007-.073.023-.138.036-.21a.479.479,0,0,1,.19-.38.255.255,0,0,1,.3.043.191.191,0,0,1,.036.052c.417-.371.817-.751,1.21-1.144.05-.057.109-.109.167-.168.466-.472.909-.96,1.348-1.462,0-.014,0-.03.007-.037A1.641,1.641,0,0,0,1908.464,2146.81Z" fill="none"/>
        <path id="Path_197" data-name="Path 197" d="M1860.775,2139.523c-.074-.023-.045-.016,0,0Z" fill="none"/>
        <path id="Path_198" data-name="Path 198" d="M1891.675,2157.726c-.357-.1-.7-.22-1.042-.344-.581-.217-1.165-.459-1.739-.692-.38-.145-.757-.3-1.128-.45-.941-.364-1.822-.845-2.738-1.259a9.421,9.421,0,0,0-5.942-.416c-.56.108-1.121.246-1.682.371a22.925,22.925,0,0,1-2.607.481,10.922,10.922,0,0,1-1.282.073,8.141,8.141,0,0,1-1.4-.145,28.058,28.058,0,0,0,3.362,1.587,29.121,29.121,0,0,0,3.227,1.076c.35.095.7.183,1.049.262a1.507,1.507,0,0,1-.315-1.652c.561-1.312,1.974-1.551,3.256-1.42,1.158.124,3.509.6,2.745,2.308a1.938,1.938,0,0,1-1.61,1.043,2.176,2.176,0,0,1-1.87-.505.432.432,0,0,1,.306-.728c.3,0,.61.009.918-.006a1.243,1.243,0,0,0,.646-.154c.082-.057.088-.109.138-.158a2.657,2.657,0,0,0-.588-.272,4.192,4.192,0,0,0-1.662-.319,2,2,0,0,0-1.447.394c-.868,1,1.375,1.754,2.008,1.9l.5.109a30.586,30.586,0,0,0,3.749.226c.977,0,1.951-.043,2.912-.138.839-.079,1.668-.2,2.482-.342.7-.124,1.391-.278,2.069-.452-.043,0-.088-.007-.131-.007A9.652,9.652,0,0,1,1891.675,2157.726Z" fill="none"/>
        <path id="Path_199" data-name="Path 199" d="M1901.279,2151.571a5.467,5.467,0,0,0-.99-.712.273.273,0,0,1-.111-.255q-1.047.427-2.118.764l-.023-.007.023.007a26.878,26.878,0,0,1-7.5,1.239c-.8.02-1.609,0-2.417-.052a26.86,26.86,0,0,1-7.877-1.748h-.015v-.007a26.755,26.755,0,0,1-3.837-1.833,27.316,27.316,0,0,1-4.129-2.971c-.459-.4-.911-.823-1.347-1.262a26.972,26.972,0,0,1-3.568-4.4,31.823,31.823,0,0,0,.948,4.777,9.379,9.379,0,0,0,1.878,3.473,5.469,5.469,0,0,0,1.493,1.246.255.255,0,0,0,.088.05c.429.226,1.354.642,1.6.036.175-.421-.4-1.208-.676-1.506a3.294,3.294,0,0,0-1.508-.852.576.576,0,0,0,.05.37,2.972,2.972,0,0,0,.7.787c.21.21-.016.495-.271.459a1.077,1.077,0,0,1-.48-.19,1.954,1.954,0,0,1-.612-.721c-.086-.174-.181-.348-.254-.531a1.551,1.551,0,0,1-.124-1,.591.591,0,0,1,.715-.407,4.8,4.8,0,0,1,2.387,1.121c.079.066.167.131.247.2a3.875,3.875,0,0,1,1.456,2.525v.117a1.99,1.99,0,0,1-1.929,1.769,1.794,1.794,0,0,1-.285.009,4.792,4.792,0,0,1-2.794-1.312,8.978,8.978,0,0,1-2.673-4.39,24.379,24.379,0,0,1-.707-3.227c-.224-1.456-.378-2.932-.633-4.388-.08-.452-.168-.911-.269-1.364a27.422,27.422,0,0,1-1.427-3.6,28.562,28.562,0,0,0-2.433-4.266c-1.951-2.978-4.244-6.529-2.925-10.237a2.927,2.927,0,0,1,1.813-1.972,1.754,1.754,0,0,1,2.2,1.208,5.082,5.082,0,0,1-1,4.668.56.56,0,0,1-.669.086,2.079,2.079,0,0,1-.7-1.374,1.49,1.49,0,0,1,.254-1.334.261.261,0,0,1,.445.183,3.019,3.019,0,0,0-.029.967.661.661,0,0,0,.2.328,2.9,2.9,0,0,0,.561-1.741,2.5,2.5,0,0,0-.262-1.062.378.378,0,0,0-.532-.22c-.524.161-.786.964-.911,1.429a5.874,5.874,0,0,0-.181,2.083,10.594,10.594,0,0,0,1.368,4.352c.59,1.056,1.268,2.062,1.9,3.088a27.08,27.08,0,0,1,.538-11.1h0c.065-.255.138-.5.212-.751.122-.422.253-.843.4-1.259a2.429,2.429,0,0,0-2.36-1.754,2.754,2.754,0,0,0-.6.1,3.449,3.449,0,0,0-1.442.794,7.2,7.2,0,0,0-1.076,1.295,29.127,29.127,0,0,0-1.807,5.7.336.336,0,0,1,.125.263,7.179,7.179,0,0,0,.413,3.348,15.982,15.982,0,0,0,1.814,3.066c1.209,1.61,2.622,3.043,3.728,4.732a8.387,8.387,0,0,1,1.187,2.636c.029.109.052.226.072.341a13.38,13.38,0,0,1,.1,2.958c-.014.246-.023.495-.029.735a25.415,25.415,0,0,0,.255,5.948,14.124,14.124,0,0,0,.735,2.672,7.465,7.465,0,0,0,.692,1.3c.124.183.255.35.38.524a27.659,27.659,0,0,0,2.351,1.886.362.362,0,0,1,.459-.145,7.227,7.227,0,0,0,2.482.968,8.641,8.641,0,0,0,2.214-.007c.19-.014.371-.036.545-.066a18.557,18.557,0,0,0,2.091-.4c1.121-.269,2.234-.574,3.378-.735a9.033,9.033,0,0,1,3.007-.022,8.71,8.71,0,0,1,2.6,1.042c.931.516,1.856,1.04,2.81,1.513a17.14,17.14,0,0,0,2.437,1.013c.1.029.2.065.292.088a11.825,11.825,0,0,0,2.469.538,7.411,7.411,0,0,0,1.406.013c.45-.049.9-.167,1.346-.18a.221.221,0,0,1,.212.189,30.034,30.034,0,0,0,4.942-2.353,5.077,5.077,0,0,0,.249-1.033,3.241,3.241,0,0,0-.138-1.2A2.861,2.861,0,0,0,1901.279,2151.571Z" fill="none"/>
        <path id="Path_200" data-name="Path 200" d="M1863.622,2130.362c-.075-.131-.147-.253-.226-.378.079.125.151.247.226.378Z" fill="none"/>
        <path id="Path_201" data-name="Path 201" d="M1917.216,2128.076c-.006-.167-.006-.335-.022-.509-.014-.233-.021-.474-.043-.714a.4.4,0,0,0-.321-.364c-.021-.007-.043-.007-.066-.014a.406.406,0,0,0-.42.335,23.674,23.674,0,0,1-10.159,15.376,24.447,24.447,0,0,1-2.351,1.37,23.52,23.52,0,0,1-7.42,2.322h0a23.731,23.731,0,0,1-7.034-.079,23.351,23.351,0,0,1-2.6-.569c-.147-.037-.292-.08-.439-.123a23.466,23.466,0,0,1-9.873-5.905c-.552-.547-1.07-1.128-1.558-1.718a23.508,23.508,0,0,1-4.762-9.756h0a23.823,23.823,0,0,1-.452-7.646,23.588,23.588,0,0,1,2.324-8.045,23.038,23.038,0,0,1,1.981-3.285,23.551,23.551,0,0,1,1.928-2.351c.175-.19.358-.371.539-.561.445-.436.9-.859,1.37-1.259a23.493,23.493,0,0,1,11.024-5.257.4.4,0,0,0,.334-.423.418.418,0,0,0-.379-.386c-.24-.014-.48-.027-.706-.043a30.5,30.5,0,0,0-12.392,1.922c-.262.094-.518.2-.78.3-.836.344-1.659.721-2.46,1.128a30.566,30.566,0,0,0-7.66,5.607,31.462,31.462,0,0,0-3.19,3.728c-.5.692-.967,1.4-1.4,2.126a30.469,30.469,0,0,0-4.4,15.283c-.009.2-.009.387-.009.575a30.875,30.875,0,0,0,.2,3.5,30.519,30.519,0,0,0,1.42,6.385,7.77,7.77,0,0,0,.321.963c.131.312.263.662.416,1a30.977,30.977,0,0,0,17.735,17,32.133,32.133,0,0,0,3.167.97,29.8,29.8,0,0,0,3.22.617,6.577,6.577,0,0,0,.83.111c.153.013.321.029.495.043.961.088,1.937.131,2.912.131h0q1.594,0,3.152-.154c.845-.086,1.682-.2,2.505-.355a30.435,30.435,0,0,0,13.87-6.5c.722-.591,1.413-1.217,2.083-1.879a1.445,1.445,0,0,0,.1-.109,30.329,30.329,0,0,0,7.041-10.906c.337-.9.635-1.814.888-2.738A30.544,30.544,0,0,0,1917.216,2128.076Zm-32.335-28.775a27.074,27.074,0,0,0-3.168.8,3.13,3.13,0,0,0-.174-.43A29.112,29.112,0,0,1,1884.881,2099.3Zm-3.837.459a3.139,3.139,0,0,1,.154.518c-.321.109-.633.226-.954.348a1.83,1.83,0,0,0-.147-.393,1.525,1.525,0,0,0-.138-.246C1880.316,2099.907,1880.68,2099.826,1881.044,2099.76Zm-1.63.358a1.672,1.672,0,0,1,.181.364c.045.108.065.239.111.357-.4.167-.794.341-1.187.524a2.491,2.491,0,0,0-.518-.868C1878.467,2100.357,1878.932,2100.233,1879.414,2100.118Zm-1.938.538a3.074,3.074,0,0,1,.43.669c.043.088.081.183.118.278-.337.161-.672.335-1,.518a2.144,2.144,0,0,0-.741-1.056C1876.676,2100.918,1877.07,2100.787,1877.476,2100.656Zm-2.095.757c.122-.05.253-.1.377-.154a2.626,2.626,0,0,1,.561.627,2.338,2.338,0,0,1,.21.517c-.108.059-.217.125-.325.19-.206.125-.41.24-.606.371a4.449,4.449,0,0,0-.283-.508,3.708,3.708,0,0,0-.57-.781C1874.958,2101.58,1875.168,2101.5,1875.381,2101.413Zm-1.079.459a9.825,9.825,0,0,0,.583.911c.086.152.159.319.247.48-.226.153-.443.3-.669.459a3.438,3.438,0,0,0-.911-1.5C1873.8,2102.1,1874.056,2101.981,1874.3,2101.872Zm-1.384.663c.089-.043.175-.095.263-.132a.259.259,0,0,0,.043.066,3.253,3.253,0,0,1,.576.984,3.6,3.6,0,0,1,.131.544l.021.089c-.263.2-.516.4-.771.6a1.912,1.912,0,0,0-.263-1.15,2.5,2.5,0,0,0-.56-.706C1872.548,2102.725,1872.729,2102.63,1872.918,2102.535Zm-1.092.583a3.836,3.836,0,0,1,.889,1.646.315.315,0,0,0,.174.158c-.16.124-.312.256-.466.394q-.762.654-1.485,1.376c-.181.181-.357.358-.525.539a2.983,2.983,0,0,0-.393-1.339,2.278,2.278,0,0,0-1.069-.925A29.075,29.075,0,0,1,1871.826,2103.118ZM1865.39,2108a30.021,30.021,0,0,1,2.971-2.6,1.647,1.647,0,0,1,1.252,1,4.474,4.474,0,0,1,.183,1.5c-.271.305-.54.617-.793.938a25.627,25.627,0,0,0-1.836,2.578,2.478,2.478,0,0,0-1.551-2.178,2.581,2.581,0,0,0-1.289-.122C1864.668,2108.745,1865.019,2108.368,1865.39,2108Zm-4.674,6.027c.43-.728.889-1.442,1.384-2.134.443-.624.916-1.25,1.42-1.847.02-.016.05-.03.072-.045a2.135,2.135,0,0,1,1.617-.24,1.981,1.981,0,0,1,1.237,2.758.2.2,0,0,0-.007.125,27.261,27.261,0,0,0-1.443,3.013c-.079.206-.151.4-.233.606a2.876,2.876,0,0,0-2.374-1.806,2.959,2.959,0,0,0-1.259.145,3.649,3.649,0,0,0-1.011.5C1860.316,2114.746,1860.513,2114.382,1860.716,2114.031Zm-1.334,27.676c-.137-.531-.443-1.063-.633-1.58a12.121,12.121,0,0,1-.524-1.863,4.211,4.211,0,0,1,.016-1.879.827.827,0,0,1,.843-.663.888.888,0,0,1,.54.263,3.215,3.215,0,0,1,.67.886,5.178,5.178,0,0,1,.538,2.331c0,.072-.007.255-.007.328-.007,0-.029-.007-.043-.007a.775.775,0,0,1-.262-.154,4.293,4.293,0,0,1-.853-1.433.478.478,0,0,0-.866.115,2.618,2.618,0,0,0,2.148,3.181,1.521,1.521,0,0,0,1.558-1.381,3.822,3.822,0,0,0-.036-.905,8.447,8.447,0,0,0-.38-1.361c-.472-1.34-1.266-2.656-2.81-2.767a1.764,1.764,0,0,0-.945.167,1.957,1.957,0,0,0-.9,1.1c-.19-.809-.35-1.632-.474-2.462a28.926,28.926,0,0,1-.328-4.121c0-.122-.007-.24-.007-.364,0-.647.023-1.3.066-1.951a10.707,10.707,0,0,0,.931,2.025c1.085,1.8,2.577,3.29,3.794,4.988.117.167.233.325.341.5a11.135,11.135,0,0,1,1.079,2.082,9.182,9.182,0,0,1,.547,3.057c.007.118.007.233.013.35.007,1.217.066,2.411.161,3.611.095,1.085.16,2.171.312,3.24a11.835,11.835,0,0,0,.54,2.229A30.032,30.032,0,0,1,1859.382,2141.707Zm1.393-2.184c-.045-.016-.074-.023,0,0Zm31.146,19.032c-.814.145-1.643.263-2.482.342-.961.095-1.935.138-2.912.138a30.586,30.586,0,0,1-3.749-.226l-.5-.109c-.633-.145-2.876-.9-2.008-1.9a2,2,0,0,1,1.447-.394,4.192,4.192,0,0,1,1.662.319,2.657,2.657,0,0,1,.588.272c-.05.049-.056.1-.138.158a1.243,1.243,0,0,1-.646.154c-.308.015-.62.006-.918.006a.432.432,0,0,0-.306.728,2.176,2.176,0,0,0,1.87.505,1.938,1.938,0,0,0,1.61-1.043c.764-1.7-1.587-2.184-2.745-2.308-1.282-.131-2.695.108-3.256,1.42a1.507,1.507,0,0,0,.315,1.652c-.351-.079-.7-.167-1.049-.262a29.121,29.121,0,0,1-3.227-1.076,28.058,28.058,0,0,1-3.362-1.587,8.141,8.141,0,0,0,1.4.145,10.922,10.922,0,0,0,1.282-.073,22.925,22.925,0,0,0,2.607-.481c.561-.125,1.122-.263,1.682-.371a9.421,9.421,0,0,1,5.942.416c.916.414,1.8.9,2.738,1.259.371.152.748.3,1.128.45.574.233,1.158.475,1.739.692.343.124.685.242,1.042.344a9.652,9.652,0,0,0,2.184.37c.043,0,.088.007.131.007C1893.312,2158.277,1892.622,2158.431,1891.921,2158.555Zm9.844-3.678a30.034,30.034,0,0,1-4.942,2.353.221.221,0,0,0-.212-.189c-.45.013-.9.131-1.346.18a7.411,7.411,0,0,1-1.406-.013,11.825,11.825,0,0,1-2.469-.538c-.095-.023-.188-.059-.292-.088a17.14,17.14,0,0,1-2.437-1.013c-.954-.473-1.879-1-2.81-1.513a8.71,8.71,0,0,0-2.6-1.042,9.033,9.033,0,0,0-3.007.022c-1.144.161-2.257.466-3.378.735a18.557,18.557,0,0,1-2.091.4c-.174.03-.355.052-.545.066a8.641,8.641,0,0,1-2.214.007,7.227,7.227,0,0,1-2.482-.968.362.362,0,0,0-.459.145,27.659,27.659,0,0,1-2.351-1.886c-.125-.174-.256-.341-.38-.524a7.465,7.465,0,0,1-.692-1.3,14.124,14.124,0,0,1-.735-2.672,25.415,25.415,0,0,1-.255-5.948c.006-.24.015-.489.029-.735a13.38,13.38,0,0,0-.1-2.958c-.02-.115-.043-.232-.072-.341a8.387,8.387,0,0,0-1.187-2.636c-1.106-1.689-2.519-3.122-3.728-4.732a15.982,15.982,0,0,1-1.814-3.066,7.179,7.179,0,0,1-.413-3.348.336.336,0,0,0-.125-.263,29.127,29.127,0,0,1,1.807-5.7,7.2,7.2,0,0,1,1.076-1.295,3.449,3.449,0,0,1,1.442-.794,2.754,2.754,0,0,1,.6-.1,2.429,2.429,0,0,1,2.36,1.754c-.147.416-.278.837-.4,1.259-.074.249-.147.5-.212.751h0a27.08,27.08,0,0,0-.538,11.1c.079.125.151.247.226.378h0c-.075-.131-.147-.253-.226-.378-.634-1.026-1.312-2.032-1.9-3.088a10.594,10.594,0,0,1-1.368-4.352,5.874,5.874,0,0,1,.181-2.083c.125-.465.387-1.268.911-1.429a.378.378,0,0,1,.532.22,2.5,2.5,0,0,1,.262,1.062,2.9,2.9,0,0,1-.561,1.741.661.661,0,0,1-.2-.328,3.019,3.019,0,0,1,.029-.967.261.261,0,0,0-.445-.183,1.49,1.49,0,0,0-.254,1.334,2.079,2.079,0,0,0,.7,1.374.56.56,0,0,0,.669-.086,5.082,5.082,0,0,0,1-4.668,1.754,1.754,0,0,0-2.2-1.208,2.927,2.927,0,0,0-1.813,1.972c-1.319,3.708.974,7.259,2.925,10.237a28.562,28.562,0,0,1,2.433,4.266,27.422,27.422,0,0,0,1.427,3.6c.1.453.189.912.269,1.364.255,1.456.409,2.932.633,4.388a24.379,24.379,0,0,0,.707,3.227,8.978,8.978,0,0,0,2.673,4.39,4.792,4.792,0,0,0,2.794,1.312,1.794,1.794,0,0,0,.285-.009,1.99,1.99,0,0,0,1.929-1.769v-.117a3.875,3.875,0,0,0-1.456-2.525c-.08-.073-.168-.138-.247-.2a4.8,4.8,0,0,0-2.387-1.121.591.591,0,0,0-.715.407,1.551,1.551,0,0,0,.124,1c.073.183.168.357.254.531a1.954,1.954,0,0,0,.612.721,1.077,1.077,0,0,0,.48.19c.255.036.481-.249.271-.459a2.972,2.972,0,0,1-.7-.787.576.576,0,0,1-.05-.37,3.294,3.294,0,0,1,1.508.852c.276.3.851,1.085.676,1.506-.246.606-1.171.19-1.6-.036a.255.255,0,0,1-.088-.05,5.469,5.469,0,0,1-1.493-1.246,9.379,9.379,0,0,1-1.878-3.473,31.823,31.823,0,0,1-.948-4.777,26.972,26.972,0,0,0,3.568,4.4c.436.439.888.86,1.347,1.262a27.316,27.316,0,0,0,4.129,2.971,26.755,26.755,0,0,0,3.837,1.833v.007h.015a26.86,26.86,0,0,0,7.877,1.748c.808.052,1.617.072,2.417.052a26.878,26.878,0,0,0,7.5-1.239l-.023-.007.023.007q1.071-.339,2.118-.764a.273.273,0,0,0,.111.255,5.467,5.467,0,0,1,.99.712,2.861,2.861,0,0,1,.6,1.072,3.241,3.241,0,0,1,.138,1.2A5.077,5.077,0,0,1,1901.765,2154.877Zm7.421-6.261c-.007.007-.007.023-.007.037-.439.5-.882.99-1.348,1.462-.058.059-.117.111-.167.168-.393.393-.793.773-1.21,1.144a.191.191,0,0,0-.036-.052.255.255,0,0,0-.3-.043.479.479,0,0,0-.19.38c-.013.072-.029.137-.036.21-.043.043-.088.079-.131.117a31.172,31.172,0,0,1-3.188,2.343,3.956,3.956,0,0,0-.118-2.024,2.827,2.827,0,0,0-1.833-1.944,26.784,26.784,0,0,0,3.705-1.951,2.856,2.856,0,0,1,.466.285,2.937,2.937,0,0,1,1.187,2.344.123.123,0,0,0,.24.036,2.645,2.645,0,0,0-1.377-3.007c.708-.465,1.4-.976,2.069-1.515.2-.167.407-.341.61-.517a6.238,6.238,0,0,0,.947.721A1.641,1.641,0,0,1,1909.186,2148.616Zm.7-.823a2.041,2.041,0,0,0-.357-.845,3.6,3.6,0,0,0-.778-.749c-.154-.124-.314-.232-.466-.35l-.269-.2c.319-.292.64-.6.954-.912.414-.42.821-.85,1.208-1.288a2.054,2.054,0,0,1,.764.488c.255.256.35.633.619.859a.19.19,0,0,0,.321-.086c.138-.438-.226-.9-.511-1.187a2.081,2.081,0,0,0-.813-.511c.246-.3.495-.6.728-.909a5.194,5.194,0,0,1,.5.6,3.627,3.627,0,0,0,.508.758.267.267,0,0,0,.452-.19,1.722,1.722,0,0,0-.481-.939,3.469,3.469,0,0,0-.683-.626c.217-.285.421-.583.626-.875a2.765,2.765,0,0,1,.552.409c.206.2.357.437.57.633a.275.275,0,0,0,.2.073A30.03,30.03,0,0,1,1909.891,2147.793Zm3.853-6.289a2.063,2.063,0,0,0-1.223-1.138c.2-.3.386-.6.56-.9.131.088.256.19.371.283.174.154.321.366.547.438s.378-.146.342-.343c-.043-.253-.335-.466-.532-.611a1.926,1.926,0,0,0-.445-.248c.176-.319.35-.633.518-.961a1.164,1.164,0,0,1,.3.183c.124.108.24.3.4.364a.251.251,0,0,0,.344-.111A29.586,29.586,0,0,1,1913.744,2141.5Zm1.193-3.089a.146.146,0,0,0,.007-.059.786.786,0,0,0-.45-.6,1.572,1.572,0,0,0-.409-.145c.183-.373.357-.737.518-1.108a2.747,2.747,0,0,0,.59.335.248.248,0,0,0,.226-.05C1915.272,2137.33,1915.111,2137.877,1914.937,2138.415Zm.561-1.922a1.047,1.047,0,0,0-.656-.567c.118-.269.22-.54.322-.816a1.683,1.683,0,0,0,.574.239h.022C1915.679,2135.729,1915.593,2136.116,1915.5,2136.493Zm.378-1.688a.031.031,0,0,1-.007.022,1.175,1.175,0,0,0-.335-.255,1.3,1.3,0,0,1-.153-.059c.117-.342.226-.692.336-1.04a26.369,26.369,0,0,0,.654-2.688A29.724,29.724,0,0,1,1915.876,2134.8Z" fill="#e08c34"/>
      </g>
      <path id="Path_202" data-name="Path 202" d="M1836.418,2109.48c.2.082.4.167.6.262.459.213.911.446,1.341.7.1.059.19.118.276.167v-.545a32.143,32.143,0,0,1,7.056-19.7,41.78,41.78,0,0,1,3.43-3.925c.407-.416.823-.816,1.243-1.216a52.062,52.062,0,0,1,8.106-6.2c.924-.575,1.87-1.129,2.846-1.667a66.782,66.782,0,0,1,11.431-4.915c1.077-.357,2.162-.685,3.27-.99.115-.029.226-.066.341-.095a28.394,28.394,0,0,0,7.178-3.217,29.671,29.671,0,0,0,2.643-1.886,28.512,28.512,0,0,0,9.89-15.634,1.4,1.4,0,0,1,2.722,0v.009c.081.364.183.719.285,1.085a6.911,6.911,0,0,1,.443-2.527,6.133,6.133,0,0,1,.7-1.276,11.566,11.566,0,0,1,2.331-2.168,7.325,7.325,0,0,0-1.813-1.311.114.114,0,0,1-.052-.03.026.026,0,0,1-.02-.006c-.088-.043-.183-.089-.278-.125h0c-.021-.013-.043-.02-.066-.036a.139.139,0,0,1-.043-.013c-.036-.016-.072-.03-.1-.046s-.065-.027-.094-.036l-.066-.02a.739.739,0,0,0-.138-.052c-.007-.007-.007-.007-.014-.007a1.256,1.256,0,0,0-.176-.059h0a.275.275,0,0,0-.079-.029h-.007l-.081-.021-.014-.009c-.022-.006-.052-.013-.072-.02s-.009,0-.016-.009c-.029-.007-.05-.007-.072-.013a.025.025,0,0,0-.016-.007.578.578,0,0,1-.072-.016l-.021-.007-.081-.023h-.007l-.088-.02h-.007c-.029-.007-.059-.016-.088-.022h-.036a.137.137,0,0,0-.057-.014.39.39,0,0,0-.045-.016.092.092,0,0,1-.043-.007.107.107,0,0,1-.043-.006c-.016,0-.036-.007-.052-.007s-.023-.009-.036-.009-.036-.007-.052-.007a.088.088,0,0,0-.043-.007.149.149,0,0,0-.05-.007.117.117,0,0,1-.045-.006c-.014,0-.036-.009-.043-.009a.118.118,0,0,1-.052-.007h-.043a.107.107,0,0,0-.05-.007c-.016,0-.029-.007-.045-.007a.075.075,0,0,1-.043-.009h-.052a.091.091,0,0,0-.043-.007.164.164,0,0,1-.052-.006H1898c-.02,0-.043-.007-.057-.007h-.036a.2.2,0,0,1-.065-.007h-.131c-.016,0-.03-.009-.046-.009h-.239a7.289,7.289,0,0,0-7.106,5.607,22.522,22.522,0,0,1-15.881,16.514c-11.89,3.283-22.1,8.991-29.525,16.527-.1.108-.2.212-.305.314l-.03.03c-.1.108-.2.217-.312.325a.039.039,0,0,1-.016.016c-6.69,7.047-10.578,15.2-11.365,23.8h0a3.472,3.472,0,0,0-.027.379c-.045.489-.075.975-.095,1.47a11.973,11.973,0,0,1,3.653.859" fill="#c7761d"/>
      <path id="Path_203" data-name="Path 203" d="M1951.306,2260.416a10.829,10.829,0,0,0,10.812-10.819v-.845c-1.273-1.653-2.519-3.233-3.683-4.7-.787-.99-1.531-1.937-2.222-2.826v8.374a4.909,4.909,0,0,1-4.907,4.913H1847.341c-.482,1.276-.918,2.564-1.289,3.867-.2.678-.386,1.354-.554,2.039Z" fill="#f09c44"/>
      <path id="Path_204" data-name="Path 204" d="M1832.887,2106.772c.787-8.6,4.675-16.754,11.365-23.8a.039.039,0,0,0,.016-.016c.109-.108.211-.217.312-.325l.03-.03c.1-.1.2-.206.305-.314,7.427-7.536,17.635-13.244,29.525-16.527a22.522,22.522,0,0,0,15.881-16.514,7.289,7.289,0,0,1,7.106-5.607h.239c.016,0,.03.009.046.009h.131a.2.2,0,0,0,.065.007h.036a.145.145,0,0,0,.057.007h.036a.164.164,0,0,0,.052.006.091.091,0,0,1,.043.007h.052a.075.075,0,0,0,.043.009c.016,0,.029.007.045.007a.107.107,0,0,1,.05.007h.043a.118.118,0,0,0,.052.007c.007.009.029.009.043.009s.029.006.045.006a.149.149,0,0,1,.05.007.088.088,0,0,1,.043.007c.016,0,.038.007.052.007s.022.009.036.009.036.007.052.007a.107.107,0,0,0,.043.006.092.092,0,0,0,.043.007.39.39,0,0,1,.045.016c.021,0,.043.007.057.007a.069.069,0,0,0,.036.007c.029.006.059.015.088.022h0l.095.02h.007l.081.023.021.007a.578.578,0,0,0,.072.016.025.025,0,0,1,.016.007.316.316,0,0,1,.072.013c.007.009.007.009.016.009l.072.02.014.009.081.021h.007a.275.275,0,0,1,.079.029h0a1.256,1.256,0,0,1,.176.059h.014c.052.023.095.036.138.059l.066.02c.029.009.058.023.094.036s.066.03.1.046a.139.139,0,0,0,.043.013c.023.016.045.023.066.036h0c.606-2.082,1.173-4.178,1.675-6.267a13.759,13.759,0,0,0-17.99,9.749,16.071,16.071,0,0,1-11.345,11.8c-12.967,3.581-24.174,9.88-32.392,18.225-7.3,7.411-11.877,16-13.428,25.148a24.8,24.8,0,0,1,5.985,3.851h0" fill="#fccf8c"/>
      <path id="Path_205" data-name="Path 205" d="M1962.118,2249.6a10.829,10.829,0,0,1-10.812,10.819h-29.538c-1.689,1.958-3.735,3.751-5.564,5.555-.283.285-.561.577-.837.882h35.939a17.267,17.267,0,0,0,17.249-17.256v-51.1a37.251,37.251,0,0,1-6.437-3.409Z" fill="#fccf8c"/>
      <path id="Path_206" data-name="Path 206" d="M1832.735,2125.732q-2.434-3.07-4.937-6.08c-.45-.531-.955-1.164-1.5-1.87v39.439q3.3,2.721,6.436,5.644Z" fill="#fccf8c"/>
      <path id="Path_207" data-name="Path 207" d="M1876.027,2260.416c-.049,2.155-.174,4.3-.357,6.437h21.691a58.4,58.4,0,0,0,1.9-6.437Z" fill="#fccf8c"/>
      <path id="Path_208" data-name="Path 208" d="M1863.4,2129.984c.151.247.305.5.452.751,1.053-.176,1.84.8,2.643,1.433a58.775,58.775,0,0,0,7.47,4.778c.013.006.036.02.056.029.292.174.59.341.889.509a23.508,23.508,0,0,1-4.762-9.756,2.655,2.655,0,0,1-.386.181,1.925,1.925,0,0,1-.945.081,4.161,4.161,0,0,1-2.492-2.112,16.008,16.008,0,0,1-2.387-7,27.08,27.08,0,0,0-.538,11.1" fill="#f09c44"/>
      <path id="Path_209" data-name="Path 209" d="M1889.38,2145.8a23.351,23.351,0,0,1-2.6-.569c-.147-.037-.292-.08-.439-.123.19.188.373.385.547.582,0,.009.007.009.007.009.249.282.488.574.721.879a2.176,2.176,0,0,1,.561,1.361,1.532,1.532,0,0,1-.613,1.029,3.734,3.734,0,0,1-.712.443c-2.666,1.253-5.8.807-8.644.059-.6-.154-1.193-.328-1.79-.5a26.928,26.928,0,0,0,11.729,3.588c.808.052,1.617.072,2.417.052a26.878,26.878,0,0,0,7.5-1.239l-.059-.036a6.635,6.635,0,0,1-2.372-1.755,2.317,2.317,0,0,1-.169-2.76,3.324,3.324,0,0,1,.452-.45c.174-.168.357-.321.5-.489a23.731,23.731,0,0,1-7.034-.079" fill="#f09c44"/>
      <path id="Path_210" data-name="Path 210" d="M1862.848,2113.618a1.316,1.316,0,0,0,.708.318,1.171,1.171,0,0,0,1.063-.393,1.207,1.207,0,0,0-.233-1.754c-.409-.247-1.456-.218-1.492.393a.623.623,0,0,0-.335.4,1.091,1.091,0,0,0,.289,1.036m.308-1.144a.245.245,0,0,0,.056-.059c.249-.079.459-.256.744-.161a.583.583,0,0,1,.312.83.669.669,0,0,1-.924.262c-.292-.144-.532-.633-.188-.872" fill="#e08c34"/>
      <path id="Path_211" data-name="Path 211" d="M1867.954,2108.63a.893.893,0,0,0,.459-1.2c-.184-.371-.846-.787-1.2-.393a.273.273,0,0,0-.043.285.419.419,0,0,0-.263.217.768.768,0,0,0-.042.606.8.8,0,0,0,1.092.488m-.561-.859c.065-.009.131-.023.19-.03a.18.18,0,0,0,.144-.131.23.23,0,0,1,.08.378c-.2.278-.473.029-.414-.217" fill="#e08c34"/>
      <path id="Path_212" data-name="Path 212" d="M1871.157,2104.938a.094.094,0,0,0,.043.007.21.21,0,0,0,.066-.007.352.352,0,0,0,.305-.233.339.339,0,0,0-.079-.436l-.036-.03a.293.293,0,0,0-.1-.065l-.016-.009h0a.05.05,0,0,0-.029-.007h0a.051.051,0,0,0-.027-.007.029.029,0,0,0-.016-.007h-.1a.033.033,0,0,0-.023.007.215.215,0,0,0-.056.014h0c-.009,0-.016,0-.016.009a.292.292,0,0,0-.1.065l-.036.03a.4.4,0,0,0,.226.669" fill="#e08c34"/>
      <path id="Path_213" data-name="Path 213" d="M1895.977,2156.67c1.355.079,2.942-.308,3.555-1.639a2.321,2.321,0,0,0,.036-2.04,1.409,1.409,0,0,0-1.646-.735.37.37,0,0,0,.19.715.759.759,0,0,1,.895.787,1.671,1.671,0,0,1-.531,1.236,3.279,3.279,0,0,1-2.731.706,1.564,1.564,0,0,1-1.181-.617.8.8,0,0,1,.2-1.131,1.784,1.784,0,0,1,1.413-.312c.174.029.62.138.669.357.066.335-.486.358-.691.4-.312.058-.247.479,0,.574a1.077,1.077,0,0,0,1.383-.735c.138-.59-.334-1-.829-1.194-1.093-.423-2.84.014-3.109,1.312-.292,1.426,1.18,2.249,2.38,2.315" fill="#e08c34"/>
      <path id="Path_214" data-name="Path 214" d="M1861.691,2124.682l-.03.009a.436.436,0,0,0-.413.423v.021c-.043.4.5.56.757.314s.086-.8-.314-.767" fill="#e08c34"/>
      <path id="Path_215" data-name="Path 215" d="M1869.278,2144.19a.426.426,0,0,0,0,.852.426.426,0,0,0,0-.852" fill="#e08c34"/>
      <path id="Path_216" data-name="Path 216" d="M1868.7,2151.151v-.03l-.045-.1a.344.344,0,0,0-.109-.118l-.1-.059a.273.273,0,0,0-.167-.036l-.117.016-.1.043a.454.454,0,0,0-.122.109.382.382,0,0,0-.075.146l-.007.03-.013.131.013.115.043.109a.458.458,0,0,0,.38.219.45.45,0,0,0,.378-.219l.022-.057a.417.417,0,0,0,.037-.167Z" fill="#e08c34"/>
      <path id="Path_217" data-name="Path 217" d="M1861.829,2142.9a.394.394,0,0,0,0,.787.394.394,0,0,0,0-.787" fill="#e08c34"/>
      <path id="Path_218" data-name="Path 218" d="M1858.8,2132.483a.42.42,0,0,0-.1-.17l-.073-.057a.345.345,0,0,0-.187-.052.3.3,0,0,0-.147.03l-.125.079-.079.124a.333.333,0,0,0-.029.147l.016.1a.362.362,0,0,0,.092.167l.075.059a.488.488,0,0,0,.2.05.272.272,0,0,0,.144-.036l.116-.073.081-.124a.254.254,0,0,0,.036-.145Z" fill="#e08c34"/>
      <path id="Path_219" data-name="Path 219" d="M1877.746,2151.5a.214.214,0,0,0-.08-.131.283.283,0,0,0-.137-.086.258.258,0,0,0-.161-.038.424.424,0,0,0-.3.124l-.066.088a.4.4,0,0,0-.059.2l-.013.124a.327.327,0,0,0,.043.167.26.26,0,0,0,.088.138.36.36,0,0,0,.138.095.327.327,0,0,0,.167.036.444.444,0,0,0,.3-.131l.066-.088a.389.389,0,0,0,.065-.217l-.013-.124a.344.344,0,0,0-.045-.161" fill="#e08c34"/>
      <path id="Path_220" data-name="Path 220" d="M1889.783,2153.794a.425.425,0,0,0,0,.85.425.425,0,0,0,0-.85" fill="#e08c34"/>
      <path id="Path_221" data-name="Path 221" d="M1877.791,2155.824a.3.3,0,0,0-.14-.029.339.339,0,0,0,0,.678.311.311,0,0,0,.314-.242.337.337,0,0,0-.174-.407" fill="#e08c34"/>
      <path id="Path_222" data-name="Path 222" d="M1887.015,2157.513a.317.317,0,0,0,0-.633.317.317,0,0,0,0,.633" fill="#e08c34"/>
      <path id="Path_223" data-name="Path 223" d="M1904.759,2151.834a1.182,1.182,0,0,0,.328-1.644,1.081,1.081,0,0,0-1.669-.183.232.232,0,0,0,.124.334.771.771,0,0,0-.348,1.063,1.126,1.126,0,0,0,1.565.43m-.875-1.122a.2.2,0,0,0,.009-.391.8.8,0,0,1,.59.1.576.576,0,0,1,.086.807.55.55,0,0,1-.735.059c-.16-.131-.2-.538.05-.577" fill="#e08c34"/>
      <path id="Path_224" data-name="Path 224" d="M1907.517,2149.134a.922.922,0,0,0,.859-1.092.952.952,0,0,0-1.04-.685.176.176,0,0,0-.108,0,1.107,1.107,0,0,0-.154.059.957.957,0,0,0-.495,1.033.865.865,0,0,0,.938.685m-.341-1.173a.059.059,0,0,0,.029.007.164.164,0,0,0,.109-.007.4.4,0,0,1,.488.3c.029.19-.174.3-.341.314a.246.246,0,0,1-.1,0c-.285-.045-.308-.373-.183-.612" fill="#e08c34"/>
      <path id="Path_225" data-name="Path 225" d="M1910.248,2145.718a.394.394,0,0,0,0-.787.394.394,0,0,0,0,.787" fill="#e08c34"/>
      <path id="Path_226" data-name="Path 226" d="M1854.614,2162.7c3.823,3.744,4.332,8.417,5.542,13.362a32.2,32.2,0,0,0,5.43,12.137c2.709,3.472,6.424,5.788,10.012,8.234a52.5,52.5,0,0,1,8.81,7.427,3.644,3.644,0,0,1,.918-2.148,49.688,49.688,0,0,0-4.82-4.447c-3.685-2.957-7.965-5.184-11.4-8.454-3.531-3.364-5.5-7.807-6.735-12.45-1.056-3.955-1.377-8.251-3.6-11.8-2.25-3.583-5.9-5.876-9.146-8.46a34.08,34.08,0,0,1-8.722-10.1,24.9,24.9,0,0,1-2.279-5.745v5.607a34.66,34.66,0,0,0,5.817,8.227c3.082,3.24,6.984,5.49,10.165,8.6" fill="#215789"/>
      <path id="Path_227" data-name="Path 227" d="M1855.358,2151.479c2.955,2.722,6.3,4.994,9.123,7.863,3.348,3.421,4.644,7.448,5.5,12.058.721,3.915,1.4,7.919,3.669,11.284a24.441,24.441,0,0,0,7.231,6.647c6.633,4.268,15.08,6.728,19.143,13.615.64-.407,1.3-.785,1.971-1.135-2.607-4.784-7.935-8.053-12.6-10.463-3.532-1.827-7.237-3.552-10.362-6.051a17.726,17.726,0,0,1-6.217-10.549c-.88-3.968-1.224-8.083-3.021-11.782-1.682-3.45-4.529-6.093-7.441-8.51-6.387-5.3-12-10.85-16.165-18.123a58.514,58.514,0,0,1-5.49-12.858,80.542,80.542,0,0,1-2.075-11.11v11.474a77.659,77.659,0,0,0,3.2,8.729,56.46,56.46,0,0,0,13.529,18.911" fill="#215789"/>
      <path id="Path_228" data-name="Path 228" d="M1899.43,2181.906c-4.318-2.731-9.372-4.239-12.89-8.135-3.108-3.457-4.827-7.949-6.457-12.231-.334-.866-.669-1.732-1-2.591a31.569,31.569,0,0,1-3.176-.97c3.124,7.594,5.315,15.887,12.48,20.759,4.719,3.2,10.26,4.69,14.468,8.7a26.226,26.226,0,0,1,7,12.487,10.4,10.4,0,0,1,1.632.233,26.5,26.5,0,0,0-12.057-18.252" fill="#215789"/>
      <path id="Path_229" data-name="Path 229" d="M1854.054,2130.464c.633.743,1.288,1.471,1.957,2.17a30.875,30.875,0,0,1-.2-3.5c0-.188,0-.378.009-.575a36.4,36.4,0,0,1-2.266-2.918,40.7,40.7,0,0,1-6.348-14.477,39.692,39.692,0,0,1,.233-18.128,37.733,37.733,0,0,1,2.918-7.82c-.42.4-.836.8-1.243,1.216a41.78,41.78,0,0,0-3.43,3.925,43.843,43.843,0,0,0,8.366,40.1" fill="#215789"/>
      <path id="Path_230" data-name="Path 230" d="M1883.133,2136.107a31.9,31.9,0,0,1,3.643,9.123,23.351,23.351,0,0,0,2.6.569c-.188-.9-.414-1.8-.676-2.7a34.754,34.754,0,0,0-6.794-12.588c-3.493-4.136-8.031-7.077-12.218-10.434a23.992,23.992,0,0,0-.122,2.8c.4.305.8.62,1.2.925,4.718,3.588,9.247,7.156,12.362,12.3" fill="#215789"/>
      <path id="Path_231" data-name="Path 231" d="M1855.32,2099.2a33.644,33.644,0,0,0,4.777,13.893c.043.066.079.122.124.188.437-.728.9-1.434,1.4-2.126a29.669,29.669,0,0,1-2.177-4.309c-3.988-9.86-2.467-20.235,1.865-29.5-.976.538-1.922,1.092-2.846,1.667a38.55,38.55,0,0,0-3.147,20.183" fill="#215789"/>
      <path id="Path_232" data-name="Path 232" d="M1913.045,2178.207c-7.142-6.285-17.4-9.233-20.861-18.865-.823.152-1.66.269-2.505.355a19.937,19.937,0,0,0,3.081,6.145c2.853,3.758,6.894,6.313,10.855,8.752,5.118,3.161,9.9,6.394,13.158,11.592a33.136,33.136,0,0,1,4.129,10.47,12.633,12.633,0,0,1,2.518-.022,34.189,34.189,0,0,0-10.375-18.427" fill="#215789"/>
      <path id="Path_233" data-name="Path 233" d="M1869.665,2094.49a21.9,21.9,0,0,0,2.81,7.33c.8-.407,1.624-.784,2.46-1.128-5.046-8.585-3.925-20.757,1.427-29.342-.122.029-.233.066-.348.095-1.108.3-2.193.633-3.263.99a35.607,35.607,0,0,0-3.086,22.055" fill="#215789"/>
      <path id="Path_234" data-name="Path 234" d="M1875.925,2106.4a72.71,72.71,0,0,0,10.835,9.145c3.742,2.752,7.572,5.476,10.6,9.044,3.7,4.338,5.083,9.552,5.912,15.078.19,1.288.364,2.593.561,3.888a24.447,24.447,0,0,0,2.351-1.37,61.1,61.1,0,0,0-2.154-10.985,27.853,27.853,0,0,0-7.194-10.923c-5.861-5.715-13.527-9.588-19-15.7-.466.4-.925.823-1.37,1.259-.181.19-.364.371-.539.561" fill="#215789"/>
      <path id="Path_235" data-name="Path 235" d="M1927.264,2175.06A55.878,55.878,0,0,0,1917.173,2163c-3.9-3.676-7.171-7.244-9.036-12.028-.67.662-1.361,1.288-2.083,1.879a21.841,21.841,0,0,0,1.617,3.239c2.977,4.864,7.7,8.221,11.641,12.218,8.906,9.028,12.72,21.334,12.517,33.762a4.561,4.561,0,0,1,.409.5,14.047,14.047,0,0,1,1.42-.619,44.884,44.884,0,0,0-6.394-26.889" fill="#215789"/>
      <path id="Path_236" data-name="Path 236" d="M1882.493,2082.374c1.45,10.556,8.52,17.823,16.164,24.581,3.764,3.328,7.646,6.6,10.811,10.535a28.792,28.792,0,0,1,5.811,13.209,23.594,23.594,0,0,0,1.065-3.889.406.406,0,0,1,.42-.335.208.208,0,0,1,.066.014,25.048,25.048,0,0,0-1.076-3.152,35.657,35.657,0,0,0-7.749-11.047c-6.952-7.076-15.989-12.661-20.642-21.7-3.938-7.674-3.83-16.381-1.187-24.339a29.671,29.671,0,0,1-2.643,1.886,35.416,35.416,0,0,0-1.04,14.241" fill="#215789"/>
      <path id="Path_237" data-name="Path 237" d="M1916.167,2137.215a42.9,42.9,0,0,0,3.4,13.31c2.57,5.43,6.466,10.061,9.975,14.888a52.582,52.582,0,0,1,9.08,19.018,78.3,78.3,0,0,1,1.842,16.623,14.6,14.6,0,0,1,2.745.547c-.2-10.441-1.689-21.079-6.706-30.333-5.571-10.266-15.2-18.109-17.386-30.043-.8-4.368-.954-8.837-1.9-13.149a30.544,30.544,0,0,1-1.049,9.139" fill="#215789"/>
      <path id="Path_238" data-name="Path 238" d="M1948.677,2169.724c-3.807-9.539-11.3-17.271-14.285-27.158-1.79-5.928-.954-12.028-1.4-18.1a34.419,34.419,0,0,0-3.947-13.913,29.2,29.2,0,0,0-3.437-5.01.564.564,0,0,1-.291.16l-2.949.6a28.132,28.132,0,0,1,6.057,10.047c.213.606.387,1.2.547,1.807l.765.153a.271.271,0,0,1,0,.532l-.568.115c1.128,4.807.954,9.677,1.056,14.664a35.519,35.519,0,0,0,3.525,15.108c2.3,4.734,5.349,9.066,8.2,13.477a50.806,50.806,0,0,1,8.125,33.29,6.943,6.943,0,0,1,1.886-.64,49.9,49.9,0,0,0-3.285-25.135" fill="#215789"/>
      <path id="Path_239" data-name="Path 239" d="M1899.785,2079.25a27.772,27.772,0,0,0,6.226,13.447,35.758,35.758,0,0,0,6.415,5.68l.648-3.159a28.184,28.184,0,0,1-6.3-6.285,24.709,24.709,0,0,1-1.361-25.758,29.048,29.048,0,0,1-1.938-2.381,27.248,27.248,0,0,0-3.685,18.456" fill="#215789"/>
      <path id="Path_240" data-name="Path 240" d="M1916.846,2101.522c.364.271.728.533,1.085.8.4.3.778.6,1.164.909a6.675,6.675,0,0,0,1.551.518l4.129.843a39.423,39.423,0,0,0-5.368-4.781c-1.463-1.093-2.977-2.135-4.456-3.2l.373,1.813a6.813,6.813,0,0,0,1.522,3.1" fill="#215789"/>
      <path id="Path_241" data-name="Path 241" d="M1918.112,2082.272c2.9,7.914,9.552,12.254,15.647,17.525a27.372,27.372,0,0,1,9.881,23.321c-.321,4.755-1.282,9.516-.613,14.287a29.5,29.5,0,0,0,3.859,10.411,63.712,63.712,0,0,0,9.327,12.53v-4.289a52.537,52.537,0,0,1-5.379-6.866,32.765,32.765,0,0,1-4.967-10.8c-.939-4.382-.342-8.825.022-13.229.633-7.427-.5-14.685-4.813-20.925-4.244-6.145-11.015-9.59-15.989-15.014-4.579-4.988-6.844-11.461-5.562-17.583-.226-.066-.452-.132-.685-.2-.495-.138-1-.285-1.486-.452a20.007,20.007,0,0,0,.758,11.279" fill="#215789"/>
      <path id="Path_242" data-name="Path 242" d="M1935.842,2085.765c2.125,6.329,7.237,10.93,11.628,15.7a32.9,32.9,0,0,1,6.4,9.1,23.894,23.894,0,0,1,1.449,10.66c-.262,5.775-1.361,11.773.9,17.154v-28.191a24.86,24.86,0,0,0-3.349-6.05c-5.046-6.772-16.324-15.451-15.779-24.669-.662-.43-1.331-.846-2.023-1.253a17.024,17.024,0,0,0,.78,7.549" fill="#215789"/>
      <path id="Path_243" data-name="Path 243" d="M1850.807,2182.539q.359,1.7.748,3.385c.1.138.2.284.292.429a14.611,14.611,0,0,1,2.1,7.246c.312.742.656,1.47,1.026,2.191a13.384,13.384,0,0,1,2.431-.488c-3.027-5.3-3.735-11.3-5.257-17.131-1.157-4.456-2.984-9.08-6.443-12.27-2.031-1.863-4.579-2.824-7.07-3.873v2.141a20.618,20.618,0,0,1,5.2,3.043c4.391,3.83,5.81,9.874,6.975,15.327" fill="#215789"/>
      <path id="Path_244" data-name="Path 244" d="M1952.631,2194.771a6.345,6.345,0,0,0-.669.088,6.943,6.943,0,0,0-1.886.64,8.507,8.507,0,0,0-4.515,7.069,12.925,12.925,0,0,0-2.351-.967,14.6,14.6,0,0,0-2.745-.547,15.285,15.285,0,0,0-6.807.9,14.047,14.047,0,0,0-1.42.619,5.391,5.391,0,0,0-.409-.5,6.331,6.331,0,0,0-1.165-1.033c-.947-2.659-3.974-3.954-6.764-4.348-.161-.022-.319-.036-.48-.051a12.633,12.633,0,0,0-2.518.022,14.315,14.315,0,0,0-8.332,3.817,9.7,9.7,0,0,0-1.083-.315,10.4,10.4,0,0,0-1.632-.233,15.529,15.529,0,0,0-7.857,1.886c-.676.35-1.338.728-1.971,1.135-.233.147-.459.3-.685.459a6.6,6.6,0,0,0-5.621-4.732,10.777,10.777,0,0,0-7.355,2.1,4.912,4.912,0,0,0-1.04.945,3.644,3.644,0,0,0-.918,2.148,2.09,2.09,0,0,0,.2,1.006,11.666,11.666,0,0,0-13.1.21,13.163,13.163,0,0,0-16.534-9.29c-.445.138-.881.3-1.318.48a9.942,9.942,0,0,0,.292-2.671,14.611,14.611,0,0,0-2.1-7.246c-.1-.145-.188-.291-.292-.429a11.961,11.961,0,0,0-7.411-4.841c1.377-2.557.328-6.43-1.653-8.542a8.461,8.461,0,0,0-3.859-2.308V2249.6a4.912,4.912,0,0,0,4.915,4.913h107.759a4.909,4.909,0,0,0,4.907-4.913v-54.243a7.718,7.718,0,0,0-3.582-.583" fill="#7db2e1"/>
      <path id="Path_245" data-name="Path 245" d="M1851.659,2203.719a15.758,15.758,0,0,1,4.827,15.668c4.135-1.311,9.107,1.82,10.317,5.985,5.227-2.345,12.166-1.325,17.569.567,3.254,1.144,6.48,3.358,7.339,6.706a12.008,12.008,0,0,1,7.929-1.63,10.557,10.557,0,0,1,3.561-8.926c3.364-2.905,8.234-3.64,12.566-2.679-.531-1.42-1.128-3.312-.19-4.508a8.423,8.423,0,0,1,10.871-1.768,8.606,8.606,0,0,1,1.741-7.516,13.623,13.623,0,0,1,3.633-2.83c.138-.082.276-.154.416-.22a5.391,5.391,0,0,0-.409-.5,6.331,6.331,0,0,0-1.165-1.033c-.947-2.659-3.974-3.954-6.764-4.348-.161-.013-.319-.036-.48-.051a12.633,12.633,0,0,0-2.518.022,14.315,14.315,0,0,0-8.332,3.817,9.7,9.7,0,0,0-1.083-.315,10.4,10.4,0,0,0-1.632-.233,15.529,15.529,0,0,0-7.857,1.886c-.676.35-1.331.728-1.971,1.135-.233.147-.459.3-.685.459a6.6,6.6,0,0,0-5.621-4.732,10.791,10.791,0,0,0-7.361,2.1,5.033,5.033,0,0,0-1.034.945,3.667,3.667,0,0,0-.918,2.148,2.09,2.09,0,0,0,.2,1.006,11.666,11.666,0,0,0-13.1.21,13.163,13.163,0,0,0-16.534-9.29c-.445.138-.881.3-1.318.48a9.942,9.942,0,0,0,.292-2.671,14.611,14.611,0,0,0-2.1-7.246c-.1-.145-.188-.291-.292-.429a11.961,11.961,0,0,0-7.411-4.841c1.377-2.557.328-6.43-1.653-8.542a8.461,8.461,0,0,0-3.859-2.308v30.079a15.808,15.808,0,0,1,13.027,3.407" fill="#5e9ed6"/>
      <path id="Path_246" data-name="Path 246" d="M1947.739,2230.527c-.859-.712-3.007-1.827-3.86-2.541a14.78,14.78,0,0,0-9.611,2c-1.784-4.6-6.538-7.69-11.454-8.149a15.546,15.546,0,0,0-2.023-.056,19.962,19.962,0,0,0-11.664,4.637,14.935,14.935,0,0,0-4.214,6.654,10.829,10.829,0,0,0-5.273-2.06,12.008,12.008,0,0,0-7.929,1.63c-.852-3.348-4.085-5.562-7.346-6.706-5.4-1.892-12.335-2.912-17.562-.567-1.21-4.165-6.182-7.3-10.317-5.985a15.367,15.367,0,0,0-17.854-19.075V2249.6a4.912,4.912,0,0,0,4.915,4.913h107.759a4.909,4.909,0,0,0,4.907-4.913v-28.849c-3.4,2.309-6.313,6.466-8.474,9.779" fill="#afd4f1"/>
    </g>
  </g>
</svg>
