<svg xmlns="http://www.w3.org/2000/svg" width="279.846" height="279.846" viewBox="0 0 279.846 279.846">
  <g id="Group_36" data-name="Group 36" transform="translate(-1763.332 -2472.414)">
    <circle id="Ellipse_15" data-name="Ellipse 15" cx="139.923" cy="139.923" r="139.923" transform="translate(1763.332 2472.414)" fill="#fff"/>
    <path id="Path_252" data-name="Path 252" d="M1956.3,2549.288a58.007,58.007,0,0,0-8.724-22.149,102.286,102.286,0,0,0-19.265-21.755,155.363,155.363,0,0,0-27.458-19.057l-1.2-.627a4.978,4.978,0,0,0-4.75.086l-1.177.672a.8.8,0,0,0-.136.079,176.732,176.732,0,0,0-27.146,19.861,109.949,109.949,0,0,0-19.166,21.762c-5.644,8.744-8.749,17.446-9.24,25.916-.049.8-.07,1.6-.07,2.4a45.317,45.317,0,0,0,7.912,25.392v121.707a11.419,11.419,0,0,0,10.308,11.327v13.09a11.46,11.46,0,0,0,11.442,11.442h80.181a11.461,11.461,0,0,0,11.444-11.442v-121.71a45.341,45.341,0,0,0,7.916-25.392c0-9.765-3.127-19.632-9.292-29.334C1957.4,2550.795,1956.818,2550.046,1956.3,2549.288Z" fill="#ddd"/>
    <g id="Group_35" data-name="Group 35">
      <path id="Path_253" data-name="Path 253" d="M1947.578,2527.139a102.286,102.286,0,0,0-19.265-21.755,155.363,155.363,0,0,0-27.458-19.057l-1.2-.627a4.978,4.978,0,0,0-4.75.086l-1.177.672a.8.8,0,0,0-.136.079,176.732,176.732,0,0,0-27.146,19.861,109.949,109.949,0,0,0-19.166,21.762c-5.644,8.744-8.749,17.446-9.24,25.916-.049.8-.07,1.6-.07,2.4a45.317,45.317,0,0,0,7.912,25.392v121.707a11.458,11.458,0,0,0,11.442,11.442h80.18a11.46,11.46,0,0,0,11.445-11.442V2581.865a45.338,45.338,0,0,0,7.916-25.392c0-9.765-3.128-19.634-9.29-29.334" fill="#f9b85b"/>
      <path id="Path_254" data-name="Path 254" d="M1943.378,2529.814a78.078,78.078,0,0,0-5.712-7.835.114.114,0,0,0-.018-.022c-.073-.086-.147-.175-.22-.27-.043-.049-.081-.095-.12-.138s-.083-.1-.124-.154c-.079-.086-.152-.181-.231-.269l-.007-.007c-.45-.538-.909-1.072-1.38-1.595q-2.174-2.461-4.615-4.891l0-.006c-.12-.118-.24-.236-.355-.351a.058.058,0,0,1-.028-.03c-.117-.115-.237-.226-.35-.341l-.055-.052c-.117-.116-.235-.233-.353-.342-.009-.007-.02-.023-.031-.03-.084-.081-.168-.167-.252-.249-.013-.006-.029-.027-.043-.036q-.511-.492-1.034-.982c-.036-.038-.07-.066-.108-.1-.059-.05-.12-.109-.182-.167-.047-.043-.092-.086-.138-.123-.056-.059-.117-.111-.169-.16l-.163-.154c-.05-.043-.1-.086-.152-.138s-.129-.118-.2-.175c-.04-.036-.083-.081-.124-.117-.106-.095-.217-.2-.324-.292-.018-.02-.043-.036-.063-.057-.093-.088-.188-.167-.283-.255-.034-.03-.068-.059-.1-.089-.089-.079-.172-.16-.263-.233-.045-.043-.09-.086-.138-.124-.077-.073-.154-.138-.235-.211-.057-.05-.12-.108-.181-.16s-.132-.116-.2-.175c-.132-.108-.258-.226-.39-.335a152.282,152.282,0,0,0-16.237-12.265c-.084-.052-.165-.109-.247-.161-.538-.358-1.061-.693-1.568-1.014-.07-.043-.145-.093-.215-.138-.147-.095-.29-.181-.43-.269a.611.611,0,0,0-.075-.052c-.006-.007-.015-.007-.025-.014a.465.465,0,0,1-.086-.059c-.009-.007-.02-.007-.027-.013-4.383-2.754-7.314-4.287-7.567-4.418l-1.2-.627-1.175.672s-.011,0-.013.007a.207.207,0,0,0-.055.03h-.009a.124.124,0,0,0-.038.029h-.014c0,.007-.006.007-.011.014a.084.084,0,0,1-.038.013c-.009.009-.016.016-.021.016-.14.079-.344.2-.6.358-.416.239-.977.574-1.665,1l-.147.089c-.043.029-.089.049-.132.079a.723.723,0,0,1-.117.072c-.007,0-.009.009-.016.009-.032.021-.066.043-.1.066-.013.007-.027.014-.036.02-.074.052-.147.089-.222.138a.777.777,0,0,1-.067.046c-.693.43-1.485.932-2.354,1.5h0l-.106.066a.135.135,0,0,1-.043.029l-.073.043a.1.1,0,0,1-.041.03c-.072.052-.149.1-.226.153-.007,0-.013.007-.018.014-.043.023-.086.052-.124.075a.177.177,0,0,1-.039.027c-.129.088-.262.176-.394.262l-.022.016c-.132.079-.263.168-.4.263-.023.013-.043.029-.064.043a1.692,1.692,0,0,0-.154.1c-.013.006-.022.015-.036.022-.07.043-.138.086-.208.138-.005,0-.007.007-.011.007-.059.036-.12.081-.179.118a.412.412,0,0,1-.068.049c-.134.089-.269.177-.4.27-.025.016-.05.029-.07.045-.047.036-.1.072-.145.1-.018.013-.036.02-.056.036-.073.05-.145.095-.213.145-.005,0-.009.009-.011.009-.772.523-1.578,1.084-2.42,1.675-.011.006-.025.022-.038.029-.073.052-.145.1-.213.154-.009.007-.016.007-.022.014-.073.052-.148.1-.222.153-.22.161-.446.322-.67.48h0q-.585.428-1.193.86v.009c-.124.086-.253.181-.38.276a.144.144,0,0,1-.05.03c-.07.059-.149.115-.222.167l-.034.03c-.149.108-.305.226-.457.335a.482.482,0,0,1-.079.058.819.819,0,0,1-.109.08c-.016.015-.034.029-.052.043s-.013.009-.022.015c-.068.05-.141.109-.209.161h-.009c-.006.007-.015.014-.02.02s-.016.01-.025.016c-.034.023-.066.05-.1.08h0l-.065.045c-.03.02-.057.043-.089.065a.727.727,0,0,1-.072.057c-.009,0-.025.016-.036.023s-.009.006-.009.013l-.034.023c-.005,0-.009.007-.014.007a1.037,1.037,0,0,1-.108.081c-.023.02-.053.043-.077.066l-.055.036c-.226.167-.459.348-.69.525a.192.192,0,0,0-.043.036c-.222.168-.448.335-.672.509-.018.016-.039.03-.057.046-.224.174-.441.341-.665.516-.027.022-.054.045-.081.065l-.234.184h0c-.082.065-.165.131-.249.2-.018.014-.036.03-.054.043a1.233,1.233,0,0,0-.12.095.622.622,0,0,0-.052.043c-.075.059-.152.118-.229.175l-.068.059c-.074.052-.14.11-.213.167a.228.228,0,0,1-.049.036c-.143.118-.283.227-.424.344-.011,0-.018.014-.024.014-.084.065-.168.131-.249.2l-.055.046c-.07.05-.144.115-.212.167l-.08.066-.108.086c-.036.029-.073.059-.111.095-.057.045-.111.088-.168.131-.038.036-.081.066-.124.1s-.066.052-.1.081c-.052.043-.1.08-.153.123-.037.038-.073.059-.109.095l-.07.052c-.07.059-.145.124-.215.181-.039.029-.073.059-.109.088s-.088.072-.131.109-.082.065-.125.1c-.065.059-.135.111-.2.168-.02.016-.043.038-.066.059a1.082,1.082,0,0,0-.129.111c-.056.043-.113.086-.163.131-.027.027-.056.043-.086.072-.047.037-.095.08-.144.123a1.431,1.431,0,0,0-.132.1c-.045.043-.09.072-.131.115s-.084.066-.12.1c-.056.043-.109.088-.161.131l-.095.082a1.708,1.708,0,0,1-.147.122l-.122.111c-.047.036-.095.079-.143.115l-.072.066a2.452,2.452,0,0,1-.195.16,1.19,1.19,0,0,1-.1.089c-.061.05-.12.1-.181.151-.031.03-.058.052-.083.073-.055.045-.107.095-.159.14-.034.03-.063.057-.1.086-.059.045-.115.1-.17.147l-.072.057c-.068.065-.141.124-.208.183a.308.308,0,0,1-.057.05c-.072.066-.143.124-.215.19-.023.023-.043.036-.066.059l-.176.154a.172.172,0,0,1-.052.043c-.07.065-.141.131-.211.19l-.065.056c-.07.066-.141.125-.206.184a.456.456,0,0,1-.066.059c-.077.065-.149.131-.224.2a104.861,104.861,0,0,0-18.3,20.748c-5.653,8.76-8.523,17.376-8.523,25.618v.249c0,.027,0,.056,0,.093,0,.052,0,.1,0,.147s0,.079,0,.124v.122a1.069,1.069,0,0,1,.005.125c0,.036,0,.088,0,.124v.116c0,.052,0,.1.007.147a.832.832,0,0,0,0,.095c0,.057,0,.122.005.188v.045c.007.093.007.2.016.29,0,.059.007.117.009.176a.465.465,0,0,1,0,.05q.054,1.038.168,2.055a39.772,39.772,0,0,0,1.719,8.032.271.271,0,0,1,.025.072c.018.059.043.124.068.19l.039.131c.022.059.04.118.061.175a1.185,1.185,0,0,0,.054.153c.016.052.034.1.05.148.023.065.047.129.068.187l.045.132c.025.072.05.138.077.212a.667.667,0,0,1,.036.1c.03.079.066.168.1.254,0,.016.013.038.02.058a42.064,42.064,0,0,0,3.9,7.74l.005.007c.063.095.127.2.192.292,0,.007.007.016.009.023.066.095.123.19.188.285a.052.052,0,0,1,.018.027c.064.088.12.176.179.271a.255.255,0,0,1,.027.037c.057.086.122.174.179.262.009.014.018.027.027.043.066.1.138.19.206.292a2.145,2.145,0,0,1,.4,1.224v122.765c0,.045,0,.095.005.147l0,.007c0,.05.007.095.009.138v.029a1.168,1.168,0,0,1,.007.132.025.025,0,0,1,.007.022c0,.043.011.086.013.131l.005.021a1.114,1.114,0,0,0,.018.131.079.079,0,0,0,.005.03,1.084,1.084,0,0,0,.018.124.07.07,0,0,0,0,.02c.009.046.016.089.025.132,0,.009,0,.022,0,.029.007.036.018.082.025.125a.045.045,0,0,0,.009.022c.007.036.016.079.025.116,0,.006.005.022.007.029.007.036.018.072.029.118l.007.02a1.163,1.163,0,0,0,.034.118l.009.036c.007.036.023.072.032.109.007.015.007.022.013.036.012.036.025.074.039.111a.11.11,0,0,1,.007.036c.016.036.029.072.04.1a.376.376,0,0,0,.016.036c.014.043.027.072.041.109,0,.015.009.022.014.036.013.036.029.074.043.111a.264.264,0,0,1,.015.029c.014.036.03.072.048.109a.269.269,0,0,0,.011.029c.016.03.032.066.046.095a.329.329,0,0,0,.02.036c.014.03.027.057.043.086a.152.152,0,0,0,.023.046.685.685,0,0,0,.045.086.3.3,0,0,0,.018.036.559.559,0,0,1,.054.1.18.18,0,0,1,.023.027.766.766,0,0,0,.052.095.158.158,0,0,0,.023.036c.018.03.038.066.056.095a.189.189,0,0,1,.02.03.846.846,0,0,0,.064.095.088.088,0,0,1,.018.036c.023.029.043.059.066.088l.02.03a.61.61,0,0,0,.068.093.242.242,0,0,1,.016.029,1.149,1.149,0,0,1,.074.095l.014.016c.023.036.05.066.072.095.007.007.012.013.016.013a.825.825,0,0,0,.075.1.059.059,0,0,1,.016.02c.027.029.056.066.086.095l.009.016c.029.029.056.065.088.095l.011.013a1.044,1.044,0,0,0,.093.095c0,.007.005.007.009.007.032.036.061.066.093.1a.012.012,0,0,0,.009.007c.034.029.066.066.1.1l0,.009c.034.027.068.057.1.086a.4.4,0,0,1,.047.045c.018.014.036.036.055.05a.21.21,0,0,1,.056.052.187.187,0,0,1,.045.036c.025.014.046.036.068.05l.041.029a.413.413,0,0,0,.07.059c.009.007.025.014.032.03a.363.363,0,0,1,.079.059l.032.02c.029.023.054.036.081.059a.2.2,0,0,0,.027.013c.03.023.057.046.086.066.009.009.018.009.025.016.03.022.064.043.091.059.007.006.013.013.022.013a.726.726,0,0,0,.1.059l.011.007a.625.625,0,0,0,.106.066l0,.006a.249.249,0,0,0,.079.037c.02.015.041.029.061.045.007,0,.007,0,.016.007a.54.54,0,0,1,.068.036h.009c.022.013.047.029.072.043h.005a.747.747,0,0,0,.072.036c.014.009.032.016.045.023a.048.048,0,0,0,.025.006,6.338,6.338,0,0,0,2.263.627c.089.007.179.016.265.016h.018a.628.628,0,0,1,.113.007h80.332a6.476,6.476,0,0,0,6.471-6.466v-122.6c0-.029,0-.058,0-.081s0-.05,0-.079h0c.007-.082.019-.154.03-.227v-.013a.339.339,0,0,0,.016-.059c0-.007,0-.016,0-.029s0-.023.011-.037.01-.029.012-.043a.055.055,0,0,1,.009-.022.176.176,0,0,1,.016-.059h0l.011-.036.011-.03a2.3,2.3,0,0,1,.27-.509,40.467,40.467,0,0,0,7.518-23.271c0-8.81-2.866-17.776-8.514-26.659m2.783,33.779a35.764,35.764,0,0,1-2.2,6.8,37.62,37.62,0,0,1-2.883,5.334c-.254.394-.516.781-.781,1.168a7.062,7.062,0,0,0-1.3,4.021v122.656a1.489,1.489,0,0,1-1.494,1.487h-80.232a1.488,1.488,0,0,1-1.439-1.487v-122.6a6.986,6.986,0,0,0-.048-.823,7.235,7.235,0,0,0-1.165-3.135c-.028-.036-.057-.079-.084-.115a38.778,38.778,0,0,1-2.908-4.891c-.337-.679-.654-1.364-.944-2.055a35.546,35.546,0,0,1-1.539-4.431c-.283-1.036-.518-2.07-.7-3.12a33.8,33.8,0,0,1-.495-4.671c-.005-.1-.009-.211-.011-.315-.01-.312-.016-.627-.016-.939,0-.473.011-.939.031-1.414a33.7,33.7,0,0,1,.973-6.559c.182-.729.387-1.464.612-2.193a59.1,59.1,0,0,1,10.287-18.548c.623-.794,1.263-1.582,1.913-2.347a109.471,109.471,0,0,1,7.721-8.228c.756-.729,1.51-1.444,2.254-2.127.437-.4.874-.795,1.306-1.182,1.577-1.414,3.157-2.77,4.714-4.053.726-.6,1.453-1.179,2.17-1.756,1.523-1.209,3.017-2.347,4.454-3.417.638-.476,1.272-.942,1.89-1.385,1.24-.9,2.426-1.727,3.535-2.492,2.3-1.575,4.275-2.851,5.777-3.791.767-.482,1.412-.873,1.908-1.174.471.262,1.068.6,1.779,1.014.977.568,2.168,1.276,3.526,2.12.443.279.907.568,1.389.876.258.167.521.335.79.5.69.453,1.412.919,2.161,1.422,1.306.873,2.693,1.828,4.128,2.856,1.308.932,2.652,1.932,4.026,2.98,1.448,1.109,2.922,2.29,4.4,3.521q1.092.907,2.184,1.858c.242.211.482.43.726.641,1.7,1.509,3.451,3.15,5.185,4.89,1.7,1.714,3.392,3.528,5.021,5.445.562.65,1.109,1.313,1.65,1.99a73.724,73.724,0,0,1,4.583,6.363,54.129,54.129,0,0,1,5.707,11.574,38.87,38.87,0,0,1,2.191,12.614,33.653,33.653,0,0,1-.382,5.065q-.156,1.027-.372,2.055" fill="#e08c34"/>
      <path id="Path_255" data-name="Path 255" d="M1843.172,2560.619c-.075-.684-.132-1.363-.168-2.055a.465.465,0,0,0,0-.05c0-.059-.007-.117-.009-.176-.005-.093-.009-.2-.016-.29V2558c0-.066-.005-.131-.005-.188a.832.832,0,0,1,0-.095c0-.052,0-.095,0-.147a.813.813,0,0,1,0-.109c0-.043,0-.1,0-.131s-.005-.079-.005-.125v-.122c0-.045,0-.081,0-.124s0-.1,0-.147c0-.03,0-.057,0-.093v-.249c0-8.242,2.87-16.858,8.523-25.618a104.8,104.8,0,0,1,18.3-20.748c.075-.065.152-.138.224-.2l.066-.059c.065-.059.136-.118.206-.184l.065-.056c.07-.059.141-.125.211-.19a.336.336,0,0,0,.052-.036l.176-.161c.023-.023.043-.036.066-.059.072-.066.143-.124.215-.19.018-.014.038-.036.057-.05.067-.059.14-.118.208-.183l.072-.057c.055-.045.111-.1.17-.147.029-.029.063-.056.1-.086a1.591,1.591,0,0,1,.159-.131.591.591,0,0,1,.083-.082c.061-.049.12-.1.181-.151.032-.03.068-.059.1-.089a2.452,2.452,0,0,0,.195-.16l.072-.066c.048-.036.1-.079.143-.115s.082-.075.122-.111a1.708,1.708,0,0,0,.147-.122l.095-.082c.052-.043.1-.088.161-.131.036-.036.079-.066.12-.1s.086-.072.131-.115a1.431,1.431,0,0,1,.132-.1c.047-.043.1-.086.144-.123.03-.029.059-.045.086-.072a1.342,1.342,0,0,1,.163-.131,1.092,1.092,0,0,1,.129-.111.522.522,0,0,1,.066-.059c.066-.057.133-.109.2-.168a1.481,1.481,0,0,0,.125-.1c.043-.037.086-.073.131-.109s.07-.059.109-.088c.07-.057.145-.122.215-.181l.07-.052c.036-.03.07-.057.109-.095s.1-.08.153-.123.066-.052.1-.081.086-.072.124-.1c.057-.043.111-.086.168-.131.038-.036.075-.066.111-.095s.074-.057.108-.086l.08-.066c.068-.059.142-.117.212-.167l.055-.046a2.629,2.629,0,0,1,.249-.2.186.186,0,0,1,.024-.021c.141-.117.283-.226.424-.344a.228.228,0,0,0,.049-.036c.073-.057.143-.115.211-.167l.07-.059c.077-.057.154-.116.229-.175a.622.622,0,0,1,.052-.043,1.233,1.233,0,0,1,.12-.095c.018-.013.036-.029.054-.043.084-.065.167-.131.249-.2h0l.234-.184c.027-.02.054-.043.081-.065.224-.175.441-.342.665-.516.018-.016.039-.03.057-.046.224-.174.45-.341.672-.516.016-.009.029-.022.043-.029.233-.183.464-.358.69-.525l.055-.036c.024-.023.054-.046.077-.066a1.037,1.037,0,0,0,.108-.081c.005,0,.009-.007.014-.007l.034-.023a.248.248,0,0,1,.045-.036c.014-.014.029-.02.043-.036.036-.03.079-.059.118-.086l.065-.045.009-.007a.578.578,0,0,1,.046-.036.439.439,0,0,1,.072-.053.036.036,0,0,1,.02-.013c0-.007.005-.007.009-.014.068-.045.141-.1.211-.154.007-.006.013-.015.02-.015s.036-.028.052-.043a.819.819,0,0,0,.109-.08.482.482,0,0,0,.079-.058c.152-.118.308-.227.457-.335l.034-.03a2.617,2.617,0,0,0,.222-.167.144.144,0,0,0,.05-.03c.127-.095.256-.183.378-.276,0,0,0,0,0-.009q.608-.434,1.193-.86h0c.224-.158.45-.319.67-.48.072-.052.149-.1.222-.153.006-.007.013-.014.02-.014.07-.052.142-.1.215-.154a.1.1,0,0,0,.038-.029c.842-.591,1.648-1.152,2.42-1.675,0,0,.006-.009.011-.009.07-.05.142-.095.213-.145.013-.016.038-.023.056-.036.048-.03.1-.066.145-.095a.3.3,0,0,1,.07-.052c.134-.093.269-.181.4-.27.023-.013.045-.029.068-.043.057-.043.12-.088.179-.124,0,0,.006-.007.006-.007.075-.052.143-.095.213-.138.014-.007.023-.016.036-.022l.154-.109c.021-.007.041-.03.064-.036.133-.095.264-.184.4-.263l.022-.016c.132-.086.265-.174.394-.262a.177.177,0,0,0,.039-.027c.038-.023.081-.052.124-.075.005-.007.011-.014.018-.014l.226-.153a.1.1,0,0,0,.041-.03l.073-.043c.013-.007.029-.023.043-.029l.106-.066h0c2.125-1.385,3.763-2.383,4.723-2.951q-.8-2.406-1.661-4.789a176.732,176.732,0,0,0-27.146,19.861,109.949,109.949,0,0,0-19.166,21.762c-5.644,8.744-8.749,17.446-9.24,25.916a47.016,47.016,0,0,0,5.129,6.536v.007" fill="#fccf8c"/>
      <path id="Path_256" data-name="Path 256" d="M1944.082,2580.319h0a.176.176,0,0,0-.016.059.055.055,0,0,0-.009.022c0,.014-.009.028-.012.043s-.006.03-.011.037,0,.022,0,.029a.339.339,0,0,1-.016.059v.013c-.011.073-.023.145-.03.227h0c0,.029,0,.05,0,.079s0,.052,0,.081v60.27q1.306,1.236,2.67,2.422a9.132,9.132,0,0,0,2.3,1.58v-61.029c-1.478-1.2-3.128-2.661-4.87-3.892" fill="#fccf8c"/>
      <path id="Path_257" data-name="Path 257" d="M1893.575,2492.347c-.043.029-.089.049-.132.079a.723.723,0,0,1-.117.072c-.007,0-.009.009-.016.009l-.1.066c-.009.007-.023.014-.032.02-.074.052-.147.089-.222.138a.777.777,0,0,1-.067.046c-.693.43-1.485.932-2.354,1.5h0l-.106.066a.135.135,0,0,1-.043.029l-.073.043a.1.1,0,0,1-.041.03l-.226.153c-.007,0-.013.007-.018.014-.043.023-.086.052-.124.075-.012.013-.028.02-.034.027l-.4.262-.022.016c-.132.079-.263.168-.4.263-.023.013-.043.029-.064.043a1.692,1.692,0,0,0-.154.1c-.013.006-.022.015-.036.022-.07.043-.138.086-.21.138,0,0-.005.007-.009.007-.059.036-.122.081-.179.118a.412.412,0,0,1-.068.049c-.134.089-.269.177-.4.27-.025.016-.05.029-.07.045-.047.036-.1.072-.145.1-.018.013-.043.02-.056.036-.073.05-.143.095-.213.145-.005,0-.009.009-.011.009-.772.523-1.578,1.084-2.42,1.675-.011.006-.025.022-.038.029-.073.052-.145.1-.215.154-.007.007-.014.007-.023.014-.07.052-.145.1-.219.153-.22.161-.446.322-.67.48h0q-.585.428-1.193.86v.009c-.124.086-.253.181-.38.276a.19.19,0,0,1-.045.03c-.075.059-.15.115-.227.167l-.034.03c-.149.108-.305.226-.457.335a.482.482,0,0,1-.079.058.819.819,0,0,1-.109.08c-.016.015-.034.029-.052.043s-.013.009-.02.015c-.07.05-.143.109-.211.161h-.009c-.006.007-.015.014-.02.02s-.016.01-.025.016a1.039,1.039,0,0,0-.1.08h0l-.065.045c-.03.02-.057.043-.089.065a.727.727,0,0,1-.072.057c-.009,0-.025.016-.034.023s-.011.006-.011.013l-.034.023c-.005,0-.009.007-.014.007-.036.029-.07.058-.1.081s-.054.043-.081.066l-.055.036c-.226.167-.459.348-.69.525a.192.192,0,0,0-.043.036c-.222.168-.448.335-.672.509-.018.016-.039.03-.057.046-.221.174-.441.341-.665.516-.027.022-.054.045-.081.065l-.234.184h0c-.082.065-.165.131-.249.2-.018.014-.036.03-.054.043a1.233,1.233,0,0,0-.12.095c-.021.014-.032.03-.052.043-.075.059-.152.118-.229.175l-.068.059c-.07.052-.14.11-.213.167a.228.228,0,0,1-.049.036c-.141.118-.283.227-.424.344-.009,0-.018.014-.024.014-.084.065-.168.131-.249.2l-.055.046c-.07.05-.144.115-.217.167l-.075.066c-.034.029-.07.056-.108.086s-.073.059-.111.095l-.165.131c-.041.036-.086.066-.127.1s-.066.052-.1.081-.1.08-.153.123c-.037.038-.073.059-.109.095l-.07.052c-.07.059-.143.124-.215.181-.039.029-.073.059-.109.088s-.088.072-.131.109-.082.065-.125.1c-.068.059-.135.111-.2.168a.522.522,0,0,0-.066.059.948.948,0,0,0-.129.111c-.056.043-.113.086-.163.131-.027.027-.056.043-.086.072-.047.037-.1.08-.144.123a1.431,1.431,0,0,0-.132.1c-.04.043-.09.072-.131.115s-.084.066-.12.1c-.056.043-.109.088-.161.131l-.095.082a1.708,1.708,0,0,1-.147.122c-.04.036-.081.075-.122.111s-.095.079-.143.115l-.072.066c-.063.059-.129.108-.195.16-.027.03-.063.059-.1.089-.061.05-.12.1-.181.151-.031.03-.058.052-.083.073-.055.045-.107.095-.159.14-.034.03-.068.057-.1.086-.059.045-.115.1-.174.147l-.068.057c-.068.065-.141.124-.208.183a.308.308,0,0,1-.057.05c-.072.066-.143.124-.215.19-.023.023-.043.036-.066.059l-.176.154a.172.172,0,0,1-.052.043c-.07.065-.141.131-.211.19l-.065.056c-.07.066-.141.125-.209.184l-.063.059c-.072.065-.149.131-.224.2a104.861,104.861,0,0,0-18.3,20.748c-5.653,8.76-8.523,17.376-8.523,25.618,0,.088,0,.167,0,.249v.093c0,.052,0,.1,0,.147s0,.079,0,.124v.122a1.069,1.069,0,0,1,.005.125c0,.036,0,.088,0,.124a.867.867,0,0,0,0,.116c0,.052,0,.1,0,.147a.832.832,0,0,0,0,.095c0,.057,0,.122.005.188v.045c.007.093.007.2.016.29a27.087,27.087,0,0,1,3.175-.7c.588-.1,1.181-.174,1.77-.226-.01-.312-.016-.627-.016-.939,0-.473.011-.939.031-1.414a33.7,33.7,0,0,1,.973-6.559c.182-.729.385-1.464.612-2.193a59.141,59.141,0,0,1,10.287-18.548c.623-.794,1.263-1.582,1.913-2.347a109.071,109.071,0,0,1,7.721-8.228c.756-.729,1.51-1.444,2.254-2.127.437-.4.874-.795,1.306-1.182,1.577-1.414,3.157-2.77,4.714-4.053.726-.6,1.453-1.179,2.168-1.756q2.3-1.813,4.456-3.417c.638-.476,1.274-.942,1.89-1.385,1.24-.9,2.426-1.727,3.535-2.492,2.3-1.575,4.275-2.851,5.777-3.791.767-.482,1.412-.873,1.908-1.174.471.262,1.068.6,1.779,1.014.977.568,2.168,1.276,3.526,2.12.443.279.907.568,1.389.876a18.559,18.559,0,0,1,4.4-3.1c-.538-.358-1.061-.693-1.568-1.014-.07-.043-.145-.093-.215-.138-.147-.095-.29-.181-.43-.269a.611.611,0,0,0-.075-.052c-.006-.007-.015-.007-.025-.014a.465.465,0,0,1-.086-.059c-.009-.007-.02-.007-.027-.013-4.383-2.754-7.314-4.287-7.567-4.418l-1.2-.627-1.175.672s-.006,0-.013.007a.25.25,0,0,0-.057.03h-.007a.124.124,0,0,0-.038.029h-.014c0,.007,0,.007-.013.014a.07.07,0,0,1-.036.013.033.033,0,0,1-.021.016c-.14.079-.344.2-.6.358-.416.239-.977.574-1.665,1l-.147.089" fill="#c7761d"/>
      <path id="Path_258" data-name="Path 258" d="M1939.979,2683.422q-.414-.468-.844-.948c-.041-.05-.089-.093-.134-.145v21.243a1.489,1.489,0,0,1-1.494,1.487h-80.232a42.224,42.224,0,0,1-.5,4.956c.089.007.179.016.265.016h.018a.672.672,0,0,1,.118.007h80.327a6.476,6.476,0,0,0,6.471-6.466V2688.26q-1.617-2.073-3.336-4.073c-.22-.256-.441-.509-.663-.765" fill="#f09c44"/>
      <path id="Path_259" data-name="Path 259" d="M1933.185,2523.348c-.129.2-.262.387-.4.584.562.65,1.109,1.313,1.65,1.99a75,75,0,0,1,4.583,6.354,54.5,54.5,0,0,1,5.707,11.589,38.805,38.805,0,0,1,2.191,12.608,33.653,33.653,0,0,1-.382,5.065q-.156,1.027-.372,2.055a35.618,35.618,0,0,1-2.2,6.8,37.932,37.932,0,0,1-2.883,5.334c-.254.394-.516.781-.781,1.168a7.062,7.062,0,0,0-1.3,4.021q1.484.744,2.958,1.467c.677.326,1.351.654,2.019.975v-2.39c0-.029,0-.058,0-.081s0-.05,0-.079h0c.007-.082.019-.154.03-.227v-.013l.016-.052c0-.014,0-.023,0-.036s0-.023.011-.037a.3.3,0,0,1,.012-.043.055.055,0,0,1,.009-.022.239.239,0,0,1,.016-.059h0l.011-.036a.119.119,0,0,0,.011-.03,2.3,2.3,0,0,1,.27-.509,40.467,40.467,0,0,0,7.518-23.271c0-8.81-2.866-17.776-8.514-26.659a78.078,78.078,0,0,0-5.712-7.835.114.114,0,0,0-.018-.022c-.073-.086-.147-.175-.22-.27-.043-.049-.081-.095-.12-.138s-.083-.1-.124-.154c-.079-.086-.152-.181-.231-.269,0,0,0-.007-.007-.007q-.675-.807-1.38-1.6c-.736,1.312-1.535,2.6-2.381,3.833" fill="#f09c44"/>
      <g id="Group_34" data-name="Group 34">
        <g id="Group_32" data-name="Group 32">
          <path id="Path_260" data-name="Path 260" d="M1945.738,2565.322c-.038.138-.077.282-.12.42C1945.661,2565.6,1945.7,2565.46,1945.738,2565.322Z" fill="none"/>
          <path id="Path_261" data-name="Path 261" d="M1944.724,2543.859a54.318,54.318,0,0,0-5.707-11.574q-.615-.963-1.261-1.9c-1.056-1.53-2.17-3.017-3.322-4.46h0c-.541-.677-1.088-1.34-1.65-1.99-1.629-1.917-3.319-3.731-5.021-5.445h0c-.747-.749-1.5-1.477-2.25-2.193-.984-.932-1.969-1.837-2.935-2.7-.244-.211-.484-.43-.726-.641q-1.094-.95-2.184-1.858c-1-.83-1.992-1.624-2.974-2.4-.477-.371-.955-.752-1.428-1.116h0c-1.371-1.048-2.72-2.048-4.021-2.98h0c-.641-.46-1.263-.89-1.881-1.32-.156-.108-.31-.217-.459-.319-.611-.423-1.213-.83-1.793-1.217h0c-.749-.5-1.471-.969-2.161-1.422h0c-.269-.167-.532-.335-.79-.5-.482-.308-.946-.6-1.389-.876-1.358-.844-2.549-1.552-3.526-2.12-.711-.414-1.308-.752-1.779-1.014h0c-.5.3-1.141.692-1.908,1.174h0c-1.5.94-3.48,2.216-5.777,3.791h0l-1.261.88c-.735.512-1.489,1.05-2.274,1.612-.618.443-1.252.909-1.89,1.385-1.111.823-2.261,1.713-3.433,2.623-.339.269-.677.525-1.023.794-.715.577-1.442,1.159-2.168,1.756-1.557,1.283-3.137,2.639-4.714,4.053-.432.387-.869.779-1.306,1.182-.744.683-1.5,1.4-2.254,2.127-1.953,1.88-3.922,3.906-5.834,6.049-.636.713-1.265,1.435-1.887,2.179-.65.765-1.29,1.553-1.917,2.347a74.484,74.484,0,0,0-5.006,7.172,50.8,50.8,0,0,0-5.277,11.376h0c-.227.729-.43,1.464-.612,2.193h0a34.035,34.035,0,0,0-.905,5.669c-.025.3-.054.591-.068.89-.02.475-.034.941-.034,1.414,0,.312.009.627.019.939,0,.1.006.213.011.315.027.787.084,1.559.167,2.34s.193,1.552.328,2.331c.186,1.05.421,2.084.7,3.12h0a35.546,35.546,0,0,0,1.539,4.431h0c.29.691.607,1.376.944,2.055a38.778,38.778,0,0,0,2.908,4.891c.027.036.056.079.084.115a7.2,7.2,0,0,1,1.02,2.324v.009a7.164,7.164,0,0,1,.145.8,6.986,6.986,0,0,1,.048.823v122.6a1.61,1.61,0,0,0,.029.292,1.505,1.505,0,0,0,.849,1.064,1.545,1.545,0,0,0,.561.131h80.232a1.47,1.47,0,0,0,.478-.079,1.494,1.494,0,0,0,1.016-1.408V2580.916a6.869,6.869,0,0,1,.093-1.063,6.988,6.988,0,0,1,.907-2.5,4.868,4.868,0,0,1,.3-.457c.265-.387.527-.774.781-1.168a37.424,37.424,0,0,0,2.883-5.334c.24-.554.468-1.116.683-1.67q.554-1.473.973-2.971c.043-.148.082-.292.12-.44.154-.568.3-1.136.419-1.7a.048.048,0,0,1,0-.015q.218-1.026.372-2.055h0c.09-.582.156-1.173.215-1.763.106-1.093.167-2.193.167-3.3A38.87,38.87,0,0,0,1944.724,2543.859Zm.894,21.883c.043-.138.082-.282.12-.42C1945.7,2565.46,1945.661,2565.6,1945.618,2565.742Z" fill="#1d4469"/>
        </g>
        <g id="Group_33" data-name="Group 33">
          <path id="Path_262" data-name="Path 262" d="M1855.836,2616.27c.049-.086.1-.174.154-.253a6.183,6.183,0,0,1,6.259-2.823c-2.179-2.287-4.327-4.6-6.413-6.965Z" fill="none"/>
          <path id="Path_263" data-name="Path 263" d="M1858.214,2618.413c-.819,1.989-.914,5.2.471,6.952a5.8,5.8,0,0,0,2.994,1.881c1.235.351,2.559.2,3.768.584a1.4,1.4,0,0,1,.17.072,45.893,45.893,0,0,1,5.2.394,29.073,29.073,0,0,1,7.439,1.641A8.687,8.687,0,0,1,1880.1,2631q-1.782-1.728-3.551-3.446c-3.537-3.47-7.083-6.955-10.566-10.5a6.683,6.683,0,0,1-1.123,5.764,3.521,3.521,0,0,1-4.2,1.2c-1.206-.62-2.032-2.2-1.2-3.42a1.065,1.065,0,0,1,1.923.256c.356,1.575,1.544.138,1.829-.722a3.812,3.812,0,0,0-.459-3.424C1861.269,2615,1858.836,2616.913,1858.214,2618.413Z" fill="none"/>
          <path id="Path_264" data-name="Path 264" d="M1872.5,2631.116c-1.883-.211-3.775-.319-5.653-.5l0,.118a1.122,1.122,0,0,1,.172.634,14.839,14.839,0,0,0,1.709,8.022,9.7,9.7,0,0,0,6.121,4.4,8.11,8.11,0,0,0,7.256-1.74,8.376,8.376,0,0,0,2.183-3.069c.383-.969.333-2.274.788-3.207-1.195-1.145-2.392-2.281-3.58-3.426a5.676,5.676,0,0,1,.774,6.414c-1.867,3.571-6.513,4.293-9.743,2.156a6.034,6.034,0,0,1-2.917-4.415,3.6,3.6,0,0,1,2.911-3.84c1.534-.329,3.65.02,4.539,1.45a2.261,2.261,0,0,1-1.62,3.549c-1.2.145-1.534-1.48-.788-2.164l0-.009-.312-.086a2.525,2.525,0,0,0-.9-.045c-.584.095-.944.344-.885.948.116,1.159,1.482,2.164,2.46,2.58,2.367,1.005,6.04-.423,5.391-3.512C1879.711,2632.071,1875.221,2631.423,1872.5,2631.116Z" fill="none"/>
          <path id="Path_265" data-name="Path 265" d="M1924.574,2646.6q-13.884-11.919-27.431-24.219c-8.744-7.914-17.622-15.792-25.846-24.269-.826.19-1.772-.378-1.428-1.428,1.591-4.839.729-10-3.58-13.133a10.765,10.765,0,0,0-6.2-2.172,6.421,6.421,0,0,0-4.252,1.407v7.71a4.415,4.415,0,0,1,2.19-1.887c3.178-1.369,8.188.932,7.385,4.9a3.361,3.361,0,0,1-3.354,2.856,2.83,2.83,0,0,1-2.718-2.878c.043-1.005,1.65-1.326,1.84-.247a.859.859,0,0,0,1.609.378,1.675,1.675,0,0,0-.783-2.157c-1.272-.817-3.449-.48-3.707,1.225-.272,1.778,1.213,3.7,2.252,4.978,1.382,1.7,2.833,3.352,4.315,4.97a206.2,206.2,0,0,0,17.019,16.056c6.135,5.335,12.277,10.655,18.337,16.077,6.224,5.567,12.4,11.187,18.48,16.921q4.471,4.209,8.894,8.478a111.889,111.889,0,0,1,8.853,8.869,1.344,1.344,0,0,1,.283.574,10.929,10.929,0,0,1,2.27,3.719v-14.541c-2.342-1.733-4.512-3.752-6.726-5.632Q1928.412,2649.9,1924.574,2646.6Z" fill="none"/>
          <path id="Path_266" data-name="Path 266" d="M1939,2602.92v-2.012a10.724,10.724,0,0,1-1.731.152C1937.847,2601.68,1938.426,2602.3,1939,2602.92Z" fill="none"/>
          <path id="Path_267" data-name="Path 267" d="M1931.162,2649.082c1.177,1,2.351,2.019,3.528,3.017l.009.013a8.359,8.359,0,0,0,2.29-1.566c.774-.744,1.2-1.706,1.917-2.471a.8.8,0,0,1,.095-.088v-5.975a9.7,9.7,0,0,1-1.645,3.323A10.622,10.622,0,0,1,1931.162,2649.082Z" fill="none"/>
          <path id="Path_268" data-name="Path 268" d="M1935.8,2599.48a30.333,30.333,0,0,0,3.2-.57v-5.581a15.984,15.984,0,0,1-6.438,2.7c1.02,1.086,2.043,2.172,3.055,3.258C1935.681,2599.349,1935.74,2599.415,1935.8,2599.48Z" fill="none"/>
          <path id="Path_269" data-name="Path 269" d="M1881.467,2583.41c-.07-.074-.138-.14-.21-.213q-1.851-1.866-3.694-3.752a.59.59,0,0,1-.278.263c-1.41.683-3.162.627-4.666,1.063a7.076,7.076,0,0,0-3.633,2.209,14.562,14.562,0,0,1,3.1,4.73A11.343,11.343,0,0,1,1881.467,2583.41Z" fill="none"/>
          <path id="Path_270" data-name="Path 270" d="M1874.791,2646.756c-7.04-1.057-12.184-8.659-10.145-15.559a3.911,3.911,0,0,1,.165-.817c-.333-.043-.663-.095-.994-.145a8.32,8.32,0,0,1-3.424-.43c.039,1.777-.282,3.621-.162,5.377a18.825,18.825,0,0,0,1.552,6.552,13.9,13.9,0,0,0,8.532,7.7c4.22,1.276,9.455,2.156,13.386-.349a12.155,12.155,0,0,0,3.795-3.9,26.493,26.493,0,0,0,2.012-5.262q-1.2-1.116-2.385-2.231a9.131,9.131,0,0,1-.453,1.946,10.908,10.908,0,0,1-2.569,4.146A10.726,10.726,0,0,1,1874.791,2646.756Z" fill="none"/>
          <path id="Path_271" data-name="Path 271" d="M1900.753,2659.16a9.542,9.542,0,0,0-1.288,5.911c.385,3.5,2.949,6,5.373,8.455a19.636,19.636,0,0,1,2.012-3.411c.767-1.181,1.545-2.362,2.36-3.5.835-1.159,1.693-2.318,2.625-3.4a22.947,22.947,0,0,1,1.743-1.8q-1.945-1.659-3.884-3.344a9.021,9.021,0,0,1-1.412,7.755,4.168,4.168,0,0,1-6.517.086c-1.677-2.1-.8-5.814,2.095-6.208a1.115,1.115,0,0,1,.856,2.026c-1.012.656-1.838,2.107-.451,2.9.933.532,1.806-.154,2.315-.919,1.281-1.932,1.274-5.445-.728-6.9C1903.8,2655.326,1901.778,2657.449,1900.753,2659.16Z" fill="none"/>
          <path id="Path_272" data-name="Path 272" d="M1880.811,2683.3a29.666,29.666,0,0,1,3.093,4.693,14.529,14.529,0,0,1,2.5.168,7.378,7.378,0,0,0,3.479-.795,6.151,6.151,0,0,0,2.491-2.324,12.118,12.118,0,0,0,.854-2.754,42.786,42.786,0,0,0-2.533-3.906,7.908,7.908,0,0,1-.19,1.054,6.28,6.28,0,0,1-3.641,4.178A6.912,6.912,0,0,1,1880.811,2683.3Z" fill="none"/>
          <path id="Path_273" data-name="Path 273" d="M1868.321,2668.9a11.368,11.368,0,0,0,.473,3.817,8.915,8.915,0,0,0,1.048,2.114q1.215.546,2.38,1.2a8.784,8.784,0,0,1,.218-6.18,9.017,9.017,0,0,1,4.3-4.228c-1.949-1.231-3.974-2.3-5.995-3.4C1868.909,2663.518,1868.4,2666.922,1868.321,2668.9Z" fill="none"/>
          <path id="Path_274" data-name="Path 274" d="M1874.538,2670.9a6.887,6.887,0,0,0-.546,3.44,8.867,8.867,0,0,0,1.444,3.479.9.9,0,0,1,.125.384c.769.584,1.507,1.2,2.217,1.852-.02-.043-.043-.086-.063-.125-1.423-3.243-.448-8.009,3.691-8.314a5.309,5.309,0,0,1,4.35,1.756c1.176,1.355,1.7,3.571.364,5.015-1.027,1.113-3.017,1.493-4.1.233-.926-1.073-.5-2.981,1.095-2.945a.828.828,0,0,1,.711,1.245l.038.009c.158-.124.335-.124.437-.328.267-.532-.285-1.29-.654-1.618a2.67,2.67,0,0,0-2.485-.6c-2.281.706-1.4,4.284-.31,5.626a4.353,4.353,0,0,0,5.988.64,4.2,4.2,0,0,0,1.408-2.74,26.871,26.871,0,0,1-.084-2.7q-1.277-1.466-2.668-2.822a50.111,50.111,0,0,0-6.326-5.144C1877.217,2667.965,1875.488,2668.75,1874.538,2670.9Z" fill="none"/>
          <path id="Path_275" data-name="Path 275" d="M1911.274,2668.087c-.8,1.159-1.6,2.318-2.369,3.5a20.613,20.613,0,0,1-2.3,3.338,1.26,1.26,0,0,1-.26.19c.332.371.651.736.95,1.116.5.634.973,1.3,1.414,1.98.39-.735.989-1.435,1.374-2.025q1.242-1.891,2.505-3.775c.885-1.319,1.8-2.623,2.748-3.9a14.2,14.2,0,0,1,2.842-3.184l.005-.007q-1.671-1.4-3.341-2.813c-.427.765-.862,1.53-1.344,2.279C1912.786,2665.9,1912.025,2666.988,1911.274,2668.087Z" fill="none"/>
          <path id="Path_276" data-name="Path 276" d="M1917.045,2681.971a20.46,20.46,0,0,1-1.372,1.976,22.575,22.575,0,0,1-3.17,3.761c.045.247.088.509.127.765a29.411,29.411,0,0,1,.176,7.477c2.216-3.381,4.42-6.764,6.543-10.2l.065-.088a15.327,15.327,0,0,1-1.937-2.8C1917.323,2682.569,1917.181,2682.277,1917.045,2681.971Z" fill="none"/>
          <path id="Path_277" data-name="Path 277" d="M1916.142,2679.407a17.255,17.255,0,0,1-.5-6.072c.039-.35.082-.721.134-1.1-.414.617-.835,1.238-1.252,1.858q-1.344,1.968-2.661,3.958a6.543,6.543,0,0,1-1.878,2.331,26.3,26.3,0,0,1,1.889,4.671c.627-.831,1.272-1.646,1.858-2.506C1914.386,2681.587,1915.04,2680,1916.142,2679.407Z" fill="none"/>
          <path id="Path_278" data-name="Path 278" d="M1880.313,2590.58a6.6,6.6,0,0,1,6.8-1.3c.14.059.281.124.416.19q-2.312-2.295-4.612-4.6a14.566,14.566,0,0,0-5.725,1.609,14.137,14.137,0,0,0-4.332,3.784,12.31,12.31,0,0,1-.321,6.237q3.042,2.667,6.011,5.431C1876.939,2598.145,1877.054,2593.408,1880.313,2590.58Z" fill="none"/>
          <path id="Path_279" data-name="Path 279" d="M1928.84,2644.825a7.39,7.39,0,0,1-2.865-.2c.588.5,1.177,1.021,1.767,1.524.467.4.933.8,1.4,1.194.978-.459,2.125-.525,3.134-.925a10.03,10.03,0,0,0,3.18-2.055c1.976-1.894,2.288-4.372,2.093-6.975a.386.386,0,0,1,.242-.407c-1.321-1.123-2.632-2.268-3.931-3.42a9.29,9.29,0,0,1,.58,1.962C1935.136,2639.528,1933.28,2644.212,1928.84,2644.825Z" fill="none"/>
          <path id="Path_280" data-name="Path 280" d="M1870.005,2522.482c-1.958.663-2.8,2.973-2.827,4.868-.072,4.971,5.59,7.719,9.367,9.59,5.013,2.488,10.2,4.549,15.389,6.64a144.4,144.4,0,0,1,15.432,7.047c.672.374,1.355.752,2.039,1.139q-11.884-10.955-24.016-21.647c-1.3-1.151-2.607-2.287-3.917-3.433a7.327,7.327,0,0,1,.455,1.56,5.52,5.52,0,0,1-7.926,5.89,4.475,4.475,0,0,1-2.494-5.356,2.838,2.838,0,0,1,5.015-.65c.978,1.444-1.292,2.659-2.3,1.34.193.256-.052,0-.135.272a1.175,1.175,0,0,0,.081.749,1.889,1.889,0,0,0,.8.918,3.073,3.073,0,0,0,2.58.168c2.621-1,1.087-4.227-.169-5.7C1875.751,2523.946,1872.7,2521.579,1870.005,2522.482Z" fill="none"/>
          <path id="Path_281" data-name="Path 281" d="M1912.227,2574.969a3.086,3.086,0,0,1-.421-.188q2.314,2.306,4.61,4.612a14.559,14.559,0,0,0,5.73-1.611,14.282,14.282,0,0,0,4.331-3.782,12.236,12.236,0,0,1,.322-6.239q-3.039-2.677-6.009-5.429c1.6,3.775,1.492,8.514-1.767,11.347A6.6,6.6,0,0,1,1912.227,2574.969Z" fill="none"/>
          <path id="Path_282" data-name="Path 282" d="M1889.881,2545.628c-5.284-2.238-10.659-4.372-15.742-7.054-.052-.022-.106-.052-.16-.081,2.532,2.376,5.049,4.766,7.576,7.142.166.161.338.328.51.489a.565.565,0,0,1,.224.079c1.946,1.132,3.82,2.413,5.827,3.433a23.747,23.747,0,0,0,6.316,2.078c3.565.706,7.539,1.355,9.924,4.417,1.894,2.426,2.233,6.507-.532,8.469a4.871,4.871,0,0,1-1.638.742q2.841,2.757,5.666,5.533a9.222,9.222,0,0,1-.437-.964,6.37,6.37,0,0,1,.879-6.339,5.57,5.57,0,0,1,5.53-1.962c3.73,1.007,4.488,7.07.487,8.244-1.3.385-2.161-1.6-.928-2.208a1.866,1.866,0,0,0-.968-3.492c-3.067.226-3.225,3.863-1.972,5.911,1.657,2.711,4.972,3.41,7.088.794,1.772-2.186,1.462-5.481.27-7.864-2.367-4.723-7.808-7.667-12.257-10.116A171.626,171.626,0,0,0,1889.881,2545.628Z" fill="none"/>
          <path id="Path_283" data-name="Path 283" d="M1937.655,2537.015c-1.234-.357-2.562-.206-3.768-.591a.524.524,0,0,1-.17-.072,42.811,42.811,0,0,1-5.2-.394,28.767,28.767,0,0,1-7.439-1.634,8.957,8.957,0,0,1-1.842-1.063c1.186,1.145,2.369,2.288,3.548,3.446,3.537,3.47,7.084,6.955,10.569,10.5a6.686,6.686,0,0,1,1.12-5.766,3.531,3.531,0,0,1,4.2-1.2c1.206.613,2.032,2.2,1.2,3.42a1.066,1.066,0,0,1-1.922-.256c-.353-1.575-1.545-.147-1.833.722a3.824,3.824,0,0,0,.462,3.424c1.484,1.7,3.915-.2,4.535-1.713.822-1.989.917-5.2-.471-6.946A5.791,5.791,0,0,0,1937.655,2537.015Z" fill="none"/>
          <path id="Path_284" data-name="Path 284" d="M1926.835,2533.136c1.883.22,3.77.322,5.651.505v-.1a1.119,1.119,0,0,1-.172-.647,14.843,14.843,0,0,0-1.713-8.019,9.715,9.715,0,0,0-6.12-4.4,8.106,8.106,0,0,0-7.251,1.749,8.272,8.272,0,0,0-2.183,3.069c-.39.962-.335,2.267-.8,3.207,1.2,1.136,2.4,2.281,3.585,3.417a5.664,5.664,0,0,1-.776-6.414c1.869-3.571,6.515-4.284,9.742-2.156a6.075,6.075,0,0,1,2.92,4.424,3.608,3.608,0,0,1-2.915,3.834c-1.532.335-3.646-.016-4.54-1.451a2.257,2.257,0,0,1,1.62-3.542c1.2-.154,1.539,1.48.79,2.157l0,.007.31.088a2.352,2.352,0,0,0,.9.043c.584-.086.942-.335.883-.939-.115-1.166-1.48-2.166-2.46-2.58-2.365-1.014-6.038.423-5.386,3.5C1919.622,2532.19,1924.11,2532.831,1926.835,2533.136Z" fill="none"/>
          <path id="Path_285" data-name="Path 285" d="M1897.553,2604.5c.821-.021,1.709.059,2.277-.663a1.573,1.573,0,0,0,.022-1.931,2.166,2.166,0,0,0-2.885-.036c-1.107.889-1.019,2.573-.507,3.761a6.3,6.3,0,0,0,3.331,2.994c3.137,1.437,6.715,1.444,9.9,2.8.317.131.627.276.939.423q-4.139-3.927-8.256-7.88a3.763,3.763,0,0,1-1.163,1.785,3.416,3.416,0,0,1-4.112.43A.911.911,0,0,1,1897.553,2604.5Z" fill="none"/>
          <path id="Path_286" data-name="Path 286" d="M1907.4,2620.681a145.533,145.533,0,0,1-15.432-7.048c-.672-.373-1.358-.751-2.037-1.145q11.884,10.965,24.009,21.653c1.3,1.143,2.616,2.288,3.92,3.424a7.462,7.462,0,0,1-.451-1.552,5.52,5.52,0,0,1,7.923-5.9,4.483,4.483,0,0,1,2.494,5.363,2.841,2.841,0,0,1-5.015.65c-.98-1.451,1.29-2.668,2.3-1.342-.2-.254.052,0,.134-.27a1.193,1.193,0,0,0-.077-.749,1.864,1.864,0,0,0-.806-.919,3.041,3.041,0,0,0-2.58-.167c-2.623,1-1.088,4.225.17,5.7,1.634,1.924,4.678,4.293,7.377,3.388,1.958-.654,2.8-2.971,2.832-4.861.067-4.976-5.59-7.724-9.367-9.591C1917.776,2624.827,1912.582,2622.772,1907.4,2620.681Z" fill="none"/>
          <path id="Path_287" data-name="Path 287" d="M1910.262,2584.11c-.04-4.644-2.143-8.521-4.582-12.246q-3.636-3.575-7.287-7.126a3.612,3.612,0,0,1-.872-.847c-.522-.509-1.05-1.018-1.573-1.523q-9.1-8.808-18.326-17.482c-2.437-2.3-4.888-4.578-7.323-6.88a12.666,12.666,0,0,1,.5,4.271c-.117,2.593-.726,5.137-.973,7.717a27.374,27.374,0,0,0,.514,8.373,42.006,42.006,0,0,0,6.9,15.226c3.015,4.32,6.948,7.95,9.933,12.25a.882.882,0,0,1,.113.24q6.775,6.768,13.653,13.44a3.65,3.65,0,0,1,.869.838l1.573,1.532q6.174,5.967,12.415,11.885c-.106-.183-.21-.371-.319-.554a44.293,44.293,0,0,1-5.3-13.54C1909.183,2594.4,1910.305,2589.385,1910.262,2584.11Z" fill="none"/>
          <path id="Path_288" data-name="Path 288" d="M1904.906,2612.538c-3.569-.706-7.543-1.353-9.928-4.408-1.89-2.426-2.232-6.516.527-8.469a5.112,5.112,0,0,1,1.638-.751q-2.838-2.752-5.66-5.531c.159.321.308.64.435.969a6.376,6.376,0,0,1-.878,6.341,5.565,5.565,0,0,1-5.531,1.953c-3.727-1.005-4.485-7.07-.489-8.242,1.3-.381,2.161,1.6.933,2.208a1.869,1.869,0,0,0,.966,3.5c3.069-.235,3.225-3.872,1.971-5.911-1.659-2.711-4.97-3.419-7.088-.8-1.772,2.186-1.462,5.486-.267,7.862,2.365,4.73,7.808,7.674,12.255,10.122a171.145,171.145,0,0,0,15.66,7.254c4.718,2,9.507,3.906,14.1,6.2-.966-1.07-1.89-2.206-2.768-3.381q-1.5-1.408-3-2.835c-.174-.161-.339-.319-.513-.48a.672.672,0,0,1-.222-.081c-1.946-1.13-3.822-2.413-5.828-3.431A23.784,23.784,0,0,0,1904.906,2612.538Z" fill="none"/>
          <path id="Path_289" data-name="Path 289" d="M1901.78,2559.752c-.817.023-1.708-.05-2.274.67a1.571,1.571,0,0,0-.025,1.933,2.17,2.17,0,0,0,2.886.036c1.106-.89,1.022-2.58.509-3.768a6.33,6.33,0,0,0-3.334-3c-3.136-1.428-6.719-1.442-9.9-2.791-.315-.138-.63-.276-.937-.43q4.131,3.924,8.249,7.887a3.773,3.773,0,0,1,1.167-1.786,3.418,3.418,0,0,1,4.112-.43A.906.906,0,0,1,1901.78,2559.752Z" fill="none"/>
          <path id="Path_290" data-name="Path 290" d="M1917.866,2580.844c.07.072.141.138.209.21q1.853,1.881,3.7,3.762a.589.589,0,0,1,.274-.27c1.412-.679,3.166-.62,4.671-1.057a7.133,7.133,0,0,0,3.63-2.208,14.591,14.591,0,0,1-3.1-4.73A11.345,11.345,0,0,1,1917.866,2580.844Z" fill="none"/>
          <path id="Path_291" data-name="Path 291" d="M1856.714,2704.928a1.545,1.545,0,0,0,.561.131h0A1.545,1.545,0,0,1,1856.714,2704.928Z" fill="#366fa3"/>
          <path id="Path_292" data-name="Path 292" d="M1877.733,2509.822c-1.557,1.283-3.137,2.639-4.714,4.053C1874.6,2512.461,1876.174,2511.1,1877.733,2509.822Z" fill="#366fa3"/>
          <path id="Path_293" data-name="Path 293" d="M1864.232,2696.206c-1.94-2.487-5.16-4.329-8.367-3.886a.053.053,0,0,1-.029.007v7.835c.117.016.24.036.364.065a4.265,4.265,0,0,1,2.041,1.146c1.154,1.122,1.177,2.3,1.388,3.686h2.14a5.97,5.97,0,0,0-1.416-4.671,6.77,6.77,0,0,0-2.216-1.828,5.833,5.833,0,0,0-1.344-.5,5.689,5.689,0,0,0-.616-.095c-.068-.007-.172-.023-.271-.043-.025-.016-.048-.029-.07-.045v-3.936c.006.009.018.009.029.009,2.6.743,5.067,1.537,6.719,3.841a10.219,10.219,0,0,1,1.589,3.548c.285,1.225-.127,2.573.276,3.716H1866c.693-1.093.428-2.9.261-4.08A9.86,9.86,0,0,0,1864.232,2696.206Z" fill="#366fa3"/>
          <path id="Path_294" data-name="Path 294" d="M1908.905,2502.958c.149.1.3.211.459.319" fill="none" stroke="#366fa3" stroke-linecap="round" stroke-linejoin="round"/>
          <path id="Path_295" data-name="Path 295" d="M1932.54,2555.534c-6.73-6.663-14.017-12.719-21.151-18.935q-11.253-9.818-22.243-19.947-4.641-4.263-9.243-8.586c.344-.269.682-.525,1.021-.794-.339.269-.677.525-1.023.794-.715.577-1.442,1.159-2.168,1.756.964.919,1.93,1.838,2.9,2.747,6.076,5.731,12.257,11.356,18.482,16.924,6.058,5.415,12.2,10.742,18.338,16.076a205.174,205.174,0,0,1,17.018,16.05c1.485,1.618,2.933,3.273,4.318,4.977,1.039,1.283,2.521,3.193,2.252,4.978-.26,1.7-2.44,2.033-3.712,1.225a1.687,1.687,0,0,1-.783-2.159.861.861,0,0,1,1.614.373c.186,1.077,1.8.765,1.835-.249a2.822,2.822,0,0,0-2.715-2.872,3.372,3.372,0,0,0-3.356,2.859c-.781,3.863,3.976,6.157,7.158,4.976a37.424,37.424,0,0,0,2.883-5.334,11.039,11.039,0,0,0-2.053-4.651A94.127,94.127,0,0,0,1932.54,2555.534Z" fill="#366fa3"/>
          <path id="Path_296" data-name="Path 296" d="M1886.247,2503.264c.787-.562,1.539-1.1,2.274-1.612C1887.786,2502.164,1887.032,2502.7,1886.247,2503.264Z" fill="#366fa3"/>
          <path id="Path_297" data-name="Path 297" d="M1945.1,2567.456q-.211.634-.451,1.267" fill="none" stroke="#366fa3" stroke-linecap="round" stroke-linejoin="round"/>
          <path id="Path_298" data-name="Path 298" d="M1946.915,2556.473a38.87,38.87,0,0,0-2.191-12.614,54.318,54.318,0,0,0-5.707-11.574q-.615-.963-1.261-1.9c.43.627.851,1.261,1.261,1.894-.048.729-.091,1.458-.079,2.173a8.418,8.418,0,0,0-3.422-.423c-.33-.059-.661-.1-.994-.152a3.654,3.654,0,0,0,.163-.817,11.485,11.485,0,0,0-.251-7.135h0c-.541-.677-1.088-1.34-1.65-1.99-1.629-1.917-3.319-3.731-5.021-5.445h0a11.676,11.676,0,0,0-3.223-.982,10.723,10.723,0,0,0-9.31,2.965,10.974,10.974,0,0,0-2.569,4.155,8.974,8.974,0,0,0-.448,1.946c-.8-.745-1.591-1.494-2.387-2.238a26.587,26.587,0,0,1,2.011-5.262,12.173,12.173,0,0,1,3.8-3.9,11.621,11.621,0,0,1,6.945-1.575c.966.86,1.951,1.765,2.935,2.7-.984-.932-1.969-1.837-2.935-2.7-.244-.211-.484-.43-.726-.641q-1.094-.95-2.184-1.858c-1-.83-1.992-1.624-2.974-2.4.982.781,1.976,1.575,2.974,2.4a12.049,12.049,0,0,0-6.66,2.981,14.709,14.709,0,0,0-3.268,4.614,16.13,16.13,0,0,0-1.467,4.2c-.833-.774-1.663-1.539-2.5-2.3a.839.839,0,0,0,.263-.285,12.592,12.592,0,0,0,.742-2.9,12.121,12.121,0,0,1,1.317-3.01,18.343,18.343,0,0,1,4.175-4.635,31.52,31.52,0,0,1,2.992-2.188h0c-1.371-1.048-2.72-2.048-4.021-2.98h-.005a2.083,2.083,0,0,1-2.114.708,3.1,3.1,0,0,1-2.077-1.611,2.16,2.16,0,0,1-.224-1.277,2.5,2.5,0,0,1,.287-.676c-.749-.5-1.471-.969-2.161-1.422a3.352,3.352,0,0,0-.358.575,5.022,5.022,0,0,0,1.652,5.977,5.669,5.669,0,0,0,4.013,1.254c-.358.312-.7.633-1.032.955a17.614,17.614,0,0,0-3.843,5.356,10.3,10.3,0,0,0-1.2,4.694q-4.12-3.76-8.289-7.464c-.281-.246-.564-.5-.847-.751a4.345,4.345,0,0,0,.736-.056c2.829-.41,4.951-3.04,6.038-5.518a12.366,12.366,0,0,0,.955-6.4c.443.279.907.568,1.389.876-.482-.308-.946-.6-1.389-.876-1.358-.844-2.549-1.552-3.526-2.12a8.291,8.291,0,0,1,.622,2.362,9.539,9.539,0,0,1-1.29,5.916c-1.025,1.713-3.039,3.827-5.094,2.347-2.005-1.449-2.014-4.97-.729-6.9.505-.758,1.381-1.451,2.311-.919,1.389.794.563,2.245-.448,2.908a1.111,1.111,0,0,0,.853,2.019c2.892-.387,3.775-4.1,2.1-6.21a4.014,4.014,0,0,0-2.01-1.363c-1.5.94-3.48,2.216-5.777,3.791h0a10.047,10.047,0,0,0-.141,5.422c-1.131-.977-2.26-1.962-3.394-2.93-.618.443-1.252.909-1.89,1.385q25.1,21.471,48.2,45.134c4.524,4.612,8.977,9.3,13.6,13.81a35.478,35.478,0,0,1-1.065,3.863,35.478,35.478,0,0,0,1.065-3.863q.218-1.026.372-2.055h0c-3.031-3.585-6.2-7.061-9.444-10.481a6.158,6.158,0,0,0,6.253-2.813,9.662,9.662,0,0,0,1.38-4.385,38.82,38.82,0,0,1,2.193,12.614c0,1.109-.061,2.209-.167,3.3C1946.854,2558.682,1946.915,2557.582,1946.915,2556.473Zm-22.6-31.09c.98.414,2.345,1.414,2.46,2.58.059.6-.3.853-.883.939a2.352,2.352,0,0,1-.9-.043l-.31-.088,0-.007c.749-.677.41-2.311-.79-2.157a2.257,2.257,0,0,0-1.62,3.542c.894,1.435,3.008,1.786,4.54,1.451a3.608,3.608,0,0,0,2.915-3.834,6.075,6.075,0,0,0-2.92-4.424c-3.227-2.128-7.873-1.415-9.742,2.156a5.664,5.664,0,0,0,.776,6.414c-1.19-1.136-2.385-2.281-3.585-3.417.46-.94.405-2.245.8-3.207a8.272,8.272,0,0,1,2.183-3.069,8.106,8.106,0,0,1,7.251-1.749,9.715,9.715,0,0,1,6.12,4.4,14.843,14.843,0,0,1,1.713,8.019,1.119,1.119,0,0,0,.172.647v.1c-1.881-.183-3.768-.285-5.651-.505-2.725-.3-7.213-.946-7.9-4.248C1918.278,2525.806,1921.951,2524.369,1924.316,2525.383Zm16.8,20.456c-.62,1.509-3.051,3.412-4.535,1.713a3.824,3.824,0,0,1-.462-3.424c.288-.869,1.48-2.3,1.833-.722a1.066,1.066,0,0,0,1.922.256c.83-1.225,0-2.807-1.2-3.42a3.531,3.531,0,0,0-4.2,1.2,6.686,6.686,0,0,0-1.12,5.766c-3.485-3.541-7.032-7.026-10.569-10.5-1.179-1.158-2.362-2.3-3.548-3.446a8.957,8.957,0,0,0,1.842,1.063,28.767,28.767,0,0,0,7.439,1.634,42.811,42.811,0,0,0,5.2.394.524.524,0,0,0,.17.072c1.206.385,2.534.234,3.768.591a5.791,5.791,0,0,1,2.991,1.878C1942.034,2540.643,1941.939,2543.85,1941.117,2545.839Z" fill="#366fa3"/>
          <path id="Path_299" data-name="Path 299" d="M1897.467,2495.807c.471.262,1.068.6,1.779,1.014-.711-.414-1.308-.752-1.779-1.014Z" fill="#366fa3"/>
          <path id="Path_300" data-name="Path 300" d="M1940,2577.352a6.988,6.988,0,0,0-.907,2.5A6.988,6.988,0,0,1,1940,2577.352Z" fill="#366fa3"/>
          <path id="Path_301" data-name="Path 301" d="M1848.444,2562.4c-.135-.779-.244-1.553-.328-2.331C1848.2,2560.845,1848.309,2561.619,1848.444,2562.4Z" fill="#366fa3"/>
          <path id="Path_302" data-name="Path 302" d="M1869.459,2517.184c-1.953,1.88-3.922,3.906-5.834,6.049,1.912-2.143,3.881-4.169,5.834-6.049a5.424,5.424,0,0,0,.734-.276c.463.4.932.794,1.4,1.2.591.5,1.177,1.014,1.765,1.523a7.269,7.269,0,0,0-2.86-.2c-4.447.611-6.3,5.291-5.6,9.292a9.053,9.053,0,0,0,.579,1.966c-1.3-1.158-2.609-2.294-3.933-3.424a.381.381,0,0,0,.244-.4c-.036-.5-.054-.978-.047-1.458-.65.765-1.29,1.553-1.917,2.347a74.484,74.484,0,0,0-5.006,7.172,73.835,73.835,0,0,1,5.01-7.172c1.874,1.937,3.793,3.847,5.735,5.721a12.056,12.056,0,0,1,3.048,5.1c.72,2.865.034,5.859-.411,8.717a31.024,31.024,0,0,0,1.031,14.394,49.111,49.111,0,0,0,6.495,12.673q-4.121-4.24-8.187-8.534c-6.086-6.427-11.9-13.119-18-19.524-.227.729-.43,1.464-.612,2.193h0q1.848,2.251,3.78,4.445a11.783,11.783,0,0,0-3.515,1.269,8.585,8.585,0,0,0-1.238.845c.014-.3.043-.591.068-.89-.025.3-.054.591-.068.89-.02.475-.034.941-.034,1.414,0,.312.009.627.019.939,0,.1.006.213.011.315a6.223,6.223,0,0,1,2.458-2.137,27.929,27.929,0,0,1,3.691-1.063q1.419,1.585,2.862,3.163a9.873,9.873,0,0,0-8.516,4.708c.186,1.05.421,2.084.7,3.12a.742.742,0,0,0,.091-.219,7.273,7.273,0,0,1,3.6-4.5,16.89,16.89,0,0,1,5.619-1.473q1.8,1.945,3.6,3.877a13.51,13.51,0,0,0-6.937,2.254,13.817,13.817,0,0,0-4.44,4.5h0c.29.691.607,1.376.944,2.055a15.722,15.722,0,0,1,4.693-4.861,14.892,14.892,0,0,1,3.929-1.778,30.121,30.121,0,0,1,3.279-.584c.066.065.123.124.181.19,1.014,1.093,2.037,2.172,3.062,3.265a16.2,16.2,0,0,0-6.8,2.938,18.687,18.687,0,0,0-3.655,3.4,15.526,15.526,0,0,0-1.7,2.435c-.028-.036-.057-.079-.084-.115.027.036.056.079.084.115a7.2,7.2,0,0,1,1.02,2.324c.826-1,1.41-2.192,2.243-3.2a17.549,17.549,0,0,1,3.352-3.164,23.632,23.632,0,0,1,7.031-3.155c2.688,2.843,5.406,5.647,8.14,8.453a11.447,11.447,0,0,0-5.119.853,7.055,7.055,0,0,0-3.589,2.7c-.143-.111-.283-.219-.43-.321a13.17,13.17,0,0,0-3.888-1.917,9.609,9.609,0,0,1,3.6-3.184,8.348,8.348,0,0,1,2.4-.708,19.282,19.282,0,0,0,2.607-.152.866.866,0,0,0,.2-1.568c-1.7-1.159-4.623-.254-6.284.584a8.1,8.1,0,0,0-4.257,4.65,9.94,9.94,0,0,0-2.073-.081,9.835,9.835,0,0,0-3.782,1.014,6.986,6.986,0,0,1,.048.823V2626.4a7.853,7.853,0,0,0,2.629,2.507,14.164,14.164,0,0,0-.819,5.151,20.78,20.78,0,0,0,.792,6.312,17.622,17.622,0,0,0,5.861,8.878c3.173,2.478,7.3,3.41,11.219,3.89,3.94.489,7.8-.263,10.808-2.958a14.854,14.854,0,0,0,3.266-4.614,16.448,16.448,0,0,0,1.471-4.205c.828.774,1.661,1.539,2.5,2.3a.8.8,0,0,0-.265.276,12.412,12.412,0,0,0-.74,2.9,12.132,12.132,0,0,1-1.322,3.017,18.4,18.4,0,0,1-4.171,4.634,34.176,34.176,0,0,1-5.707,3.775,11.114,11.114,0,0,1-6.672,1.182,27.016,27.016,0,0,1-12.487-4.241,15.3,15.3,0,0,1-4.121-4.25,27.708,27.708,0,0,1-2.238-5.292v6.059a18.7,18.7,0,0,0,2.306,3.075,21.543,21.543,0,0,0,9.708,5.853c.079.02.159.043.24.072.351.2.7.407,1.055.6-1.867,1.428-2.487,4.753-2.659,6.837a14.255,14.255,0,0,0,.674,5.619,32.493,32.493,0,0,0-4.076-.991c-2.016-.374-4.417-.781-5.619-2.655-1.258-1.937.561-3.926,2.6-4.008a2.219,2.219,0,0,1,2.5,1.494,1.11,1.11,0,0,1-1.783,1.175c-.786-.729-2.157.21-1.535,1.181a3.125,3.125,0,0,0,5.1.181c1.544-1.894.614-4.7-1.292-5.925a5.979,5.979,0,0,0-7.221.824V2687.3a12.655,12.655,0,0,1,6.327,1.129,17.372,17.372,0,0,1,5.257,4.424,12.053,12.053,0,0,1,3.078,6.647,10.58,10.58,0,0,1-.308,3.7,14.345,14.345,0,0,0-.611,1.865h2.582c1.431-5.049-.522-10.123-3.865-14.006a17.348,17.348,0,0,0-5.836-4.752,11.586,11.586,0,0,0-6.624-1.028V2680a1.009,1.009,0,0,0,.676.516,29.043,29.043,0,0,1,16.19,8.264,22.809,22.809,0,0,1,4.877,8.206,24.394,24.394,0,0,1,1.041,4.323c.168,1.181-.054,2.55.147,3.745h2.164a13.1,13.1,0,0,0-.227-4.021,23.228,23.228,0,0,0-1.142-4.805,26.71,26.71,0,0,0-5.095-8.642,28.485,28.485,0,0,0-17.335-9.322,1.25,1.25,0,0,0-1.3.511v-5.94c2.946,3.039,8.434,2.763,12.22,4.168a25.527,25.527,0,0,1,11.144,8.469,25.9,25.9,0,0,1,3.91,7.106,26.32,26.32,0,0,1,1.023,3.732c.07.357.122.722.165,1.079a6.442,6.442,0,0,0,.505,3.9,6.279,6.279,0,0,0,3.161,3.223c2.68,1.158,6.278.151,7.315-2.754,1.013-2.852-.471-7.851-3.777-8.5-4.006-.788-4.875,5.866-1.281,6.7a.911.911,0,0,0,1.106-1.116c-.181-.663-1.253-2.192-.645-2.862.659-.729,1.494.479,1.736.968.747,1.5,1.31,4.031-.373,5.11a3.429,3.429,0,0,1-4.191-.554,4.931,4.931,0,0,1-.836-1.138,13.559,13.559,0,0,0-.477-5.443,27.77,27.77,0,0,0-1.462-4.461,11.2,11.2,0,0,0,1.933.059,8.97,8.97,0,0,0,4.58-1.355,8.207,8.207,0,0,0,3.094-4.1,39.386,39.386,0,0,1,3.752,18.423,1.047,1.047,0,0,0,0,.168,4.365,4.365,0,0,0-.011,1.405h1.733a5.816,5.816,0,0,0,.238-1.72l0-.043a37.834,37.834,0,0,0-5.343-21.863,52.486,52.486,0,0,0-14.248-15.6.739.739,0,0,0-.561-.561,2.315,2.315,0,0,0-.322-.073c-.115-.088-.233-.174-.353-.255-1.373-.969-2.815-1.931-4.306-2.82a13.4,13.4,0,0,0,4.906-.577,22.447,22.447,0,0,0,4.737-2.288,7.414,7.414,0,0,0-.614,2.6c-.3,5.334,4.277,8.315,8.131,11.012a24.1,24.1,0,0,1,9.1,12.637c2.014,6.326,1.827,13.06.8,19.553h2.471c1.308-8.679,1.1-17.7-3.084-25.631a26.6,26.6,0,0,0-8.184-9.2c-2.858-2.071-6.735-4.438-6.289-8.514.17-1.537,1.216-3.132,2.963-2.761a3.13,3.13,0,0,1,2.084,1.618,2.183,2.183,0,0,1,.224,1.274c-.045.272-.613,1.6-1.086.964-.826-1.079-2.58-.16-1.876,1.1,1.244,2.229,4.2,1.507,5.189-.547a5,5,0,0,0-1.648-5.968,5.643,5.643,0,0,0-4.014-1.254c.355-.321.7-.643,1.027-.962a17.62,17.62,0,0,0,3.847-5.356,10.343,10.343,0,0,0,1.206-4.694q4.115,3.762,8.288,7.47c.28.247.566.5.846.743-.24.007-.482.029-.738.059-2.828.407-4.951,3.046-6.035,5.517a12.241,12.241,0,0,0-.611,8.133c.817,2.922,2.835,5.233,4.913,7.346a31.858,31.858,0,0,1,5.621,7.011,25.077,25.077,0,0,1,2.888,9.5,30.617,30.617,0,0,1-1.027,9.869,1.026,1.026,0,0,0-.009.423l-.032.057c-.837,1.224-1.86,2.471-2.6,3.8h3.392c.573-.808,1.1-1.645,1.625-2.39q1.785-2.524,3.517-5.071c2.193-3.23,4.272-6.531,6.314-9.854a19.58,19.58,0,0,0,2.9,2.048c-1.05.6-1.761,2.062-2.406,2.981q-1.422,2.01-2.794,4.06c-.915,1.369-1.8,2.747-2.669,4.146a20.019,20.019,0,0,0-2.222,4.08h2.469c.631-.844,1.161-1.776,1.729-2.652.9-1.376,1.8-2.754,2.714-4.117.864-1.312,1.747-2.6,2.643-3.885.715-1.035,2.147-2.42,2.206-3.762a13.462,13.462,0,0,0,4.479,1.159c-1.338,1.933-2.6,3.922-3.9,5.868-1.591,2.37-3.562,4.78-4.742,7.389h2.537c1.505-1.871,2.75-4.067,4.065-6.011,1.681-2.5,3.462-4.956,5.051-7.515a8.414,8.414,0,0,0,2.643-1.209,10.039,10.039,0,0,0,2.786-3.016v2.944a26.016,26.016,0,0,0-1.661,3.075q-1.222,2.3-2.571,4.518-1.29,2.121-2.65,4.2c-.638.977-1.464,1.952-2.023,3.016h2.944c.385-.523.745-1.07,1.1-1.566,1.018-1.414,1.971-2.849,2.879-4.336q1.024-1.674,1.982-3.39v7.8a1.5,1.5,0,0,1-1.016,1.408,1.494,1.494,0,0,0,1.016-1.408v-20.725a.026.026,0,0,1-.007.021,19.494,19.494,0,0,1-1.1,2.369,8.556,8.556,0,0,1-3.666,3.725c-4.071,1.894-9.262-1.021-12.141-3.843a14.229,14.229,0,0,1-4.119-9.525,15.17,15.17,0,0,1,.643-5.167,47.185,47.185,0,0,1,1.976-4.388.994.994,0,0,0,.072-1.618c-18.8-15.726-36.721-32.445-53.877-49.943-3.655-3.723-7.26-7.491-10.946-11.18v-7.7a11.726,11.726,0,0,0,1.588,2.915,95.1,95.1,0,0,0,9.369,10.211c6.728,6.654,14.018,12.719,21.146,18.935q11.261,9.817,22.251,19.94,6.2,5.717,12.341,11.5,2.976,2.808,5.942,5.64c1.526,1.457,3.01,2.98,4.585,4.394,1.333,1.852,3.128,3.463,3.56,5.81a5.1,5.1,0,0,1-.817,3.591c-.647,1.145-.959,1.75-2.363,1.553-2.147-.3-4.514-2.069-4.7-4.386-.075-.912.4-2.225,1.485-2.3a1.05,1.05,0,0,1,1.023.577c.2.516-.267.713-.519,1.143a1.1,1.1,0,0,0,.383,1.466l.208.159a1.3,1.3,0,0,0,1.342,0c3.008-1.734.806-6.011-2.127-6.181-3.451-.194-5.262,3.587-4.44,6.545a8.433,8.433,0,0,0,7.16,5.78,4.128,4.128,0,0,0,3.96-1.356,12.251,12.251,0,0,0,1.788-3.213V2655.69c-.91-.794-1.847-1.55-2.777-2.308a7.3,7.3,0,0,0,2.042-1.349,7.889,7.889,0,0,0,.735-.8v-12.85a5.085,5.085,0,0,0-.213-.547c.046.045.091.081.134.117a.345.345,0,0,0,.079.059v-2.041c-5.4-5.524-11.087-10.756-16.715-16.063-1.881-2.748-3.84-5.459-5.472-8.374a37.828,37.828,0,0,1-5.137-15.151c-.446-5.3,1.165-10.618.018-15.88a19.872,19.872,0,0,0-1.41-4.082q10.914,10.856,21.517,22.01c2.431,2.564,4.821,5.174,7.2,7.8v-15.64c-.292.24-.595.473-.907.692a23.775,23.775,0,0,1-7.027,3.162q-4.037-4.265-8.145-8.446a11.68,11.68,0,0,0,5.121-.867,7.043,7.043,0,0,0,3.59-2.7c.14.108.282.219.427.321a13.18,13.18,0,0,0,3.884,1.908,9.58,9.58,0,0,1-3.59,3.193,8.3,8.3,0,0,1-2.4.7,22.3,22.3,0,0,0-2.6.154.872.872,0,0,0-.208,1.573c1.7,1.152,4.628.256,6.284-.588a8.1,8.1,0,0,0,4.26-4.644,11.178,11.178,0,0,0,1.312.1v-2.282a10.815,10.815,0,0,1-5.956-2.163c-4.307-3.141-5.171-8.294-3.58-13.133.341-1.05-.6-1.618-1.428-1.437-8.224-8.468-17.1-16.346-25.847-24.269q-13.561-12.274-27.433-24.21c-1.014-.874-2.025-1.734-3.044-2.6.437-.4.874-.795,1.306-1.182-.432.387-.869.779-1.306,1.182C1870.969,2515.74,1870.215,2516.455,1869.459,2517.184Zm21.049,162.25a7.908,7.908,0,0,0,.19-1.054,42.786,42.786,0,0,1,2.533,3.906,12.118,12.118,0,0,1-.854,2.754,6.151,6.151,0,0,1-2.491,2.324,7.378,7.378,0,0,1-3.479.795,14.529,14.529,0,0,0-2.5-.168,29.666,29.666,0,0,0-3.093-4.693,6.912,6.912,0,0,0,6.056.314A6.28,6.28,0,0,0,1890.508,2679.434Zm-5.01-7.047q1.387,1.359,2.668,2.822a26.871,26.871,0,0,0,.084,2.7,4.2,4.2,0,0,1-1.408,2.74,4.353,4.353,0,0,1-5.988-.64c-1.093-1.342-1.971-4.92.31-5.626a2.67,2.67,0,0,1,2.485.6c.369.328.921,1.086.654,1.618-.1.2-.279.2-.437.328l-.038-.009a.828.828,0,0,0-.711-1.245c-1.6-.036-2.021,1.872-1.095,2.945,1.081,1.26,3.071.88,4.1-.233,1.335-1.444.812-3.66-.364-5.015a5.309,5.309,0,0,0-4.35-1.756c-4.139.3-5.114,5.071-3.691,8.314.02.039.043.082.063.125-.71-.657-1.448-1.268-2.217-1.852a.9.9,0,0,0-.125-.384,8.867,8.867,0,0,1-1.444-3.479,6.887,6.887,0,0,1,.546-3.44c.95-2.15,2.679-2.935,4.634-3.657A50.111,50.111,0,0,1,1885.5,2672.387Zm-8.756-6.762a9.017,9.017,0,0,0-4.3,4.228,8.784,8.784,0,0,0-.218,6.18q-1.164-.658-2.38-1.2a8.915,8.915,0,0,1-1.048-2.114,11.368,11.368,0,0,1-.473-3.817c.079-1.976.588-5.38,2.426-6.676C1872.768,2663.321,1874.793,2664.394,1876.742,2665.625Zm33.24,14.758a6.543,6.543,0,0,0,1.878-2.331q1.32-1.994,2.661-3.958c.417-.62.838-1.241,1.252-1.858-.052.378-.095.749-.134,1.1a17.255,17.255,0,0,0,.5,6.072c-1.1.589-1.756,2.18-2.413,3.141-.586.86-1.231,1.675-1.858,2.506A26.3,26.3,0,0,0,1909.982,2680.383Zm9.432,5.284-.065.088c-2.123,3.431-4.327,6.814-6.543,10.2a29.411,29.411,0,0,0-.176-7.477c-.039-.256-.082-.518-.127-.765a22.575,22.575,0,0,0,3.17-3.761,20.46,20.46,0,0,0,1.372-1.976c.136.306.278.6.432.9A15.327,15.327,0,0,0,1919.414,2685.667Zm-1.226-20.347-.005.007a14.2,14.2,0,0,0-2.842,3.184c-.948,1.276-1.863,2.58-2.748,3.9q-1.262,1.881-2.505,3.775c-.385.59-.984,1.29-1.374,2.025-.441-.683-.916-1.346-1.414-1.98-.3-.38-.618-.745-.95-1.116a1.26,1.26,0,0,0,.26-.19,20.613,20.613,0,0,0,2.3-3.338c.774-1.181,1.572-2.34,2.369-3.5.751-1.1,1.512-2.186,2.229-3.3.482-.749.917-1.514,1.344-2.279Q1916.518,2663.916,1918.188,2665.32Zm-12.336-8.507c2,1.45,2.009,4.963.728,6.9-.509.765-1.382,1.451-2.315.919-1.387-.794-.561-2.245.451-2.9a1.115,1.115,0,0,0-.856-2.026c-2.89.394-3.772,4.11-2.095,6.208a4.168,4.168,0,0,0,6.517-.086,9.021,9.021,0,0,0,1.412-7.755q1.935,1.683,3.884,3.344a22.947,22.947,0,0,0-1.743,1.8c-.932,1.086-1.79,2.245-2.625,3.4-.815,1.143-1.593,2.324-2.36,3.5a19.636,19.636,0,0,0-2.012,3.411c-2.424-2.458-4.988-4.95-5.373-8.455a9.542,9.542,0,0,1,1.288-5.911C1901.778,2657.449,1903.8,2655.326,1905.852,2656.813Zm-18.729-19.123q1.188,1.116,2.385,2.231a26.493,26.493,0,0,1-2.012,5.262,12.155,12.155,0,0,1-3.795,3.9c-3.931,2.5-9.166,1.625-13.386.349a13.9,13.9,0,0,1-8.532-7.7,18.825,18.825,0,0,1-1.552-6.552c-.12-1.756.2-3.6.162-5.377a8.32,8.32,0,0,0,3.424.43c.331.05.661.1.994.145a3.911,3.911,0,0,0-.165.817c-2.039,6.9,3.1,14.5,10.145,15.559a10.726,10.726,0,0,0,9.31-2.974,10.908,10.908,0,0,0,2.569-4.146A9.131,9.131,0,0,0,1887.123,2637.69Zm-12.108,1.188c-.978-.416-2.344-1.421-2.46-2.58-.059-.6.3-.853.885-.948a2.525,2.525,0,0,1,.9.045l.312.086,0,.009c-.746.684-.409,2.309.788,2.164a2.261,2.261,0,0,0,1.62-3.549c-.889-1.43-3.005-1.779-4.539-1.45a3.6,3.6,0,0,0-2.911,3.84,6.034,6.034,0,0,0,2.917,4.415c3.23,2.137,7.876,1.415,9.743-2.156a5.676,5.676,0,0,0-.774-6.414c1.188,1.145,2.385,2.281,3.58,3.426-.455.933-.405,2.238-.788,3.207a8.376,8.376,0,0,1-2.183,3.069,8.11,8.11,0,0,1-7.256,1.74,9.7,9.7,0,0,1-6.121-4.4,14.839,14.839,0,0,1-1.709-8.022,1.122,1.122,0,0,0-.172-.634l0-.118c1.878.184,3.77.292,5.653.5,2.72.307,7.21.955,7.905,4.25C1881.055,2638.455,1877.382,2639.883,1875.015,2638.878Zm-11.8-18.745c-.285.86-1.473,2.3-1.829.722a1.065,1.065,0,0,0-1.923-.256c-.831,1.225-.005,2.8,1.2,3.42a3.521,3.521,0,0,0,4.2-1.2,6.683,6.683,0,0,0,1.123-5.764c3.483,3.548,7.029,7.033,10.566,10.5q1.773,1.723,3.551,3.446a8.687,8.687,0,0,0-1.844-1.063,29.073,29.073,0,0,0-7.439-1.641,45.893,45.893,0,0,0-5.2-.394,1.4,1.4,0,0,0-.17-.072c-1.209-.381-2.533-.233-3.768-.584a5.8,5.8,0,0,1-2.994-1.881c-1.385-1.756-1.29-4.963-.471-6.952.622-1.5,3.055-3.41,4.538-1.7A3.812,3.812,0,0,1,1863.211,2620.133Zm-.962-6.939a6.183,6.183,0,0,0-6.259,2.823c-.053.079-.1.167-.154.253v-10.041C1857.922,2608.589,1860.07,2610.907,1862.249,2613.194ZM1939,2602.92c-.575-.62-1.154-1.24-1.731-1.86a10.724,10.724,0,0,0,1.731-.152Zm0-9.591v5.581a30.333,30.333,0,0,1-3.2.57c-.057-.065-.116-.131-.179-.2-1.012-1.086-2.035-2.172-3.055-3.258A15.984,15.984,0,0,0,1939,2593.329Zm-66.382-12.558c1.5-.436,3.256-.38,4.666-1.063a.59.59,0,0,0,.278-.263q1.844,1.881,3.694,3.752c.072.073.14.139.21.213a11.343,11.343,0,0,0-9.383,4.3,14.562,14.562,0,0,0-3.1-4.73A7.076,7.076,0,0,1,1872.619,2580.771Zm5.927,21.158q-2.977-2.757-6.011-5.431a12.31,12.31,0,0,0,.321-6.237,14.137,14.137,0,0,1,4.332-3.784,14.566,14.566,0,0,1,5.725-1.609q2.3,2.3,4.612,4.6c-.135-.066-.276-.131-.416-.19a6.6,6.6,0,0,0-6.8,1.3C1877.054,2593.408,1876.939,2598.145,1878.546,2601.929ZM1939,2658.788v14.541a10.929,10.929,0,0,0-2.27-3.719,1.344,1.344,0,0,0-.283-.574,111.889,111.889,0,0,0-8.853-8.869q-4.419-4.265-8.894-8.478c-6.076-5.734-12.256-11.354-18.48-16.921-6.06-5.422-12.2-10.742-18.337-16.077a206.2,206.2,0,0,1-17.019-16.056c-1.482-1.618-2.933-3.266-4.315-4.97-1.039-1.283-2.524-3.2-2.252-4.978.258-1.705,2.435-2.042,3.707-1.225a1.675,1.675,0,0,1,.783,2.157.859.859,0,0,1-1.609-.378c-.19-1.079-1.8-.758-1.84.247a2.83,2.83,0,0,0,2.718,2.878,3.361,3.361,0,0,0,3.354-2.856c.8-3.965-4.207-6.266-7.385-4.9a4.415,4.415,0,0,0-2.19,1.887v-7.71a6.421,6.421,0,0,1,4.252-1.407,10.765,10.765,0,0,1,6.2,2.172c4.309,3.134,5.171,8.294,3.58,13.133-.344,1.05.6,1.618,1.428,1.428,8.224,8.477,17.1,16.355,25.846,24.269q13.566,12.288,27.431,24.219,3.843,3.29,7.7,6.552C1934.489,2655.036,1936.659,2657.055,1939,2658.788Zm0-16.776v5.975a.8.8,0,0,0-.095.088c-.715.765-1.143,1.727-1.917,2.471a8.359,8.359,0,0,1-2.29,1.566l-.009-.013c-1.177-1-2.351-2.012-3.528-3.017a10.622,10.622,0,0,0,6.194-3.747A9.7,9.7,0,0,0,1939,2642.012Zm-4.562-6.486a9.29,9.29,0,0,0-.58-1.962c1.3,1.152,2.61,2.3,3.931,3.42a.386.386,0,0,0-.242.407c.2,2.6-.117,5.081-2.093,6.975a10.03,10.03,0,0,1-3.18,2.055c-1.009.4-2.156.466-3.134.925-.466-.393-.932-.794-1.4-1.194-.59-.5-1.179-1.021-1.767-1.524a7.39,7.39,0,0,0,2.865.2C1933.28,2644.212,1935.136,2639.528,1934.439,2635.526Zm-2.281,1.383c-.03,1.89-.874,4.207-2.832,4.861-2.7.905-5.743-1.464-7.377-3.388-1.258-1.473-2.793-4.7-.17-5.7a3.041,3.041,0,0,1,2.58.167,1.864,1.864,0,0,1,.806.919,1.193,1.193,0,0,1,.077.749c-.082.27-.329.016-.134.27-1.007-1.326-3.277-.109-2.3,1.342a2.841,2.841,0,0,0,5.015-.65,4.483,4.483,0,0,0-2.494-5.363,5.52,5.52,0,0,0-7.923,5.9,7.462,7.462,0,0,0,.451,1.552c-1.3-1.136-2.617-2.281-3.92-3.424q-12.129-10.682-24.009-21.653c.679.394,1.365.772,2.037,1.145a145.533,145.533,0,0,0,15.432,7.048c5.182,2.091,10.376,4.146,15.391,6.637C1926.568,2629.185,1932.225,2631.933,1932.158,2636.909Zm-15.113-18.853a.672.672,0,0,0,.222.081c.174.161.339.319.513.48q1.5,1.422,3,2.835c.878,1.175,1.8,2.311,2.768,3.381-4.592-2.294-9.381-4.2-14.1-6.2a171.145,171.145,0,0,1-15.66-7.254c-4.447-2.448-9.89-5.392-12.255-10.122-1.2-2.376-1.505-5.676.267-7.862,2.118-2.618,5.429-1.91,7.088.8,1.254,2.039,1.1,5.676-1.971,5.911a1.869,1.869,0,0,1-.966-3.5c1.228-.613.371-2.589-.933-2.208-4,1.172-3.238,7.237.489,8.242a5.565,5.565,0,0,0,5.531-1.953,6.376,6.376,0,0,0,.878-6.341c-.127-.329-.276-.648-.435-.969q2.821,2.777,5.66,5.531a5.112,5.112,0,0,0-1.638.751c-2.759,1.953-2.417,6.043-.527,8.469,2.385,3.055,6.359,3.7,9.928,4.408a23.784,23.784,0,0,1,6.311,2.087C1913.223,2615.643,1915.1,2616.926,1917.045,2618.056Zm-19.947-11.873a3.416,3.416,0,0,0,4.112-.43,3.763,3.763,0,0,0,1.163-1.785q4.122,3.958,8.256,7.88c-.312-.147-.622-.292-.939-.423-3.184-1.356-6.762-1.363-9.9-2.8a6.3,6.3,0,0,1-3.331-2.994c-.512-1.188-.6-2.872.507-3.761a2.166,2.166,0,0,1,2.885.036,1.573,1.573,0,0,1-.022,1.931c-.568.722-1.456.642-2.277.663A.911.911,0,0,0,1897.1,2606.183Zm18.383,7.041c.109.183.213.371.319.554q-6.233-5.913-12.415-11.885l-1.573-1.532a3.65,3.65,0,0,0-.869-.838q-6.87-6.679-13.653-13.44a.882.882,0,0,0-.113-.24c-2.985-4.3-6.918-7.93-9.933-12.25a42.006,42.006,0,0,1-6.9-15.226,27.374,27.374,0,0,1-.514-8.373c.247-2.58.856-5.124.973-7.717a12.666,12.666,0,0,0-.5-4.271c2.435,2.3,4.886,4.583,7.323,6.88q9.21,8.689,18.326,17.482c.523.505,1.051,1.014,1.573,1.523a3.612,3.612,0,0,0,.872.847q3.653,3.553,7.287,7.126c2.439,3.725,4.542,7.6,4.582,12.246.043,5.275-1.079,10.29-.079,15.574A44.293,44.293,0,0,0,1915.481,2613.224Zm-13.246-55.147a3.418,3.418,0,0,0-4.112.43,3.773,3.773,0,0,0-1.167,1.786q-4.115-3.958-8.249-7.887c.307.154.622.292.937.43,3.179,1.349,6.762,1.363,9.9,2.791a6.33,6.33,0,0,1,3.334,3c.513,1.188.6,2.878-.509,3.768a2.17,2.17,0,0,1-2.886-.036,1.571,1.571,0,0,1,.025-1.933c.566-.72,1.457-.647,2.274-.67A.906.906,0,0,0,1902.235,2558.077Zm28.112,23.2a7.133,7.133,0,0,1-3.63,2.208c-1.505.437-3.259.378-4.671,1.057a.589.589,0,0,0-.274.27q-1.846-1.881-3.7-3.762c-.068-.072-.139-.138-.209-.21a11.345,11.345,0,0,0,9.383-4.293A14.591,14.591,0,0,0,1930.347,2581.281Zm-9.557-18.949q2.974,2.747,6.009,5.429a12.236,12.236,0,0,0-.322,6.239,14.282,14.282,0,0,1-4.331,3.782,14.559,14.559,0,0,1-5.73,1.611q-2.3-2.3-4.61-4.612a3.086,3.086,0,0,0,.421.188,6.6,6.6,0,0,0,6.8-1.29C1922.282,2570.846,1922.392,2566.107,1920.79,2562.332Zm-2.989.663c1.192,2.383,1.5,5.678-.27,7.864-2.116,2.616-5.431,1.917-7.088-.794-1.253-2.048-1.095-5.685,1.972-5.911a1.866,1.866,0,0,1,.968,3.492c-1.233.611-.371,2.593.928,2.208,4-1.174,3.243-7.237-.487-8.244a5.57,5.57,0,0,0-5.53,1.962,6.37,6.37,0,0,0-.879,6.339,9.222,9.222,0,0,0,.437.964q-2.825-2.777-5.666-5.533a4.871,4.871,0,0,0,1.638-.742c2.765-1.962,2.426-6.043.532-8.469-2.385-3.062-6.359-3.711-9.924-4.417a23.747,23.747,0,0,1-6.316-2.078c-2.007-1.02-3.881-2.3-5.827-3.433a.565.565,0,0,0-.224-.079c-.172-.161-.344-.328-.51-.489-2.527-2.376-5.044-4.766-7.576-7.142.054.029.108.059.16.081,5.083,2.682,10.458,4.816,15.742,7.054a171.626,171.626,0,0,1,15.663,7.251C1909.993,2555.328,1915.434,2558.272,1917.8,2563Zm-40.416-37.123c1.256,1.478,2.79,4.707.169,5.7a3.073,3.073,0,0,1-2.58-.168,1.889,1.889,0,0,1-.8-.918,1.175,1.175,0,0,1-.081-.749c.083-.272.328-.016.135-.272,1.005,1.319,3.275.1,2.3-1.34a2.838,2.838,0,0,0-5.015.65,4.475,4.475,0,0,0,2.494,5.356,5.52,5.52,0,0,0,7.926-5.89,7.327,7.327,0,0,0-.455-1.56c1.31,1.146,2.616,2.282,3.917,3.433q12.129,10.68,24.016,21.647c-.684-.387-1.367-.765-2.039-1.139a144.4,144.4,0,0,0-15.432-7.047c-5.185-2.091-10.376-4.152-15.389-6.64-3.777-1.871-9.439-4.619-9.367-9.59.027-1.9.869-4.205,2.827-4.868C1872.7,2521.579,1875.751,2523.946,1877.385,2525.872Z" fill="#366fa3"/>
        </g>
      </g>
    </g>
  </g>
</svg>
