<?xml version="1.0" encoding="UTF-8" standalone="no"?>
<svg
   width="279.84601"
   height="201.84599"
   viewBox="0 0 279.846 201.84598"
   version="1.1"
   id="svg1"
   sodipodi:docname="quran_dark.svg"
   inkscape:version="1.4.2 (f4327f4, 2025-05-13)"
   xmlns:inkscape="http://www.inkscape.org/namespaces/inkscape"
   xmlns:sodipodi="http://sodipodi.sourceforge.net/DTD/sodipodi-0.dtd"
   xmlns="http://www.w3.org/2000/svg"
   xmlns:svg="http://www.w3.org/2000/svg">
  <defs
     id="defs1" />
  <sodipodi:namedview
     id="namedview1"
     pagecolor="#505050"
     bordercolor="#eeeeee"
     borderopacity="1"
     inkscape:showpageshadow="0"
     inkscape:pageopacity="0"
     inkscape:pagecheckerboard="0"
     inkscape:deskcolor="#505050"
     inkscape:zoom="2.3334262"
     inkscape:cx="140.13728"
     inkscape:cy="139.49445"
     inkscape:window-width="1708"
     inkscape:window-height="871"
     inkscape:window-x="2391"
     inkscape:window-y="146"
     inkscape:window-maximized="1"
     inkscape:current-layer="svg1" />
  <g
     id="Group_18"
     data-name="Group 18"
     transform="translate(-1763.332,-755.559)">
    <circle
       id="Ellipse_11"
       data-name="Ellipse 11"
       cx="139.923"
       cy="139.923"
       r="139.923"
       transform="translate(1763.332,713.559)"
       fill="#ffffff"
       style="display:none" />
    <path
       id="Path_80"
       data-name="Path 80"
       d="m 1997.323,898.409 h 7.765 a 1.8,1.8 0 0 0 0.195,0 h 0.167 a 5.13,5.13 0 0 0 2.774,-9.323 l -46.665,-32.986 18.706,-13.223 38.2,-27 a 5.132,5.132 0 0 0 -3.825,-9.253 l 0.01,-0.007 h -27.667 l 21.239,-15.014 a 5.131,5.131 0 0 0 -3.825,-9.251 l 0.01,-0.007 h -66.781 a 4.556,4.556 0 0 0 -0.848,-0.072 5.118,5.118 0 0 0 -2.956,0.941 l -16.744,11.838 a 0.138,0.138 0 0 1 -0.024,0.012 l 0.024,-0.018 a 68.458,68.458 0 0 1 -14.347,4.81 35.434,35.434 0 0 0 -5.15,1.543 35.4,35.4 0 0 0 -5.145,-1.543 c -19.417,-4.237 -29.053,-14.665 -29.053,-14.665 h -2.137 l -2.806,-1.977 a 5.068,5.068 0 0 0 -3.165,-0.934 h -68.057 a 5.137,5.137 0 0 0 -3.181,9.323 l 21.147,14.949 h -7.722 a 5.137,5.137 0 0 0 -3.179,9.325 l 46.664,32.985 -56.9,40.224 a 5.132,5.132 0 0 0 3.233,9.323 h 28.155 l -21.142,14.948 a 5.133,5.133 0 0 0 3.231,9.326 h 67.97 a 5.134,5.134 0 0 0 3.2,-0.936 l 28.657,-20.251 h 0.01 l 9.027,-6.383 37.692,26.634 a 5.1,5.1 0 0 0 3.224,0.936 h 68.043 a 1.807,1.807 0 0 0 0.2,0 h 0.167 a 5.132,5.132 0 0 0 2.774,-9.326 z"
       fill="#dddddd" />
    <g
       id="Group_17"
       data-name="Group 17">
      <path
         id="Path_81"
         data-name="Path 81"
         d="m 2010.224,890.086 -49.972,-35.323 -18.982,-13.418 30.749,-21.736 38.2,-27.006 a 5.131,5.131 0 0 0 -3.825,-9.251 l 0.01,-0.007 h -66.781 a 4.556,4.556 0 0 0 -0.848,-0.072 5.118,5.118 0 0 0 -2.956,0.941 l -16.744,11.838 a 68.819,68.819 0 0 1 -14.347,4.8 35.434,35.434 0 0 0 -5.15,1.543 35.4,35.4 0 0 0 -5.145,-1.543 c -19.417,-4.237 -29.053,-14.665 -29.053,-14.665 h -2.137 l -2.806,-1.977 a 5.068,5.068 0 0 0 -3.165,-0.934 h -68.057 a 5.137,5.137 0 0 0 -3.181,9.323 l 68.954,48.742 -68.947,48.741 a 5.132,5.132 0 0 0 3.233,9.323 h 67.968 a 5.1,5.1 0 0 0 3.195,-0.934 l 28.657,-20.251 h 0.01 l 9.029,-6.383 37.69,26.634 a 5.083,5.083 0 0 0 3.224,0.934 h 68.043 a 1.8,1.8 0 0 0 0.195,0 h 0.167 a 5.13,5.13 0 0 0 2.774,-9.323"
         fill="#f09c44" />
      <path
         id="Path_82"
         data-name="Path 82"
         d="m 1904.73,800.856 a 35.434,35.434 0 0 0 -5.15,1.543 35.4,35.4 0 0 0 -5.145,-1.543 c -19.417,-4.237 -29.053,-14.665 -29.053,-14.665 h -52.356 l -4.057,3.929 a 1.393,1.393 0 1 0 -1.609,2.274 l 58.441,41.314 1.217,-0.864 1.2,-0.845 3.948,-2.79 1.377,-0.972 19.4,-13.709 5.042,-3.57 0.153,-0.1 7.659,-5.42 13.287,-9.385 a 68.819,68.819 0 0 1 -14.347,4.8"
         fill="#fddcb1" />
      <path
         id="Path_83"
         data-name="Path 83"
         d="m 1823.262,876.355 c 0.936,-0.327 47.286,-16.541 65.834,1.869 h 0.01 l 9.029,-6.383 -34.236,-24.2 z"
         fill="#e08c34" />
      <path
         id="Path_84"
         data-name="Path 84"
         d="m 1971.868,819.651 a 1.5,1.5 0 0 1 0.151,-0.042 l 38.2,-27.006 h -68.468 l -27.351,19.331 -3.377,2.392 v 0 l -0.078,0.052 -3.886,2.789 -5.071,3.643 -11.76,8.448 -16.822,12.087 h -0.61 l 34.236,24.2 26.7,18.874 0.014,0.007 v -0.007 c -4.732,-16.809 26.5,-29.655 26.5,-29.655 l -18.982,-13.418 30.749,-21.736 a 1.5,1.5 0 0 0 -0.145,0.041 z"
         fill="#e08c34" />
      <path
         id="Path_85"
         data-name="Path 85"
         d="m 1926.851,823.969 c -0.846,-0.122 -1.681,-0.275 -2.484,-0.448 -6.421,-1.348 -11.447,-4.137 -13.34,-9.2 l -0.078,0.052 -3.886,2.789 -5.071,3.643 -11.76,8.448 -16.822,12.087 h 67.86 l 30.749,-21.736 a 178.6,178.6 0 0 1 -27.453,4.63 80.388,80.388 0 0 1 -17.715,-0.27"
         fill="#d68228" />
      <path
         id="Path_86"
         data-name="Path 86"
         d="m 1942.98,897.242 a 5.13,5.13 0 0 0 -1.224,-7.156 l -8.021,-5.668 -26.7,-18.874 -34.236,-24.2 17.121,-12.1 12.006,-8.484 5.109,-3.616 3.9,-2.767 0.087,-0.052 3.377,-2.392 27.352,-19.331 a 5.136,5.136 0 0 0 -2.131,-9.258 4.556,4.556 0 0 0 -0.848,-0.072 5.118,5.118 0 0 0 -2.956,0.941 l -16.744,11.838 -13.287,9.385 -7.659,5.42 -0.153,0.1 -5.042,3.57 -19.4,13.709 -1.377,0.972 -3.948,2.79 -1.2,0.845 -1.224,0.864 -1.341,0.95 -0.558,0.389 -71.924,-50.833 a 5.138082,5.138082 0 0 0 -5.935,8.389 l 68.954,48.742 -68.947,48.741 a 5.132,5.132 0 0 0 3.233,9.323 5.085,5.085 0 0 0 2.695,-0.934 l 31.291,-22.12 40.633,-28.713 34.236,24.2 37.69,26.634 a 5.137,5.137 0 0 0 7.159,-1.233"
         fill="#f9b85b" />
      <path
         id="Path_87"
         data-name="Path 87"
         d="m 1842.08,800.856 c 7.672,1.667 14.172,5.9 19.221,10.406 4.74,-0.565 9.492,1.644 14.376,0.985 a 30.287,30.287 0 0 0 9.346,-3.2 c 0.842,-0.421 1.668,-0.855 2.487,-1.3 q 1.748,-0.945 3.469,-1.948 1.185,-0.7 2.369,-1.413 l 1.152,0.405 a 39.987,39.987 0 0 1 5.08,-2.392 35.4,35.4 0 0 0 -5.145,-1.543 c -19.417,-4.237 -29.053,-14.665 -29.053,-14.665 h -52.35 c 0.131,0.153 9.776,10.464 29.048,14.665"
         fill="#fde3c1" />
      <path
         id="Path_88"
         data-name="Path 88"
         d="M 1813.026,786.191 Z"
         fill="#fde3c1" />
      <path
         id="Path_89"
         data-name="Path 89"
         d="m 1904.73,800.856 a 35.434,35.434 0 0 0 -5.15,1.543 39.987,39.987 0 0 0 -5.08,2.392 c -0.911,0.508 -1.805,1.051 -2.666,1.609 a 51.758,51.758 0 0 0 -5.13,3.818 66.188,66.188 0 0 0 -13.3,15.483 65.862,65.862 0 0 0 -12.1,-14.439 c -5.049,-4.507 -11.549,-8.739 -19.221,-10.406 -19.272,-4.2 -28.917,-14.512 -29.048,-14.665 h -0.01 l -4.057,3.929 a 1.4,1.4 0 0 0 -1.951,0.333 1.387,1.387 0 0 0 0.342,1.941 l 58.441,41.314 1.217,-0.864 1.2,-0.845 3.948,-2.79 1.377,-0.972 19.4,-13.709 5.042,-3.57 0.153,-0.1 7.659,-5.42 13.287,-9.391 a 68.458,68.458 0 0 1 -14.357,4.809 z"
         fill="#e5c7a0" />
      <path
         id="Path_90"
         data-name="Path 90"
         d="m 1807.018,790.453 a 1.387,1.387 0 0 0 0.342,1.941 l 58.441,41.314 1.217,-0.864 1.2,-0.845 -59.246,-41.879 a 1.4,1.4 0 0 0 -1.951,0.333"
         fill="#1d4469" />
    </g>
  </g>
</svg>
