<svg xmlns="http://www.w3.org/2000/svg" width="279.846" height="279.846" viewBox="0 0 279.846 279.846">
  <g id="Group_22" data-name="Group 22" transform="translate(-1763.332 -1153.28)">
    <circle id="Ellipse_12" data-name="Ellipse 12" cx="139.923" cy="139.923" r="139.923" transform="translate(1763.332 1153.28)" fill="#fff"/>
    <path id="Path_96" data-name="Path 96" d="M1947.736,1246.213v-1.837a38.98,38.98,0,0,0-1.555-10.941,38.5,38.5,0,0,0-1.935-5.174v-1.494l-1.358-1.213a38.938,38.938,0,0,0-6.268-8.391,38.664,38.664,0,0,0-35.195-37.783,10.927,10.927,0,0,0,1.618-.822.169.169,0,0,0,.044-.024c.01-.007.02-.015.032-.022h.007a11.639,11.639,0,0,0,1.966-1.55.563.563,0,0,1,.061-.054c.051-.056.107-.109.16-.165.1-.109.2-.212.3-.328.145-.158.286-.321.425-.494.036-.046.07-.094.107-.14.085-.11.167-.219.25-.329.041-.063.085-.126.126-.179.054-.081.105-.151.156-.229a11.613,11.613,0,0,0,1.062-2.026c.031-.078.063-.156.092-.236l.008-.022a.1.1,0,0,0,.007-.024,11.191,11.191,0,0,0,.4-1.308,11.934,11.934,0,0,0,.321-2.449v-.022l0-.063v-.18a11.539,11.539,0,1,0-17.722,9.735c.33.211.678.408,1.03.588.058.029.121.053.18.085a.01.01,0,0,1,.009.005.2.2,0,0,0,.03.019c.007,0,.019.008.026.008.18.085.365.165.55.243a.832.832,0,0,1,.119.053.771.771,0,0,1,.141.049,38.955,38.955,0,0,0-34.163,38.658V1220l-7.577,6.77h0v125.676h.005l7.575,6.778v5.846a38.8,38.8,0,0,0,11.118,27.223,38.928,38.928,0,0,0,77.844-1.006v-1.84h-.613v-4.007h.613l7.577-6.778h0V1252.99h0v-.007Zm-70.479,87.314a2.469,2.469,0,0,1-1.035,2v-44.948a7.911,7.911,0,0,1,.124-1.4,8.174,8.174,0,0,1,.911-2.534Zm14.856-159.336a.072.072,0,0,0-.02-.019,7.772,7.772,0,0,1-.8-.887c-.126-.161-.248-.326-.36-.493a7.166,7.166,0,0,1-.556-.956c-.051-.1-.085-.209-.129-.313a7.409,7.409,0,0,1-.389-1.174c-.01-.056-.027-.114-.039-.172a7.382,7.382,0,0,1-.153-1.526v-.11c.005-.194.02-.391.039-.595a2.346,2.346,0,0,1,.032-.25,7.24,7.24,0,0,1,1.565-3.607.084.084,0,0,1,.024-.031,7.377,7.377,0,0,1,.644-.7,6.52,6.52,0,0,1,.656-.547.118.118,0,0,1,.044-.031,2.074,2.074,0,0,1,.2-.148,7.966,7.966,0,0,1,.928-.542.023.023,0,0,1,.019-.008,6.817,6.817,0,0,1,.664-.289.088.088,0,0,0,.041-.014,7.369,7.369,0,0,1,9.363,4.194c.071.173.134.343.19.525a7.652,7.652,0,0,1,.2.8.28.28,0,0,0,.015.063c.014.086.031.18.046.275a7.86,7.86,0,0,1,.073,1.072,7.37,7.37,0,0,1-12.294,5.477Zm12.909,159.939a1.776,1.776,0,0,1-.071.517,1.92,1.92,0,0,1-1.191,1.269c-.024.007-.056.007-.082.014v-47.338a6.133,6.133,0,0,1,1.344-3.828Zm24.816-.6a2.463,2.463,0,0,1-1.03,1.966v-44.914a8.164,8.164,0,0,1,1.03-3.973Zm11.067,26.218a2.489,2.489,0,0,1-2.489,2.489h-2.359v-3.013h.61l4.238-3.791Z" fill="#ddd"/>
    <g id="Group_21" data-name="Group 21">
      <path id="Path_97" data-name="Path 97" d="M1944.246,1226.774h0v-.007l-7.579-6.77v-1.84a38.958,38.958,0,0,0-35.242-38.777,10.927,10.927,0,0,0,1.618-.822.169.169,0,0,0,.044-.024c.01-.007.02-.015.032-.022h.007a11.639,11.639,0,0,0,1.966-1.55h0a.563.563,0,0,1,.061-.054c.051-.056.107-.109.16-.165.1-.109.2-.212.3-.328.148-.158.289-.321.428-.494.036-.046.07-.094.107-.14.085-.11.167-.219.248-.329.043-.063.087-.126.128-.179l.154-.229a11.491,11.491,0,0,0,1.064-2.026c.031-.078.063-.156.092-.236l.008-.022a.1.1,0,0,0,.007-.024,11.191,11.191,0,0,0,.4-1.308,11.934,11.934,0,0,0,.321-2.449v-.085c0-.025,0-.047,0-.064h0v-.116a11.539,11.539,0,1,0-17.722,9.735h0c.33.211.678.408,1.03.588.058.029.121.053.18.085a.085.085,0,0,0,.039.015.044.044,0,0,0,.026.017c.18.085.365.165.55.243a.832.832,0,0,1,.119.053.771.771,0,0,1,.141.049,38.955,38.955,0,0,0-34.163,38.658V1220l-7.577,6.77h0v125.676h.005l7.575,6.778v5.846a38.946,38.946,0,1,0,77.893,0v-1.839h-.61v-4.007h.61l7.577-6.778h0Zm-52.923-62.716a7.377,7.377,0,0,1,.644-.7,6.52,6.52,0,0,1,.656-.547.118.118,0,0,1,.044-.031,2.074,2.074,0,0,1,.2-.148,7.966,7.966,0,0,1,.928-.542.023.023,0,0,1,.019-.008,6.817,6.817,0,0,1,.664-.289.088.088,0,0,0,.041-.014,7.369,7.369,0,0,1,9.363,4.194c.071.173.134.343.19.525a7.652,7.652,0,0,1,.2.8.28.28,0,0,0,.015.063c.014.086.031.18.046.275a7.86,7.86,0,0,1,.073,1.072,7.37,7.37,0,0,1-12.294,5.477c-.136-.133-.275-.257-.4-.4-.065-.071-.133-.134-.2-.2a7.557,7.557,0,0,1-.761-1.04c-.061-.095-.114-.188-.165-.282s-.1-.2-.158-.29a7.145,7.145,0,0,1-.387-.94c-.043-.117-.077-.241-.111-.367a5.681,5.681,0,0,1-.151-.659l-.022-.131a1.318,1.318,0,0,1-.022-.165c-.024-.165-.039-.328-.051-.493a1.347,1.347,0,0,1-.01-.2c-.009-.117-.012-.241-.012-.367v-.11c.005-.194.02-.391.039-.595h0a2.346,2.346,0,0,1,.032-.25,7.24,7.24,0,0,1,1.565-3.607.084.084,0,0,1,.024-.031m2.085,15.611c-.012-.008-.027-.008-.036-.015l-.044-.014a.355.355,0,0,1,.08.029m-.8,154.461v-71.755a6.165,6.165,0,0,1,2.43-4.916,6.06,6.06,0,0,1,2.923-1.227c.163-.024.326-.041.489-.049a1.165,1.165,0,0,0-.173.017c-.1.008-.211.015-.323.032.107-.017.216-.024.323-.032a1.079,1.079,0,0,1,.173-.017,3.25,3.25,0,0,1,.369-.014l.36.014c.1.008.194.008.294.025a1.558,1.558,0,0,1,.284.039,3.656,3.656,0,0,1,.569.109,1.66,1.66,0,0,1,.2.056,2.014,2.014,0,0,1,.253.078,5.739,5.739,0,0,1,.646.257,2.388,2.388,0,0,1,.306.156,1.067,1.067,0,0,1,.182.1c.115.063.224.133.329.2a6.529,6.529,0,0,1,.962.789,6.171,6.171,0,0,1,1.818,4.384v71.755a1.776,1.776,0,0,1-.071.517,1.92,1.92,0,0,1-1.191,1.269,2.117,2.117,0,0,1-.622.1H1894.5a1.88,1.88,0,0,1-1.89-1.885m-16.914,1.7a2.387,2.387,0,0,1-.928.18h-7.121a2.491,2.491,0,0,1-2.491-2.488v-69.164a7.9,7.9,0,0,1,.124-1.4,8.169,8.169,0,0,1,2.28-4.4,8.056,8.056,0,0,1,3.652-2.112,8.2,8.2,0,0,1,6.046,7.912v69.164a2.481,2.481,0,0,1-1.562,2.308m42.046-71.472a8.2,8.2,0,0,1,6.044-7.912.722.722,0,0,1,.189.061,7.9,7.9,0,0,1,1.266.486,7.99,7.99,0,0,1,2.2,1.565,8.2,8.2,0,0,1,2.4,5.8v69.164a2.489,2.489,0,0,1-2.491,2.488h-7.12a2.274,2.274,0,0,1-.571-.07,2.483,2.483,0,0,1-1.915-2.418Z" fill="#f9b85b"/>
      <path id="Path_98" data-name="Path 98" d="M1887.046,1252.451v-4.374a11.713,11.713,0,0,1,3.21-8.078,19.334,19.334,0,0,1-.712-5.626c.141-3.067,1.609-6.27,4.387-7.584l.051-.015h19.526v-.007l-2.572-6.77H1884.5l-1.49,3.929-1.079,2.841v.007h0v14.979a59.845,59.845,0,0,1,5.113,10.7" fill="#fccf8c"/>
      <path id="Path_99" data-name="Path 99" d="M1910.584,1338.232a3.513,3.513,0,0,1-.85,2.308,3.55,3.55,0,0,1-2.727,1.269h-1.1a15.606,15.606,0,0,1-.607,5.516,9.491,9.491,0,0,1-3.927,5.118h12.136v-9.516q-1.575-5.446-2.924-10.941Z" fill="#fccf8c"/>
      <path id="Path_100" data-name="Path 100" d="M1892.322,1184.318c-6.452-1.284-5.419,11.975-4.144,15.324.358.938,1.959,1.213,2.19,0,.491-2.583.671-5.213,1.3-7.772.471-1.9,1.934-4.1,1.81-6.026a1.622,1.622,0,0,0-1.161-1.526" fill="#fccf8c"/>
      <path id="Path_101" data-name="Path 101" d="M1884.856,1192.075a12.874,12.874,0,0,1,8.985-12.273l-.042-.014h0a.155.155,0,0,0,.048.014l.083.025a.167.167,0,0,1,.061.014c.044.017.09.025.134.039a.251.251,0,0,0,.085.017c.034.007.068.022.1.032.051.007.1.022.151.031a.067.067,0,0,0,.041.008,10.893,10.893,0,0,0,1.193.2c.02,0,.032.007.051.007.166.015.336.032.5.046h.075c.2.017.387.025.579.025h.136c.345,0,.685-.017,1.02-.049.037,0,.073-.007.107-.007h0l.241-.022c.087-.01.172-.025.253-.032.223-.039.442-.07.661-.119.031-.007.063-.014.092-.022.1-.017.189-.031.279-.056l.027-.007a.559.559,0,0,0,.054-.017c.009,0,.024-.007.036-.007.058-.015.114-.032.173-.046s.1-.025.153-.039c.24-.071.483-.141.719-.229h.012l.041-.014-.039.014a12.865,12.865,0,0,1,9.716,12.477V1220h26.083v-1.84a38.96,38.96,0,0,0-35.242-38.777,10.927,10.927,0,0,0,1.618-.822.169.169,0,0,0,.044-.024l.029-.022h.01a11.639,11.639,0,0,0,1.966-1.55h0a.563.563,0,0,1,.061-.054c.051-.056.107-.109.16-.165.1-.109.2-.212.3-.328.145-.158.286-.321.425-.494.036-.046.07-.094.107-.14.085-.11.167-.219.25-.329.041-.063.085-.126.126-.179.054-.081.105-.151.156-.229a11.613,11.613,0,0,0,1.062-2.026c.031-.078.063-.156.092-.236l.008-.022a.1.1,0,0,0,.007-.024,11.191,11.191,0,0,0,.4-1.308,11.6,11.6,0,0,0,.321-2.449v-.022l0-.063v-.064h0a.887.887,0,0,0-.272-.342,1.112,1.112,0,0,0-1.5.43,4.169,4.169,0,0,0-.481,1.657,9.488,9.488,0,0,1-12.653,7.288c-.844-.306-2.666-.736-2.814.586h0c.33.211.678.408,1.03.588.058.029.121.053.182.085l.037.024c.007,0,.019.008.026.008.18.085.365.165.552.243a.922.922,0,0,1,.117.053.771.771,0,0,1,.141.049,38.955,38.955,0,0,0-34.163,38.658V1220h26.082Zm27.495-4.987c1.929-3.264,8.505,3.084,9.7,4.469a6.192,6.192,0,0,1,1.738,3.545,2.671,2.671,0,0,1-2.194,2.88,3.67,3.67,0,0,1-2.372-.994c-1.7-1.3-8.377-7.356-6.87-9.9m-18.943-7.427a.077.077,0,0,1-.039-.007l-.041-.014.08.021m-13.023,15.441q-5.952,7.455-11.9,14.909a2.494,2.494,0,0,1-1.56,1.135c-1.111.1-1.774-1.222-1.913-2.326a14.571,14.571,0,0,1,1.6-7.708,33.762,33.762,0,0,1,10.369-12.9c1.733-1.307,4.11-2.967,5.614-.479,1.524,2.513-.715,5.488-2.214,7.373" fill="#f09c44"/>
      <path id="Path_102" data-name="Path 102" d="M1944.246,1352.443v-29.818c-.316-1.29-.646-2.566-1.028-3.825a55.394,55.394,0,0,0-2.644-6.826v-16.3c.343.87.688,1.745,1.031,2.607a6.239,6.239,0,0,0,1.591,2.63,2.583,2.583,0,0,0,1.05.508v-74.644h-26.114a14.614,14.614,0,0,0-1.125,3.137c-.612,3.342.527,6.637,1.648,9.738.192.522.384,1.055.58,1.58a11.627,11.627,0,0,0-2.2,6.84v17.757a13.856,13.856,0,0,0-2.632-3.13c-.289-.243-.585-.479-.889-.705v90.452h-31.577v-29.818c-.318-1.29-.646-2.566-1.028-3.825a54.927,54.927,0,0,0-2.569-6.653V1295.87c.316.807.64,1.6.958,2.41a6.192,6.192,0,0,0,1.592,2.63,2.564,2.564,0,0,0,1.047.508v-74.644h-26.116a15.124,15.124,0,0,0-1.13,3.137c-.6,3.342.529,6.637,1.657,9.738.2.547.4,1.094.6,1.635-.044.071-.09.141-.141.212-.076.116-.158.24-.231.367a1.6,1.6,0,0,0-.129.211c-.143.243-.284.486-.406.737-.065.131-.129.257-.184.391a11.935,11.935,0,0,0-.465,1.188c-.043.134-.09.275-.126.416s-.078.272-.114.413-.071.282-.1.423c-.047.211-.088.422-.119.641-.027.2-.059.384-.076.588-.036.4-.058.79-.058,1.2v17.881a14.265,14.265,0,0,0-2.715-3.254c-.281-.243-.58-.479-.887-.705v90.452h.005l7.575,6.778v5.846a38.946,38.946,0,1,0,77.893,0v-1.839h-.61v-4.007h.61l7.577-6.778Zm-26.505-88.08a8.2,8.2,0,0,1,6.044-7.912.722.722,0,0,1,.189.061,7.9,7.9,0,0,1,1.266.486,7.99,7.99,0,0,1,2.2,1.565,8.2,8.2,0,0,1,2.4,5.8v69.164a2.489,2.489,0,0,1-2.491,2.488h-7.115a2.285,2.285,0,0,1-.576-.07,2.483,2.483,0,0,1-1.915-2.418Zm-40.484,69.164a2.489,2.489,0,0,1-1.562,2.308,2.387,2.387,0,0,1-.928.18h-7.121a2.491,2.491,0,0,1-2.491-2.488v-69.164a7.9,7.9,0,0,1,.124-1.4,8.169,8.169,0,0,1,2.28-4.4,8.056,8.056,0,0,1,3.652-2.112,8.2,8.2,0,0,1,6.046,7.912Zm20.448,42.418c-.3,2.192-.674,4.984-2.316,6.636a3.8,3.8,0,0,1-5.354.226c-1.648-1.533-1.655-4.483-1.832-6.549-.214-2.505-.426-5.463,1.054-7.63a1.851,1.851,0,0,1,1.463-.783,4.2,4.2,0,0,1,1.995-1.434c5.723-1.847,5.442,6.207,4.99,9.534" fill="#f09c44"/>
      <g id="Group_20" data-name="Group 20">
        <path id="Path_103" data-name="Path 103" d="M1871.571,1378.433c-1.1-3.006-1.29-8.216-4.474-9.767a2.754,2.754,0,0,0-3.181.406c-3.334,2.992-.515,9.322,1.116,12.617,1.941,3.937,4.627,7.191,8.721,8.89,1.072.437,2.039-.822,1.786-1.791C1874.587,1385.179,1872.849,1381.94,1871.571,1378.433Z" fill="none"/>
        <path id="Path_104" data-name="Path 104" d="M1926.936,1368.783c-1.057,2.474-1.555,5.128-2.639,7.592-.984,2.223-2.729,4.359-2.231,6.862a2.034,2.034,0,0,0,1.957,1.488c2.913-.384,4.461-3.162,5.679-5.65,1.329-2.715,2.585-5.806,2.464-8.875C1932.064,1367.68,1928.11,1366.037,1926.936,1368.783Z" fill="none"/>
        <path id="Path_105" data-name="Path 105" d="M1913.51,1352.443h0l-2.572,6.778H1884.5l-2.569-6.778H1851.2l7.575,6.778h0v5.846a38.948,38.948,0,0,0,38.95,38.948,12.863,12.863,0,0,1-12.865-12.865v-27.922h25.725v27.922a12.862,12.862,0,0,1-12.86,12.865,38.945,38.945,0,0,0,38.943-38.948v-1.839h-.61v-4.007h.61l7.577-6.778H1913.51Zm-39.757,38.136c-4.094-1.7-6.78-4.953-8.721-8.89-1.631-3.295-4.45-9.625-1.116-12.617a2.754,2.754,0,0,1,3.181-.406c3.184,1.551,3.376,6.761,4.474,9.767,1.278,3.507,3.016,6.746,3.968,10.355C1875.792,1389.757,1874.825,1391.016,1873.753,1390.579Zm55.949-11.5c-1.218,2.488-2.766,5.266-5.679,5.65a2.034,2.034,0,0,1-1.957-1.488c-.5-2.5,1.247-4.639,2.231-6.862,1.084-2.464,1.582-5.118,2.639-7.592,1.174-2.746,5.128-1.1,5.23,1.417C1932.287,1373.269,1931.031,1376.36,1929.7,1379.075Z" fill="#e08c34"/>
      </g>
      <path id="Path_106" data-name="Path 106" d="M1940.511,1246.871c-.015-.2-.044-.391-.075-.588-.029-.219-.071-.43-.115-.641h0a4.34,4.34,0,0,0-.1-.423c-.034-.141-.073-.28-.109-.413s-.086-.282-.129-.409a10.1,10.1,0,0,0-.469-1.195c-.056-.134-.117-.26-.183-.391-.121-.251-.26-.494-.405-.737a2,2,0,0,0-.127-.211c-.075-.127-.155-.251-.235-.367-.112-.158-.214-.314-.331-.462l-.007-.017c-.112-.148-.224-.289-.345-.43s-.239-.289-.36-.423l-.012-.014c-.119-.141-.253-.268-.384-.409a11.763,11.763,0,0,0-17.891,1.488,11.633,11.633,0,0,0-2.2,6.848v90.155a3.558,3.558,0,0,0,.6,1.98,3.6,3.6,0,0,0,.889.924,20.825,20.825,0,0,0,1.135-5.191,2.483,2.483,0,0,1-1.915-2.418v-69.164a8.2,8.2,0,0,1,6.044-7.912.722.722,0,0,1,.189.061,7.291,7.291,0,0,1,1.266.486,7.99,7.99,0,0,1,2.2,1.565,8.2,8.2,0,0,1,2.4,5.8v69.164a2.489,2.489,0,0,1-2.491,2.488h4.666a2.5,2.5,0,0,0,2.041-1.054c.061.077.122.162.19.243a70.493,70.493,0,0,0,5.319,5.509,1.721,1.721,0,0,0,.158-.173,3.539,3.539,0,0,0,.853-2.308v-90.155C1940.574,1247.661,1940.55,1247.27,1940.511,1246.871Z" fill="#c7761d"/>
      <path id="Path_107" data-name="Path 107" d="M1890.98,1174.49a1.075,1.075,0,0,0,1.028-.172l.1-.127a7.34,7.34,0,0,1-2.45-5.54v-.11c.005-.194.02-.391.039-.595h0a2.346,2.346,0,0,1,.032-.25,7.24,7.24,0,0,1,1.565-3.607.084.084,0,0,1,.024-.031,7.377,7.377,0,0,1,.644-.7,8.11,8.11,0,0,1,.656-.556l.044-.022a2.074,2.074,0,0,1,.2-.148,7.966,7.966,0,0,1,.928-.542c.007-.008.012-.008.019-.015.217-.1.438-.2.664-.282a.088.088,0,0,0,.041-.014,7.369,7.369,0,0,1,9.363,4.194c.071.173.134.343.19.525a7.652,7.652,0,0,1,.2.8.28.28,0,0,0,.015.063.8.8,0,0,0,.454.557.891.891,0,0,0,.241.046c.668.007.882-.9.8-1.565a7.7,7.7,0,0,0-3.222-5.815,10.226,10.226,0,0,0-6.671-1.393,9.729,9.729,0,0,0-6.8,4.11,9.367,9.367,0,0,0-.476,8.9,3.975,3.975,0,0,0,2.369,2.287" fill="#f09c44"/>
      <path id="Path_108" data-name="Path 108" d="M1890.256,1240a11.713,11.713,0,0,0-3.21,8.078v90.155a3.581,3.581,0,0,0,3.58,3.577h16.381a3.588,3.588,0,0,0,3.577-3.577v-90.155a11.762,11.762,0,0,0-20.328-8.078m8.924,16.184c.1.008.194.008.294.025a1.558,1.558,0,0,1,.284.039,3.656,3.656,0,0,1,.569.109,1.66,1.66,0,0,1,.2.056,2.014,2.014,0,0,1,.253.078,5.739,5.739,0,0,1,.646.257,2.388,2.388,0,0,1,.306.156,1.067,1.067,0,0,1,.182.1c.115.063.224.133.329.2a6.529,6.529,0,0,1,.962.789,6.171,6.171,0,0,1,1.818,4.384v71.755a1.776,1.776,0,0,1-.071.517,1.9,1.9,0,0,1-1.191,1.269,2.117,2.117,0,0,1-.622.1H1894.5a1.88,1.88,0,0,1-1.89-1.885v-71.755a6.189,6.189,0,0,1,2.43-4.923,6.126,6.126,0,0,1,2.923-1.22c.163-.024.326-.041.489-.049a1.165,1.165,0,0,0-.173.017c-.1.008-.211.015-.323.032.107-.017.216-.024.323-.032a1.079,1.079,0,0,1,.173-.017,3.25,3.25,0,0,1,.369-.014Z" fill="#f09c44"/>
      <path id="Path_109" data-name="Path 109" d="M1907.138,1239.741a11.776,11.776,0,0,0-20.092,8.336v90.155a3.565,3.565,0,0,0,.6,1.98,46.923,46.923,0,0,1,2.975-8.751v2.066a2.488,2.488,0,0,0,2.488,2.488h1.39a1.88,1.88,0,0,1-1.89-1.885v-71.755a6.165,6.165,0,0,1,2.43-4.916,6.1,6.1,0,0,1,2.911-1.227h.012c.163-.024.326-.041.489-.049a3.189,3.189,0,0,1,.369-.014l.36.014c.1.008.192.008.294.025h.041c.078.007.16.024.243.039a3.656,3.656,0,0,1,.569.109,1.66,1.66,0,0,1,.2.056,2.014,2.014,0,0,1,.253.078,5.739,5.739,0,0,1,.646.257,2.388,2.388,0,0,1,.306.156,1.067,1.067,0,0,1,.182.1c.115.063.224.133.329.2a6.529,6.529,0,0,1,.962.789,6.171,6.171,0,0,1,1.818,4.384v71.755a1.776,1.776,0,0,1-.071.517,1.92,1.92,0,0,1-1.191,1.269,2.117,2.117,0,0,1-.622.1h1.383a2.14,2.14,0,0,0,.637-.085,2.48,2.48,0,0,0,1.854-2.4v-1.565a38.053,38.053,0,0,1,2.722,8.578,3.526,3.526,0,0,0,.85-2.308v-84.639h0v-5.516A11.775,11.775,0,0,0,1907.138,1239.741Z" fill="#d68228"/>
      <rect id="Rectangle_27" data-name="Rectangle 27" width="77.283" height="4.007" transform="translate(1858.774 1359.221)" fill="#1d4469"/>
      <path id="Path_110" data-name="Path 110" d="M1903.991,1336.455c-.058-.148-.121-.289-.187-.44h-5.781a30.409,30.409,0,0,0-1.152,5.794h9.232c-.075-.229-.153-.455-.236-.673-.568-1.582-1.217-3.14-1.876-4.681" fill="#f7ac55"/>
      <path id="Path_111" data-name="Path 111" d="M1906.871,1262.866a7.8,7.8,0,0,1,.141,1.5v67.6a38.053,38.053,0,0,1,2.722,8.578,3.526,3.526,0,0,0,.85-2.308v-84.639c-.333.581-.671,1.174-.984,1.769a32.935,32.935,0,0,0-2.729,7.5" fill="#e08c34"/>
      <path id="Path_112" data-name="Path 112" d="M1890.621,1268.04c-.618-3.208-1.213-6.418-2.059-9.562a42.15,42.15,0,0,0-1.516-4.744v84.5a3.565,3.565,0,0,0,.6,1.98,46.923,46.923,0,0,1,2.975-8.751Z" fill="#e08c34"/>
      <path id="Path_113" data-name="Path 113" d="M1890.621,1333.527a2.488,2.488,0,0,0,2.488,2.488h1.39a1.88,1.88,0,0,1-1.89-1.885v-71.755a6.165,6.165,0,0,1,2.43-4.916,6.067,6.067,0,0,1,2.923-1.227,8.147,8.147,0,0,0-7.341,8.075Z" fill="#b06d22"/>
      <path id="Path_114" data-name="Path 114" d="M1900.327,1256.356a1.66,1.66,0,0,1,.2.056,2.014,2.014,0,0,1,.253.078,5.739,5.739,0,0,1,.646.257,2.388,2.388,0,0,1,.306.156,1.067,1.067,0,0,1,.182.1c.115.063.224.133.329.2a6.529,6.529,0,0,1,.962.789,6.171,6.171,0,0,1,1.818,4.384v71.755a1.776,1.776,0,0,1-.071.517,1.92,1.92,0,0,1-1.191,1.269,2.117,2.117,0,0,1-.622.1h1.383a2.14,2.14,0,0,0,.637-.085,2.48,2.48,0,0,0,1.854-2.4v-69.164a7.8,7.8,0,0,0-.141-1.5,8.163,8.163,0,0,0-7.4-6.658,1.558,1.558,0,0,1,.284.039,3.656,3.656,0,0,1,.569.109" fill="#b06d22"/>
      <path id="Path_115" data-name="Path 115" d="M1934.5,1333.527a2.531,2.531,0,0,1-.447,1.434c.061.077.122.162.19.243a70.493,70.493,0,0,0,5.319,5.509,1.721,1.721,0,0,0,.158-.173,3.539,3.539,0,0,0,.853-2.308v-1.441a73.192,73.192,0,0,1-6.073-11.427Z" fill="#e08c34"/>
      <path id="Path_116" data-name="Path 116" d="M1920.232,1336.015a2.285,2.285,0,0,1-.576-.07,20.825,20.825,0,0,1-1.135,5.191,3.583,3.583,0,0,0,2.092.673h1.4c.151-1.927.306-3.867.454-5.794Z" fill="#e08c34"/>
      <path id="Path_117" data-name="Path 117" d="M1934.244,1335.2c-.071-.081-.129-.166-.19-.243a2.5,2.5,0,0,1-2.041,1.054h-9.546c-.148,1.927-.3,3.867-.454,5.794h14.979a3.549,3.549,0,0,0,2.571-1.1,70.493,70.493,0,0,1-5.319-5.509" fill="#f7ac55"/>
      <path id="Path_118" data-name="Path 118" d="M1940.574,1248.077c0-.416-.024-.807-.063-1.206-.015-.2-.044-.391-.075-.588-.029-.219-.071-.43-.115-.641-.733,1.19-1.625,2.325-2.417,3.467a35.971,35.971,0,0,0-4.805,10.676,8.143,8.143,0,0,1,1.4,4.578v61a73.192,73.192,0,0,0,6.073,11.427Z" fill="#d68228"/>
      <path id="Path_119" data-name="Path 119" d="M1917.741,1333.527V1279.09c-.258-1.5-.491-3-.71-4.508v63.65a3.558,3.558,0,0,0,.6,1.98,3.6,3.6,0,0,0,.889.924,20.825,20.825,0,0,0,1.135-5.191,2.483,2.483,0,0,1-1.915-2.418" fill="#d68228"/>
      <path id="Path_120" data-name="Path 120" d="M1874.939,1239.8a11.882,11.882,0,0,0-3.052-2.223,11.794,11.794,0,0,0-13.643,2.167c-.136.141-.262.268-.386.409l-.01.014c-.121.134-.245.282-.362.423s-.231.282-.345.43l-.005.017-.124.148-.07.1c-.044.071-.09.141-.141.212-.076.116-.158.24-.231.367a1.6,1.6,0,0,0-.129.211c-.143.243-.284.486-.406.737-.065.131-.129.257-.184.391a11.935,11.935,0,0,0-.465,1.188c-.043.134-.09.275-.126.416s-.078.272-.114.413-.071.282-.1.423q.653,1.068-.005,0c-.042.211-.083.422-.114.641-.027.2-.056.384-.076.588-.036.4-.056.79-.056,1.206v90.155a3.525,3.525,0,0,0,.848,2.308,1.373,1.373,0,0,0,.161.173,70.874,70.874,0,0,0,5.319-5.509c.068-.081.129-.166.19-.243a2.484,2.484,0,0,0,2.039,1.054h4.291a2.491,2.491,0,0,1-2.491-2.488v-69.164a7.9,7.9,0,0,1,.124-1.4,8.169,8.169,0,0,1,2.28-4.4,8.056,8.056,0,0,1,3.652-2.112,8.2,8.2,0,0,1,6.046,7.912V1281.2c.042-.221.083-.433.122-.642q.525-3,.957-5.973v-26.513A11.741,11.741,0,0,0,1874.939,1239.8Z" fill="#d68228"/>
      <path id="Path_121" data-name="Path 121" d="M1926.305,1256.169a7.71,7.71,0,0,0-1.347.117,7.483,7.483,0,0,0-.984.226,7.291,7.291,0,0,1,1.266.486,7.99,7.99,0,0,1,2.2,1.565,8.2,8.2,0,0,1,2.4,5.8v69.164a2.489,2.489,0,0,1-2.491,2.488h4.666a2.472,2.472,0,0,0,2.488-2.488v-69.164a8.143,8.143,0,0,0-1.4-4.578,8.411,8.411,0,0,0-1-1.215,8.2,8.2,0,0,0-5.8-2.4" fill="#b06d22"/>
      <path id="Path_122" data-name="Path 122" d="M1874.767,1336.015H1872.9c.146,1.927.306,3.867.455,5.794h1.4a3.582,3.582,0,0,0,2.09-.673,21.19,21.19,0,0,1-1.152-5.3,2.387,2.387,0,0,1-.928.18" fill="#e08c34"/>
      <path id="Path_123" data-name="Path 123" d="M1861.126,1335.2c.068-.081.129-.166.19-.243a2.52,2.52,0,0,1-.452-1.434v-8.163a73.062,73.062,0,0,1-6.066,11.427v1.441a3.525,3.525,0,0,0,.848,2.308,1.373,1.373,0,0,0,.161.173,70.874,70.874,0,0,0,5.319-5.509" fill="#e08c34"/>
      <path id="Path_124" data-name="Path 124" d="M1863.355,1336.015a2.484,2.484,0,0,1-2.039-1.054c-.061.077-.122.162-.19.243a70.874,70.874,0,0,1-5.319,5.509,3.539,3.539,0,0,0,2.568,1.1h14.98c-.149-1.927-.309-3.867-.455-5.794Z" fill="#f7ac55"/>
      <path id="Path_125" data-name="Path 125" d="M1878.336,1274.582q-.434,2.982-.957,5.973c-.039.209-.08.421-.122.642v52.33a2.489,2.489,0,0,1-1.562,2.308,21.19,21.19,0,0,0,1.152,5.3,3.579,3.579,0,0,0,.887-.924,3.527,3.527,0,0,0,.6-1.98Z" fill="#d68228"/>
      <path id="Path_126" data-name="Path 126" d="M1862.266,1259.775a8.712,8.712,0,0,1,1-1.212c.065-.064.134-.124.2-.195a8.178,8.178,0,0,1,5.591-2.2,8.476,8.476,0,0,1,2.153.282,8.2,8.2,0,0,1,6.046,7.912V1281.2c.042-.221.083-.433.122-.642q.525-3,.957-5.973v-26.513a11.741,11.741,0,0,0-3.4-8.272,11.882,11.882,0,0,0-3.052-2.223,11.794,11.794,0,0,0-13.643,2.167c-.136.141-.262.268-.386.409l-.01.014c-.121.134-.245.282-.362.423s-.231.282-.345.43l-.005.017-.124.148-.07.1c-.044.071-.09.141-.141.212-.076.116-.158.24-.231.367a1.6,1.6,0,0,0-.129.211c-.143.243-.284.486-.406.737-.065.131-.129.257-.184.391a11.935,11.935,0,0,0-.465,1.188c-.043.134-.09.275-.126.416s-.078.272-.114.413-.071.282-.1.423c.731,1.19,1.628,2.325,2.413,3.467a35.819,35.819,0,0,1,4.8,10.666" fill="#c7761d"/>
      <path id="Path_127" data-name="Path 127" d="M1865.155,1333.527v-69.164a7.9,7.9,0,0,1,.124-1.4,8.169,8.169,0,0,1,2.28-4.4,8.056,8.056,0,0,1,3.652-2.112,8.476,8.476,0,0,0-2.153-.282,8.178,8.178,0,0,0-5.591,2.2c-.068.071-.137.131-.2.195a8.861,8.861,0,0,0-1,1.212v.01a8.191,8.191,0,0,0-1.4,4.578v69.164a2.52,2.52,0,0,0,.452,1.434,2.484,2.484,0,0,0,2.039,1.054h4.291a2.491,2.491,0,0,1-2.491-2.488" fill="#b06d22"/>
    </g>
  </g>
</svg>
