<svg xmlns="http://www.w3.org/2000/svg" width="279.85" height="290.02" viewBox="0 0 279.85 290.02">
  <g id="Group_13" data-name="Group 13" transform="translate(-241.699 -5246.84)">
    <path id="Path_62" data-name="Path 62" d="M521.549,5396.94a139.925,139.925,0,0,1-279.85,0c0-1.7.03-3.39.09-5.08a139.928,139.928,0,0,0,279.67,0C521.519,5393.55,521.549,5395.24,521.549,5396.94Z" fill="#7f7f7f"/>
    <circle id="Ellipse_5" data-name="Ellipse 5" cx="139.923" cy="139.923" r="139.923" transform="translate(241.701 5251.937)" fill="#eaeaea"/>
    <path id="Path_63" data-name="Path 63" d="M521.549,5386.769q0,2.552-.09,5.091a139.927,139.927,0,0,0-279.67,0q-.09-2.536-.09-5.091a139.925,139.925,0,1,1,279.85,0Z" fill="#fff"/>
    <circle id="Ellipse_6" data-name="Ellipse 6" cx="11.593" cy="11.593" r="11.593" transform="translate(362.047 5320.241)" fill="#bfbfbf"/>
    <circle id="Ellipse_7" data-name="Ellipse 7" cx="40.883" cy="40.883" r="40.883" transform="translate(382.788 5396.75)" fill="#7f7f7f"/>
    <circle id="Ellipse_8" data-name="Ellipse 8" cx="40.883" cy="40.883" r="40.883" transform="translate(382.788 5394.688)" fill="#bfbfbf"/>
    <circle id="Ellipse_9" data-name="Ellipse 9" cx="23.858" cy="23.858" r="23.858" transform="translate(285.055 5358.804)" fill="#bfbfbf"/>
    <circle id="Ellipse_10" data-name="Ellipse 10" cx="5.38" cy="5.38" r="5.38" transform="translate(356.62 5410.554)" fill="#bfbfbf"/>
  </g>
</svg>
