<svg xmlns="http://www.w3.org/2000/svg" width="578.433" height="351.213" viewBox="0 0 578.433 351.213">
  <g id="Group_7" data-name="Group 7" transform="translate(-2273.872 -3465.323)">
    <path id="Path_23" data-name="Path 23" d="M2343.693,3603.911h46.255c13.542-.7,23.391-4.4,29.722-11.256a37.892,37.892,0,0,0,27.08,11.256h.006c18.464,0,32.356-4.4,40.446-13.19,8.265,8.441,18.287,13.189,27.607,13.19h40.454c30.953,0,50.3-18.818,50.3-48.013,0-24.622-18.291-42.561-43.441-42.561-23.566,0-41.682,17.059-41.682,40.978,0,6.859,1.935,13.542,5.277,20.578h-10.9a35.948,35.948,0,0,1-19.345-5.628v-36.582l-27.437,3.166.176,21.1c0,12.663-7.386,17.94-21.1,17.94-.061,0-.116.01-.174.014s-.114-.014-.174-.014a32.649,32.649,0,0,1-18.467-5.277v-36.933l-27.436,3.166.176,21.1c0,12.487-4.749,17.94-14.6,17.94h-35.878c-18.115,0-25.5-6.86-25.5-20.929,0-5.452.88-13.543,2.462-24.623l-23.567-2.814c-2.814,13.542-4.4,26.381-4.4,35.527C2299.549,3590.018,2313.971,3603.911,2343.693,3603.911Zm218.077-64.369c9.321,0,16.356,6.859,16.356,16.181,0,11.607-8.442,19.17-22.688,19.17h-5.627c-3.166-6.508-4.925-12.488-4.925-18.116A16.966,16.966,0,0,1,2561.77,3539.542Z" fill="#fcfcfd"/>
    <path id="Path_24" data-name="Path 24" d="M2373.416,3511.051l14.069,13.718,17.939-18.291-18.291-18.114-13.718,13.542-13.895-13.542-18.114,18.114,18.291,18.291Z" fill="#fcfcfd"/>
    <path id="Path_25" data-name="Path 25" d="M2468.031,3612.881,2449.917,3631l18.467,18.114,12.486-12.486,12.839,12.486L2511.824,3631l-18.467-18.115-12.487,12.487Z" fill="#fcfcfd"/>
    <path id="Path_26" data-name="Path 26" d="M2561.242,3488.011l14.069,13.719,17.939-18.291-18.291-18.115-13.718,13.543-13.895-13.543-18.114,18.115,18.29,18.291Z" fill="#fcfcfd"/>
    <path id="Path_27" data-name="Path 27" d="M2650.759,3475.524l-27.437,3.165v125.222h27.437Z" fill="#fcfcfd"/>
    <path id="Path_28" data-name="Path 28" d="M2852.3,3555.9c0-24.622-18.29-42.561-43.441-42.561-23.566,0-41.681,17.059-41.681,40.978,0,6.859,1.934,13.542,5.276,20.578h-19.344v-16.181c0-27.26-17.587-43.968-41.154-43.968-24.271,0-43.265,19.346-43.265,45.375,0,26.381,16.708,43.792,41.682,43.792h14.773c-3.166,11.256-17.762,15.477-47.133,15.477l2.814,22.336c40.978,0,69.646-10.376,72.107-37.813h49.067C2832.959,3603.911,2852.3,3585.093,2852.3,3555.9Zm-126.45,19.873c-4.573.352-8.969.705-13.014.705-10.9,0-19.523-5.628-19.523-17.237a16.223,16.223,0,0,1,16.533-16.707c9.5,0,16,6.683,16,18.114Zm76.327-.878h-5.628c-3.166-6.508-4.925-12.488-4.925-18.116a16.966,16.966,0,0,1,16.884-17.235c9.321,0,16.356,6.859,16.356,16.181C2824.869,3567.33,2816.427,3574.893,2802.182,3574.893Z" fill="#fcfcfd"/>
    <path id="Path_29" data-name="Path 29" d="M2316.609,3701.516l14.069,13.718,17.939-18.291-18.291-18.114-13.718,13.542-13.894-13.542-18.115,18.114,18.291,18.291Z" fill="#fcfcfd"/>
    <path id="Path_30" data-name="Path 30" d="M2316.785,3725.962c-25.149,0-42.913,21.28-42.913,46.254s17.764,44.32,42.913,44.32c24.8,0,42.562-19.346,42.562-44.32S2341.583,3725.962,2316.785,3725.962Zm0,62.962c-9.848,0-17.059-7.563-17.059-17.236,0-9.848,7.211-18.291,17.059-18.291,9.673,0,16.708,8.443,16.708,18.291C2333.493,3781.361,2326.458,3788.924,2316.785,3788.924Z" fill="#fcfcfd"/>
    <path id="Path_31" data-name="Path 31" d="M2766.3,3767.819c0,12.488-4.574,18.116-14.6,18.116-.03,0-.056.006-.085.007s-.056-.007-.086-.007a32.953,32.953,0,0,1-18.818-5.453v-2.461l.351-15.83c.528-24.8-16.356-41.5-40.451-41.5-17.235,0-33.592,5.1-66.479,20.752v-15.652l-27.613,3.341.176,56.808H2482.628c-.03,0-.057.006-.087.007s-.057-.007-.087-.007c-10.024,0-14.6-5.628-14.6-18.116l-.175-81.253-27.437,3.165.176,87.937a39.722,39.722,0,0,0,.176,4.573c-5.8,1.055-12.839,2.111-19.522,2.814l-11.96-75.274-26.908,6.86,13.542,69.294H2365.5l4.045,29.018h37.285c11.608,0,32.889-4.221,43.793-9.5,7.034,6.332,17.761,9.5,32,9.5h207.7c15.3,0,26.732-4.045,33.768-11.783a37.5,37.5,0,0,0,27.43,11.783h.007c28.311,0,42.2-12.488,42.2-37.285l.177-91.1-27.437,3.165Zm-60.848,3.518c0,9.321-5.452,14.6-14.773,14.6h-64.545V3763.6c38.164-12.312,45.9-14.774,60.324-14.774,11.256,0,18.994,6.507,18.994,16.005Z" fill="#fcfcfd"/>
    <path id="Path_32" data-name="Path 32" d="M2818.712,3814.953h27.437V3686.566l-27.437,3.165Z" fill="#fcfcfd"/>
  </g>
</svg>
