<svg xmlns="http://www.w3.org/2000/svg" width="62.9" height="62.892" viewBox="0 0 62.9 62.892">
  <g id="Search_icon" data-name="Search icon" transform="translate(-4690.339 -666.911)">
    <g id="Group_5" data-name="Group 5">
      <g id="Group_3" data-name="Group 3">
        <g id="Group_2" data-name="Group 2">
          <path id="Path_11" data-name="Path 11" d="M4713.993,667.024a26.325,26.325,0,0,1,25.681,38.815c-8.879,16.449-31.991,18.287-43.649,3.721C4683.114,693.429,4693.5,668.851,4713.993,667.024Zm.513,5.407c-16.167,1.659-24.232,20.354-14.475,33.381,8.674,11.579,26.565,10.68,34.208-1.545C4743.44,689.548,4731.673,670.669,4714.506,672.431Z" fill="#929393"/>
        </g>
      </g>
      <g id="Group_4" data-name="Group 4">
        <path id="Path_12" data-name="Path 12" d="M4741.764,711l.487.223c2.667,3.086,6.288,5.812,8.884,8.894,1.95,2.314,3.05,4.7,1.022,7.474-2.461,3.361-5.875,2.459-8.632.136-3.159-2.66-6.024-6.377-9.117-9.184Z" fill="#929393"/>
      </g>
    </g>
  </g>
</svg>
