<svg width="198px" height="198px" viewBox="0 0 24 24" fill="none"
     xmlns="http://www.w3.org/2000/svg" transform="rotate(-45)">
  <path fill-rule="evenodd" clip-rule="evenodd"
        d="M10.8611 1.29212C11.4598 0.593706 12.5403 0.593707 13.1389 1.29212L15.4151 3.94774L18.7684 3.57515C19.7238 3.469 20.531 4.27625 20.4249 5.23162L20.0523 8.58489L22.7079 10.8611C23.4063 11.4598 23.4063 12.5403 22.7079 13.1389L20.0523 15.4151L20.4249 18.7684C20.531 19.7238 19.7238 20.531 18.7684 20.4249L15.4151 20.0523L13.1389 22.7079C12.5403 23.4063 11.4598 23.4063 10.8611 22.7079L8.58489 20.0523L5.23162 20.4249C4.27625 20.531 3.469 19.7238 3.57515 18.7684L3.94774 15.4151L1.29212 13.1389C0.593706 12.5403 0.593707 11.4598 1.29212 10.8611L3.94774 8.58489L3.57515 5.23162C3.469 4.27625 4.27625 3.469 5.23162 3.57515L8.58489 3.94774L10.8611 1.29212ZM12 3.03661L9.93134 5.45006C9.60839 5.82683 9.12001 6.0195 8.62681 5.9647L5.63194 5.63194L5.9647 8.62681C6.0195 9.12001 5.82683 9.60839 5.45006 9.93134L3.03661 12L5.45006 14.0687C5.82683 14.3916 6.0195 14.88 5.9647 15.3732L5.63194 18.3681L8.62681 18.0353C9.12001 17.9805 9.60839 18.1732 9.93134 18.55L12 20.9634L14.0687 18.55C14.3916 18.1732 14.88 17.9805 15.3732 18.0353L18.3681 18.3681L18.0353 15.3732C17.9805 14.88 18.1732 14.3916 18.55 14.0687L20.9634 12L18.55 9.93134C18.1732 9.60839 17.9805 9.12001 18.0353 8.62681L18.3681 5.63194L15.3732 5.9647C14.88 6.0195 14.3916 5.82683 14.0687 5.45006L12 3.03661Z"
        fill="#ffffff" stroke="#000000" stroke-width="0.2"/>
</svg>
