<svg xmlns="http://www.w3.org/2000/svg" width="279.85" height="290.02" viewBox="0 0 279.85 290.02">
  <g id="Group_10" data-name="Group 10" transform="translate(-241.7 -4697.39)">
    <path id="Path_41" data-name="Path 41" d="M521.55,4847.49a139.925,139.925,0,0,1-279.85,0c0-1.7.03-3.39.09-5.08a139.928,139.928,0,0,0,279.67,0C521.52,4844.1,521.55,4845.79,521.55,4847.49Z" fill="#b58f15"/>
    <circle id="Ellipse_4" data-name="Ellipse 4" cx="139.923" cy="139.923" r="139.923" transform="translate(241.702 4697.394)" fill="#ffdc7b"/>
    <path id="Path_42" data-name="Path 42" d="M521.55,4837.32c0,1.7-.03,3.4-.09,5.09a139.928,139.928,0,0,0-279.67,0c-.06-1.69-.09-3.39-.09-5.09a139.925,139.925,0,1,1,279.85,0Z" fill="#fffbb8"/>
  </g>
</svg>
